%TF.GenerationSoftware,KiCad,Pcbnew,(6.0.4)*%
%TF.CreationDate,2022-04-12T11:12:27+02:00*%
%TF.ProjectId,PPSE_2021,50505345-5f32-4303-9231-2e6b69636164,rev?*%
%TF.SameCoordinates,Original*%
%TF.FileFunction,Legend,Bot*%
%TF.FilePolarity,Positive*%
%FSLAX46Y46*%
G04 Gerber Fmt 4.6, Leading zero omitted, Abs format (unit mm)*
G04 Created by KiCad (PCBNEW (6.0.4)) date 2022-04-12 11:12:27*
%MOMM*%
%LPD*%
G01*
G04 APERTURE LIST*
%ADD10C,0.120000*%
%ADD11C,0.200000*%
%ADD12C,0.150000*%
%ADD13C,0.300000*%
G04 APERTURE END LIST*
D10*
X171250000Y-130650000D02*
X171250000Y-127650000D01*
X113950000Y-123550000D02*
X123750000Y-123550000D01*
D11*
X182550000Y-121350000D02*
X147150000Y-121350000D01*
X147150000Y-121350000D02*
X147150000Y-108550000D01*
X147150000Y-108550000D02*
X182550000Y-108550000D01*
X182550000Y-108550000D02*
X182550000Y-121350000D01*
D10*
X103349657Y-125550000D02*
X113149657Y-125550000D01*
X173750000Y-130650000D02*
X173750000Y-127650000D01*
X168750000Y-130650000D02*
X168750000Y-127650000D01*
X159750000Y-127650000D02*
X159750000Y-130650000D01*
X107849657Y-127550000D02*
X107849657Y-121550000D01*
X166250000Y-130650000D02*
X178750000Y-130650000D01*
X103349657Y-123550000D02*
X113149657Y-123550000D01*
X176250000Y-130650000D02*
X173750000Y-130650000D01*
X113149657Y-117550000D02*
X118850000Y-88750000D01*
X166250000Y-127650000D02*
X178750000Y-127650000D01*
X178750000Y-127650000D02*
X178750000Y-133650000D01*
X178750000Y-133650000D02*
X166250000Y-133650000D01*
X166250000Y-133650000D02*
X166250000Y-127650000D01*
X103349657Y-117550000D02*
X113149657Y-117550000D01*
X113149657Y-117550000D02*
X113149657Y-127550000D01*
X113149657Y-127550000D02*
X103349657Y-127550000D01*
X103349657Y-127550000D02*
X103349657Y-117550000D01*
X154750000Y-130650000D02*
X154750000Y-127650000D01*
X103349657Y-121550000D02*
X113149657Y-121550000D01*
X149750000Y-130650000D02*
X162250000Y-130650000D01*
X118450000Y-127550000D02*
X118450000Y-121550000D01*
X113950000Y-121550000D02*
X123750000Y-121550000D01*
X123750000Y-121550000D02*
X123750000Y-127550000D01*
X123750000Y-127550000D02*
X113950000Y-127550000D01*
X113950000Y-127550000D02*
X113950000Y-121550000D01*
X107849657Y-123550000D02*
X107849657Y-117550000D01*
X123750000Y-121550000D02*
X120150000Y-103750000D01*
X149750000Y-127650000D02*
X162250000Y-127650000D01*
X162250000Y-127650000D02*
X162250000Y-133650000D01*
X162250000Y-133650000D02*
X149750000Y-133650000D01*
X149750000Y-133650000D02*
X149750000Y-127650000D01*
X157250000Y-130650000D02*
X157250000Y-127650000D01*
X152250000Y-130650000D02*
X152250000Y-127650000D01*
X113950000Y-125550000D02*
X123750000Y-125550000D01*
X176250000Y-127650000D02*
X176250000Y-130650000D01*
X159750000Y-130650000D02*
X157250000Y-130650000D01*
X103349657Y-119550000D02*
X113149657Y-119550000D01*
D11*
X186065238Y-103879690D02*
X185879523Y-103941595D01*
X185570000Y-103941595D01*
X185446190Y-103879690D01*
X185384285Y-103817785D01*
X185322380Y-103693976D01*
X185322380Y-103570166D01*
X185384285Y-103446357D01*
X185446190Y-103384452D01*
X185570000Y-103322547D01*
X185817619Y-103260642D01*
X185941428Y-103198738D01*
X186003333Y-103136833D01*
X186065238Y-103013023D01*
X186065238Y-102889214D01*
X186003333Y-102765404D01*
X185941428Y-102703500D01*
X185817619Y-102641595D01*
X185508095Y-102641595D01*
X185322380Y-102703500D01*
X184579523Y-103941595D02*
X184703333Y-103879690D01*
X184765238Y-103817785D01*
X184827142Y-103693976D01*
X184827142Y-103322547D01*
X184765238Y-103198738D01*
X184703333Y-103136833D01*
X184579523Y-103074928D01*
X184393809Y-103074928D01*
X184270000Y-103136833D01*
X184208095Y-103198738D01*
X184146190Y-103322547D01*
X184146190Y-103693976D01*
X184208095Y-103817785D01*
X184270000Y-103879690D01*
X184393809Y-103941595D01*
X184579523Y-103941595D01*
X183403333Y-103941595D02*
X183527142Y-103879690D01*
X183589047Y-103755880D01*
X183589047Y-102641595D01*
X182350952Y-103941595D02*
X182350952Y-103260642D01*
X182412857Y-103136833D01*
X182536666Y-103074928D01*
X182784285Y-103074928D01*
X182908095Y-103136833D01*
X182350952Y-103879690D02*
X182474761Y-103941595D01*
X182784285Y-103941595D01*
X182908095Y-103879690D01*
X182970000Y-103755880D01*
X182970000Y-103632071D01*
X182908095Y-103508261D01*
X182784285Y-103446357D01*
X182474761Y-103446357D01*
X182350952Y-103384452D01*
X181731904Y-103941595D02*
X181731904Y-103074928D01*
X181731904Y-103322547D02*
X181670000Y-103198738D01*
X181608095Y-103136833D01*
X181484285Y-103074928D01*
X181360476Y-103074928D01*
X179998571Y-103570166D02*
X179379523Y-103570166D01*
X180122380Y-103941595D02*
X179689047Y-102641595D01*
X179255714Y-103941595D01*
X178946190Y-103074928D02*
X178265238Y-103074928D01*
X178946190Y-103941595D01*
X178265238Y-103941595D01*
X177770000Y-103941595D02*
X177770000Y-103074928D01*
X177770000Y-102641595D02*
X177831904Y-102703500D01*
X177770000Y-102765404D01*
X177708095Y-102703500D01*
X177770000Y-102641595D01*
X177770000Y-102765404D01*
X177150952Y-103941595D02*
X177150952Y-103074928D01*
X177150952Y-103198738D02*
X177089047Y-103136833D01*
X176965238Y-103074928D01*
X176779523Y-103074928D01*
X176655714Y-103136833D01*
X176593809Y-103260642D01*
X176593809Y-103941595D01*
X176593809Y-103260642D02*
X176531904Y-103136833D01*
X176408095Y-103074928D01*
X176222380Y-103074928D01*
X176098571Y-103136833D01*
X176036666Y-103260642D01*
X176036666Y-103941595D01*
X174860476Y-103074928D02*
X174860476Y-103941595D01*
X175417619Y-103074928D02*
X175417619Y-103755880D01*
X175355714Y-103879690D01*
X175231904Y-103941595D01*
X175046190Y-103941595D01*
X174922380Y-103879690D01*
X174860476Y-103817785D01*
X174427142Y-103074928D02*
X173931904Y-103074928D01*
X174241428Y-102641595D02*
X174241428Y-103755880D01*
X174179523Y-103879690D01*
X174055714Y-103941595D01*
X173931904Y-103941595D01*
X173498571Y-103941595D02*
X173498571Y-102641595D01*
X172941428Y-103941595D02*
X172941428Y-103260642D01*
X173003333Y-103136833D01*
X173127142Y-103074928D01*
X173312857Y-103074928D01*
X173436666Y-103136833D01*
X173498571Y-103198738D01*
X170774761Y-103941595D02*
X170774761Y-103260642D01*
X170836666Y-103136833D01*
X170960476Y-103074928D01*
X171208095Y-103074928D01*
X171331904Y-103136833D01*
X170774761Y-103879690D02*
X170898571Y-103941595D01*
X171208095Y-103941595D01*
X171331904Y-103879690D01*
X171393809Y-103755880D01*
X171393809Y-103632071D01*
X171331904Y-103508261D01*
X171208095Y-103446357D01*
X170898571Y-103446357D01*
X170774761Y-103384452D01*
X170155714Y-103074928D02*
X170155714Y-103941595D01*
X170155714Y-103198738D02*
X170093809Y-103136833D01*
X169970000Y-103074928D01*
X169784285Y-103074928D01*
X169660476Y-103136833D01*
X169598571Y-103260642D01*
X169598571Y-103941595D01*
X168422380Y-103941595D02*
X168422380Y-102641595D01*
X168422380Y-103879690D02*
X168546190Y-103941595D01*
X168793809Y-103941595D01*
X168917619Y-103879690D01*
X168979523Y-103817785D01*
X169041428Y-103693976D01*
X169041428Y-103322547D01*
X168979523Y-103198738D01*
X168917619Y-103136833D01*
X168793809Y-103074928D01*
X168546190Y-103074928D01*
X168422380Y-103136833D01*
X166193809Y-103941595D02*
X166812857Y-103941595D01*
X166812857Y-102641595D01*
X165574761Y-103941595D02*
X165698571Y-103879690D01*
X165760476Y-103817785D01*
X165822380Y-103693976D01*
X165822380Y-103322547D01*
X165760476Y-103198738D01*
X165698571Y-103136833D01*
X165574761Y-103074928D01*
X165389047Y-103074928D01*
X165265238Y-103136833D01*
X165203333Y-103198738D01*
X165141428Y-103322547D01*
X165141428Y-103693976D01*
X165203333Y-103817785D01*
X165265238Y-103879690D01*
X165389047Y-103941595D01*
X165574761Y-103941595D01*
X164584285Y-103074928D02*
X164584285Y-103941595D01*
X164584285Y-103198738D02*
X164522380Y-103136833D01*
X164398571Y-103074928D01*
X164212857Y-103074928D01*
X164089047Y-103136833D01*
X164027142Y-103260642D01*
X164027142Y-103941595D01*
X162850952Y-103074928D02*
X162850952Y-104127309D01*
X162912857Y-104251119D01*
X162974761Y-104313023D01*
X163098571Y-104374928D01*
X163284285Y-104374928D01*
X163408095Y-104313023D01*
X162850952Y-103879690D02*
X162974761Y-103941595D01*
X163222380Y-103941595D01*
X163346190Y-103879690D01*
X163408095Y-103817785D01*
X163470000Y-103693976D01*
X163470000Y-103322547D01*
X163408095Y-103198738D01*
X163346190Y-103136833D01*
X163222380Y-103074928D01*
X162974761Y-103074928D01*
X162850952Y-103136833D01*
X162231904Y-103941595D02*
X162231904Y-103074928D01*
X162231904Y-102641595D02*
X162293809Y-102703500D01*
X162231904Y-102765404D01*
X162170000Y-102703500D01*
X162231904Y-102641595D01*
X162231904Y-102765404D01*
X161798571Y-103074928D02*
X161303333Y-103074928D01*
X161612857Y-102641595D02*
X161612857Y-103755880D01*
X161550952Y-103879690D01*
X161427142Y-103941595D01*
X161303333Y-103941595D01*
X160312857Y-103074928D02*
X160312857Y-103941595D01*
X160870000Y-103074928D02*
X160870000Y-103755880D01*
X160808095Y-103879690D01*
X160684285Y-103941595D01*
X160498571Y-103941595D01*
X160374761Y-103879690D01*
X160312857Y-103817785D01*
X159136666Y-103941595D02*
X159136666Y-102641595D01*
X159136666Y-103879690D02*
X159260476Y-103941595D01*
X159508095Y-103941595D01*
X159631904Y-103879690D01*
X159693809Y-103817785D01*
X159755714Y-103693976D01*
X159755714Y-103322547D01*
X159693809Y-103198738D01*
X159631904Y-103136833D01*
X159508095Y-103074928D01*
X159260476Y-103074928D01*
X159136666Y-103136833D01*
X158022380Y-103879690D02*
X158146190Y-103941595D01*
X158393809Y-103941595D01*
X158517619Y-103879690D01*
X158579523Y-103755880D01*
X158579523Y-103260642D01*
X158517619Y-103136833D01*
X158393809Y-103074928D01*
X158146190Y-103074928D01*
X158022380Y-103136833D01*
X157960476Y-103260642D01*
X157960476Y-103384452D01*
X158579523Y-103508261D01*
X156412857Y-103941595D02*
X156412857Y-102641595D01*
X155979523Y-103570166D01*
X155546190Y-102641595D01*
X155546190Y-103941595D01*
X154741428Y-103941595D02*
X154865238Y-103879690D01*
X154927142Y-103817785D01*
X154989047Y-103693976D01*
X154989047Y-103322547D01*
X154927142Y-103198738D01*
X154865238Y-103136833D01*
X154741428Y-103074928D01*
X154555714Y-103074928D01*
X154431904Y-103136833D01*
X154370000Y-103198738D01*
X154308095Y-103322547D01*
X154308095Y-103693976D01*
X154370000Y-103817785D01*
X154431904Y-103879690D01*
X154555714Y-103941595D01*
X154741428Y-103941595D01*
X153936666Y-103074928D02*
X153441428Y-103074928D01*
X153750952Y-102641595D02*
X153750952Y-103755880D01*
X153689047Y-103879690D01*
X153565238Y-103941595D01*
X153441428Y-103941595D01*
X152822380Y-103941595D02*
X152946190Y-103879690D01*
X153008095Y-103817785D01*
X153070000Y-103693976D01*
X153070000Y-103322547D01*
X153008095Y-103198738D01*
X152946190Y-103136833D01*
X152822380Y-103074928D01*
X152636666Y-103074928D01*
X152512857Y-103136833D01*
X152450952Y-103198738D01*
X152389047Y-103322547D01*
X152389047Y-103693976D01*
X152450952Y-103817785D01*
X152512857Y-103879690D01*
X152636666Y-103941595D01*
X152822380Y-103941595D01*
X151831904Y-103941595D02*
X151831904Y-103074928D01*
X151831904Y-103322547D02*
X151770000Y-103198738D01*
X151708095Y-103136833D01*
X151584285Y-103074928D01*
X151460476Y-103074928D01*
X151027142Y-103941595D02*
X151027142Y-103074928D01*
X151027142Y-102641595D02*
X151089047Y-102703500D01*
X151027142Y-102765404D01*
X150965238Y-102703500D01*
X151027142Y-102641595D01*
X151027142Y-102765404D01*
X150531904Y-103074928D02*
X149850952Y-103074928D01*
X150531904Y-103941595D01*
X149850952Y-103941595D01*
X148860476Y-103879690D02*
X148984285Y-103941595D01*
X149231904Y-103941595D01*
X149355714Y-103879690D01*
X149417619Y-103755880D01*
X149417619Y-103260642D01*
X149355714Y-103136833D01*
X149231904Y-103074928D01*
X148984285Y-103074928D01*
X148860476Y-103136833D01*
X148798571Y-103260642D01*
X148798571Y-103384452D01*
X149417619Y-103508261D01*
X147684285Y-103941595D02*
X147684285Y-102641595D01*
X147684285Y-103879690D02*
X147808095Y-103941595D01*
X148055714Y-103941595D01*
X148179523Y-103879690D01*
X148241428Y-103817785D01*
X148303333Y-103693976D01*
X148303333Y-103322547D01*
X148241428Y-103198738D01*
X148179523Y-103136833D01*
X148055714Y-103074928D01*
X147808095Y-103074928D01*
X147684285Y-103136833D01*
X145889047Y-103941595D02*
X146012857Y-103879690D01*
X146074761Y-103755880D01*
X146074761Y-102641595D01*
X145146190Y-102641595D02*
X144898571Y-102641595D01*
X144774761Y-102703500D01*
X144650952Y-102827309D01*
X144589047Y-103074928D01*
X144589047Y-103508261D01*
X144650952Y-103755880D01*
X144774761Y-103879690D01*
X144898571Y-103941595D01*
X145146190Y-103941595D01*
X145270000Y-103879690D01*
X145393809Y-103755880D01*
X145455714Y-103508261D01*
X145455714Y-103074928D01*
X145393809Y-102827309D01*
X145270000Y-102703500D01*
X145146190Y-102641595D01*
X143474761Y-103879690D02*
X143598571Y-103941595D01*
X143846190Y-103941595D01*
X143970000Y-103879690D01*
X144031904Y-103817785D01*
X144093809Y-103693976D01*
X144093809Y-103322547D01*
X144031904Y-103198738D01*
X143970000Y-103136833D01*
X143846190Y-103074928D01*
X143598571Y-103074928D01*
X143474761Y-103136833D01*
X142360476Y-103941595D02*
X142360476Y-103260642D01*
X142422380Y-103136833D01*
X142546190Y-103074928D01*
X142793809Y-103074928D01*
X142917619Y-103136833D01*
X142360476Y-103879690D02*
X142484285Y-103941595D01*
X142793809Y-103941595D01*
X142917619Y-103879690D01*
X142979523Y-103755880D01*
X142979523Y-103632071D01*
X142917619Y-103508261D01*
X142793809Y-103446357D01*
X142484285Y-103446357D01*
X142360476Y-103384452D01*
X141927142Y-103074928D02*
X141431904Y-103074928D01*
X141741428Y-102641595D02*
X141741428Y-103755880D01*
X141679523Y-103879690D01*
X141555714Y-103941595D01*
X141431904Y-103941595D01*
X140812857Y-103941595D02*
X140936666Y-103879690D01*
X140998571Y-103817785D01*
X141060476Y-103693976D01*
X141060476Y-103322547D01*
X140998571Y-103198738D01*
X140936666Y-103136833D01*
X140812857Y-103074928D01*
X140627142Y-103074928D01*
X140503333Y-103136833D01*
X140441428Y-103198738D01*
X140379523Y-103322547D01*
X140379523Y-103693976D01*
X140441428Y-103817785D01*
X140503333Y-103879690D01*
X140627142Y-103941595D01*
X140812857Y-103941595D01*
X139822380Y-103941595D02*
X139822380Y-103074928D01*
X139822380Y-103322547D02*
X139760476Y-103198738D01*
X139698571Y-103136833D01*
X139574761Y-103074928D01*
X139450952Y-103074928D01*
X171146190Y-106034595D02*
X171146190Y-104734595D01*
X170650952Y-104734595D01*
X170527142Y-104796500D01*
X170465238Y-104858404D01*
X170403333Y-104982214D01*
X170403333Y-105167928D01*
X170465238Y-105291738D01*
X170527142Y-105353642D01*
X170650952Y-105415547D01*
X171146190Y-105415547D01*
X169846190Y-106034595D02*
X169846190Y-104734595D01*
X169350952Y-104734595D01*
X169227142Y-104796500D01*
X169165238Y-104858404D01*
X169103333Y-104982214D01*
X169103333Y-105167928D01*
X169165238Y-105291738D01*
X169227142Y-105353642D01*
X169350952Y-105415547D01*
X169846190Y-105415547D01*
X168608095Y-105972690D02*
X168422380Y-106034595D01*
X168112857Y-106034595D01*
X167989047Y-105972690D01*
X167927142Y-105910785D01*
X167865238Y-105786976D01*
X167865238Y-105663166D01*
X167927142Y-105539357D01*
X167989047Y-105477452D01*
X168112857Y-105415547D01*
X168360476Y-105353642D01*
X168484285Y-105291738D01*
X168546190Y-105229833D01*
X168608095Y-105106023D01*
X168608095Y-104982214D01*
X168546190Y-104858404D01*
X168484285Y-104796500D01*
X168360476Y-104734595D01*
X168050952Y-104734595D01*
X167865238Y-104796500D01*
X167308095Y-105353642D02*
X166874761Y-105353642D01*
X166689047Y-106034595D02*
X167308095Y-106034595D01*
X167308095Y-104734595D01*
X166689047Y-104734595D01*
X165203333Y-104858404D02*
X165141428Y-104796500D01*
X165017619Y-104734595D01*
X164708095Y-104734595D01*
X164584285Y-104796500D01*
X164522380Y-104858404D01*
X164460476Y-104982214D01*
X164460476Y-105106023D01*
X164522380Y-105291738D01*
X165265238Y-106034595D01*
X164460476Y-106034595D01*
X163655714Y-104734595D02*
X163531904Y-104734595D01*
X163408095Y-104796500D01*
X163346190Y-104858404D01*
X163284285Y-104982214D01*
X163222380Y-105229833D01*
X163222380Y-105539357D01*
X163284285Y-105786976D01*
X163346190Y-105910785D01*
X163408095Y-105972690D01*
X163531904Y-106034595D01*
X163655714Y-106034595D01*
X163779523Y-105972690D01*
X163841428Y-105910785D01*
X163903333Y-105786976D01*
X163965238Y-105539357D01*
X163965238Y-105229833D01*
X163903333Y-104982214D01*
X163841428Y-104858404D01*
X163779523Y-104796500D01*
X163655714Y-104734595D01*
X162727142Y-104858404D02*
X162665238Y-104796500D01*
X162541428Y-104734595D01*
X162231904Y-104734595D01*
X162108095Y-104796500D01*
X162046190Y-104858404D01*
X161984285Y-104982214D01*
X161984285Y-105106023D01*
X162046190Y-105291738D01*
X162789047Y-106034595D01*
X161984285Y-106034595D01*
X160746190Y-106034595D02*
X161489047Y-106034595D01*
X161117619Y-106034595D02*
X161117619Y-104734595D01*
X161241428Y-104920309D01*
X161365238Y-105044119D01*
X161489047Y-105106023D01*
X159260476Y-104672690D02*
X160374761Y-106344119D01*
X158889047Y-104858404D02*
X158827142Y-104796500D01*
X158703333Y-104734595D01*
X158393809Y-104734595D01*
X158270000Y-104796500D01*
X158208095Y-104858404D01*
X158146190Y-104982214D01*
X158146190Y-105106023D01*
X158208095Y-105291738D01*
X158950952Y-106034595D01*
X158146190Y-106034595D01*
X157341428Y-104734595D02*
X157217619Y-104734595D01*
X157093809Y-104796500D01*
X157031904Y-104858404D01*
X156970000Y-104982214D01*
X156908095Y-105229833D01*
X156908095Y-105539357D01*
X156970000Y-105786976D01*
X157031904Y-105910785D01*
X157093809Y-105972690D01*
X157217619Y-106034595D01*
X157341428Y-106034595D01*
X157465238Y-105972690D01*
X157527142Y-105910785D01*
X157589047Y-105786976D01*
X157650952Y-105539357D01*
X157650952Y-105229833D01*
X157589047Y-104982214D01*
X157527142Y-104858404D01*
X157465238Y-104796500D01*
X157341428Y-104734595D01*
X156412857Y-104858404D02*
X156350952Y-104796500D01*
X156227142Y-104734595D01*
X155917619Y-104734595D01*
X155793809Y-104796500D01*
X155731904Y-104858404D01*
X155670000Y-104982214D01*
X155670000Y-105106023D01*
X155731904Y-105291738D01*
X156474761Y-106034595D01*
X155670000Y-106034595D01*
X155174761Y-104858404D02*
X155112857Y-104796500D01*
X154989047Y-104734595D01*
X154679523Y-104734595D01*
X154555714Y-104796500D01*
X154493809Y-104858404D01*
X154431904Y-104982214D01*
X154431904Y-105106023D01*
X154493809Y-105291738D01*
X155236666Y-106034595D01*
X154431904Y-106034595D01*
D12*
X106118585Y-121004761D02*
X105975728Y-121052380D01*
X105737633Y-121052380D01*
X105642395Y-121004761D01*
X105594776Y-120957142D01*
X105547157Y-120861904D01*
X105547157Y-120766666D01*
X105594776Y-120671428D01*
X105642395Y-120623809D01*
X105737633Y-120576190D01*
X105928109Y-120528571D01*
X106023347Y-120480952D01*
X106070966Y-120433333D01*
X106118585Y-120338095D01*
X106118585Y-120242857D01*
X106070966Y-120147619D01*
X106023347Y-120100000D01*
X105928109Y-120052380D01*
X105690014Y-120052380D01*
X105547157Y-120100000D01*
X104547157Y-120957142D02*
X104594776Y-121004761D01*
X104737633Y-121052380D01*
X104832871Y-121052380D01*
X104975728Y-121004761D01*
X105070966Y-120909523D01*
X105118585Y-120814285D01*
X105166204Y-120623809D01*
X105166204Y-120480952D01*
X105118585Y-120290476D01*
X105070966Y-120195238D01*
X104975728Y-120100000D01*
X104832871Y-120052380D01*
X104737633Y-120052380D01*
X104594776Y-120100000D01*
X104547157Y-120147619D01*
X103642395Y-121052380D02*
X104118585Y-121052380D01*
X104118585Y-120052380D01*
X165497619Y-92957261D02*
X164497619Y-92623928D01*
X165497619Y-92290595D01*
X164592857Y-91385833D02*
X164545238Y-91433452D01*
X164497619Y-91576309D01*
X164497619Y-91671547D01*
X164545238Y-91814404D01*
X164640476Y-91909642D01*
X164735714Y-91957261D01*
X164926190Y-92004880D01*
X165069047Y-92004880D01*
X165259523Y-91957261D01*
X165354761Y-91909642D01*
X165450000Y-91814404D01*
X165497619Y-91671547D01*
X165497619Y-91576309D01*
X165450000Y-91433452D01*
X165402380Y-91385833D01*
X164592857Y-90385833D02*
X164545238Y-90433452D01*
X164497619Y-90576309D01*
X164497619Y-90671547D01*
X164545238Y-90814404D01*
X164640476Y-90909642D01*
X164735714Y-90957261D01*
X164926190Y-91004880D01*
X165069047Y-91004880D01*
X165259523Y-90957261D01*
X165354761Y-90909642D01*
X165450000Y-90814404D01*
X165497619Y-90671547D01*
X165497619Y-90576309D01*
X165450000Y-90433452D01*
X165402380Y-90385833D01*
X172764285Y-92814404D02*
X172097619Y-92814404D01*
X172669047Y-92814404D02*
X172716666Y-92766785D01*
X172764285Y-92671547D01*
X172764285Y-92528690D01*
X172716666Y-92433452D01*
X172621428Y-92385833D01*
X172097619Y-92385833D01*
X172145238Y-91481071D02*
X172097619Y-91576309D01*
X172097619Y-91766785D01*
X172145238Y-91862023D01*
X172192857Y-91909642D01*
X172288095Y-91957261D01*
X172573809Y-91957261D01*
X172669047Y-91909642D01*
X172716666Y-91862023D01*
X172764285Y-91766785D01*
X172764285Y-91576309D01*
X172716666Y-91481071D01*
X156333333Y-128602380D02*
X155714285Y-128602380D01*
X156047619Y-128983333D01*
X155904761Y-128983333D01*
X155809523Y-129030952D01*
X155761904Y-129078571D01*
X155714285Y-129173809D01*
X155714285Y-129411904D01*
X155761904Y-129507142D01*
X155809523Y-129554761D01*
X155904761Y-129602380D01*
X156190476Y-129602380D01*
X156285714Y-129554761D01*
X156333333Y-129507142D01*
X136050000Y-93033214D02*
X136097619Y-93128452D01*
X136097619Y-93271309D01*
X136050000Y-93414166D01*
X135954761Y-93509404D01*
X135859523Y-93557023D01*
X135669047Y-93604642D01*
X135526190Y-93604642D01*
X135335714Y-93557023D01*
X135240476Y-93509404D01*
X135145238Y-93414166D01*
X135097619Y-93271309D01*
X135097619Y-93176071D01*
X135145238Y-93033214D01*
X135192857Y-92985595D01*
X135526190Y-92985595D01*
X135526190Y-93176071D01*
X135097619Y-92557023D02*
X136097619Y-92557023D01*
X135097619Y-91985595D01*
X136097619Y-91985595D01*
X135097619Y-91509404D02*
X136097619Y-91509404D01*
X136097619Y-91271309D01*
X136050000Y-91128452D01*
X135954761Y-91033214D01*
X135859523Y-90985595D01*
X135669047Y-90937976D01*
X135526190Y-90937976D01*
X135335714Y-90985595D01*
X135240476Y-91033214D01*
X135145238Y-91128452D01*
X135097619Y-91271309D01*
X135097619Y-91509404D01*
X160714285Y-129602380D02*
X161285714Y-129602380D01*
X161000000Y-129602380D02*
X161000000Y-128602380D01*
X161095238Y-128745238D01*
X161190476Y-128840476D01*
X161285714Y-128888095D01*
X112290252Y-118100000D02*
X112385490Y-118052380D01*
X112528347Y-118052380D01*
X112671204Y-118100000D01*
X112766442Y-118195238D01*
X112814061Y-118290476D01*
X112861680Y-118480952D01*
X112861680Y-118623809D01*
X112814061Y-118814285D01*
X112766442Y-118909523D01*
X112671204Y-119004761D01*
X112528347Y-119052380D01*
X112433109Y-119052380D01*
X112290252Y-119004761D01*
X112242633Y-118957142D01*
X112242633Y-118623809D01*
X112433109Y-118623809D01*
X111814061Y-119052380D02*
X111814061Y-118052380D01*
X111242633Y-119052380D01*
X111242633Y-118052380D01*
X110766442Y-119052380D02*
X110766442Y-118052380D01*
X110528347Y-118052380D01*
X110385490Y-118100000D01*
X110290252Y-118195238D01*
X110242633Y-118290476D01*
X110195014Y-118480952D01*
X110195014Y-118623809D01*
X110242633Y-118814285D01*
X110290252Y-118909523D01*
X110385490Y-119004761D01*
X110528347Y-119052380D01*
X110766442Y-119052380D01*
X142745238Y-93366547D02*
X142697619Y-93223690D01*
X142697619Y-92985595D01*
X142745238Y-92890357D01*
X142792857Y-92842738D01*
X142888095Y-92795119D01*
X142983333Y-92795119D01*
X143078571Y-92842738D01*
X143126190Y-92890357D01*
X143173809Y-92985595D01*
X143221428Y-93176071D01*
X143269047Y-93271309D01*
X143316666Y-93318928D01*
X143411904Y-93366547D01*
X143507142Y-93366547D01*
X143602380Y-93318928D01*
X143650000Y-93271309D01*
X143697619Y-93176071D01*
X143697619Y-92937976D01*
X143650000Y-92795119D01*
X142697619Y-92366547D02*
X143697619Y-92366547D01*
X143697619Y-92128452D01*
X143650000Y-91985595D01*
X143554761Y-91890357D01*
X143459523Y-91842738D01*
X143269047Y-91795119D01*
X143126190Y-91795119D01*
X142935714Y-91842738D01*
X142840476Y-91890357D01*
X142745238Y-91985595D01*
X142697619Y-92128452D01*
X142697619Y-92366547D01*
X142983333Y-91414166D02*
X142983333Y-90937976D01*
X142697619Y-91509404D02*
X143697619Y-91176071D01*
X142697619Y-90842738D01*
X91890595Y-96700000D02*
X91985833Y-96652380D01*
X92128690Y-96652380D01*
X92271547Y-96700000D01*
X92366785Y-96795238D01*
X92414404Y-96890476D01*
X92462023Y-97080952D01*
X92462023Y-97223809D01*
X92414404Y-97414285D01*
X92366785Y-97509523D01*
X92271547Y-97604761D01*
X92128690Y-97652380D01*
X92033452Y-97652380D01*
X91890595Y-97604761D01*
X91842976Y-97557142D01*
X91842976Y-97223809D01*
X92033452Y-97223809D01*
X91414404Y-97652380D02*
X91414404Y-96652380D01*
X90842976Y-97652380D01*
X90842976Y-96652380D01*
X90366785Y-97652380D02*
X90366785Y-96652380D01*
X90128690Y-96652380D01*
X89985833Y-96700000D01*
X89890595Y-96795238D01*
X89842976Y-96890476D01*
X89795357Y-97080952D01*
X89795357Y-97223809D01*
X89842976Y-97414285D01*
X89890595Y-97509523D01*
X89985833Y-97604761D01*
X90128690Y-97652380D01*
X90366785Y-97652380D01*
X151333333Y-128602380D02*
X151000000Y-129602380D01*
X150666666Y-128602380D01*
X92414404Y-90152380D02*
X92414404Y-89152380D01*
X92176309Y-89152380D01*
X92033452Y-89200000D01*
X91938214Y-89295238D01*
X91890595Y-89390476D01*
X91842976Y-89580952D01*
X91842976Y-89723809D01*
X91890595Y-89914285D01*
X91938214Y-90009523D01*
X92033452Y-90104761D01*
X92176309Y-90152380D01*
X92414404Y-90152380D01*
X90842976Y-90152380D02*
X91176309Y-89676190D01*
X91414404Y-90152380D02*
X91414404Y-89152380D01*
X91033452Y-89152380D01*
X90938214Y-89200000D01*
X90890595Y-89247619D01*
X90842976Y-89342857D01*
X90842976Y-89485714D01*
X90890595Y-89580952D01*
X90938214Y-89628571D01*
X91033452Y-89676190D01*
X91414404Y-89676190D01*
X90414404Y-90152380D02*
X90414404Y-89152380D01*
X90176309Y-89152380D01*
X90033452Y-89200000D01*
X89938214Y-89295238D01*
X89890595Y-89390476D01*
X89842976Y-89580952D01*
X89842976Y-89723809D01*
X89890595Y-89914285D01*
X89938214Y-90009523D01*
X90033452Y-90104761D01*
X90176309Y-90152380D01*
X90414404Y-90152380D01*
X89223928Y-89676190D02*
X89223928Y-90152380D01*
X89557261Y-89152380D02*
X89223928Y-89676190D01*
X88890595Y-89152380D01*
X106166204Y-118052380D02*
X105547157Y-118052380D01*
X105880490Y-118433333D01*
X105737633Y-118433333D01*
X105642395Y-118480952D01*
X105594776Y-118528571D01*
X105547157Y-118623809D01*
X105547157Y-118861904D01*
X105594776Y-118957142D01*
X105642395Y-119004761D01*
X105737633Y-119052380D01*
X106023347Y-119052380D01*
X106118585Y-119004761D01*
X106166204Y-118957142D01*
X105261442Y-118052380D02*
X104928109Y-119052380D01*
X104594776Y-118052380D01*
X104356680Y-118052380D02*
X103737633Y-118052380D01*
X104070966Y-118433333D01*
X103928109Y-118433333D01*
X103832871Y-118480952D01*
X103785252Y-118528571D01*
X103737633Y-118623809D01*
X103737633Y-118861904D01*
X103785252Y-118957142D01*
X103832871Y-119004761D01*
X103928109Y-119052380D01*
X104213823Y-119052380D01*
X104309061Y-119004761D01*
X104356680Y-118957142D01*
X122890595Y-122100000D02*
X122985833Y-122052380D01*
X123128690Y-122052380D01*
X123271547Y-122100000D01*
X123366785Y-122195238D01*
X123414404Y-122290476D01*
X123462023Y-122480952D01*
X123462023Y-122623809D01*
X123414404Y-122814285D01*
X123366785Y-122909523D01*
X123271547Y-123004761D01*
X123128690Y-123052380D01*
X123033452Y-123052380D01*
X122890595Y-123004761D01*
X122842976Y-122957142D01*
X122842976Y-122623809D01*
X123033452Y-122623809D01*
X122414404Y-123052380D02*
X122414404Y-122052380D01*
X121842976Y-123052380D01*
X121842976Y-122052380D01*
X121366785Y-123052380D02*
X121366785Y-122052380D01*
X121128690Y-122052380D01*
X120985833Y-122100000D01*
X120890595Y-122195238D01*
X120842976Y-122290476D01*
X120795357Y-122480952D01*
X120795357Y-122623809D01*
X120842976Y-122814285D01*
X120890595Y-122909523D01*
X120985833Y-123004761D01*
X121128690Y-123052380D01*
X121366785Y-123052380D01*
X123462023Y-127004761D02*
X123319166Y-127052380D01*
X123081071Y-127052380D01*
X122985833Y-127004761D01*
X122938214Y-126957142D01*
X122890595Y-126861904D01*
X122890595Y-126766666D01*
X122938214Y-126671428D01*
X122985833Y-126623809D01*
X123081071Y-126576190D01*
X123271547Y-126528571D01*
X123366785Y-126480952D01*
X123414404Y-126433333D01*
X123462023Y-126338095D01*
X123462023Y-126242857D01*
X123414404Y-126147619D01*
X123366785Y-126100000D01*
X123271547Y-126052380D01*
X123033452Y-126052380D01*
X122890595Y-126100000D01*
X122557261Y-126052380D02*
X122319166Y-127052380D01*
X122128690Y-126338095D01*
X121938214Y-127052380D01*
X121700119Y-126052380D01*
X120747738Y-126957142D02*
X120795357Y-127004761D01*
X120938214Y-127052380D01*
X121033452Y-127052380D01*
X121176309Y-127004761D01*
X121271547Y-126909523D01*
X121319166Y-126814285D01*
X121366785Y-126623809D01*
X121366785Y-126480952D01*
X121319166Y-126290476D01*
X121271547Y-126195238D01*
X121176309Y-126100000D01*
X121033452Y-126052380D01*
X120938214Y-126052380D01*
X120795357Y-126100000D01*
X120747738Y-126147619D01*
X119842976Y-127052380D02*
X120319166Y-127052380D01*
X120319166Y-126052380D01*
X119509642Y-127052380D02*
X119509642Y-126052380D01*
X118938214Y-127052380D02*
X119366785Y-126480952D01*
X118938214Y-126052380D02*
X119509642Y-126623809D01*
X114583333Y-80162023D02*
X114583333Y-79685833D01*
X114297619Y-80257261D02*
X115297619Y-79923928D01*
X114297619Y-79590595D01*
X114392857Y-78685833D02*
X114345238Y-78733452D01*
X114297619Y-78876309D01*
X114297619Y-78971547D01*
X114345238Y-79114404D01*
X114440476Y-79209642D01*
X114535714Y-79257261D01*
X114726190Y-79304880D01*
X114869047Y-79304880D01*
X115059523Y-79257261D01*
X115154761Y-79209642D01*
X115250000Y-79114404D01*
X115297619Y-78971547D01*
X115297619Y-78876309D01*
X115250000Y-78733452D01*
X115202380Y-78685833D01*
X114392857Y-77685833D02*
X114345238Y-77733452D01*
X114297619Y-77876309D01*
X114297619Y-77971547D01*
X114345238Y-78114404D01*
X114440476Y-78209642D01*
X114535714Y-78257261D01*
X114726190Y-78304880D01*
X114869047Y-78304880D01*
X115059523Y-78257261D01*
X115154761Y-78209642D01*
X115250000Y-78114404D01*
X115297619Y-77971547D01*
X115297619Y-77876309D01*
X115250000Y-77733452D01*
X115202380Y-77685833D01*
X182750000Y-97438095D02*
X182702380Y-97342857D01*
X182702380Y-97200000D01*
X182750000Y-97057142D01*
X182845238Y-96961904D01*
X182940476Y-96914285D01*
X183130952Y-96866666D01*
X183273809Y-96866666D01*
X183464285Y-96914285D01*
X183559523Y-96961904D01*
X183654761Y-97057142D01*
X183702380Y-97200000D01*
X183702380Y-97295238D01*
X183654761Y-97438095D01*
X183607142Y-97485714D01*
X183273809Y-97485714D01*
X183273809Y-97295238D01*
X183702380Y-97914285D02*
X182702380Y-97914285D01*
X183702380Y-98485714D01*
X182702380Y-98485714D01*
X183702380Y-98961904D02*
X182702380Y-98961904D01*
X182702380Y-99200000D01*
X182750000Y-99342857D01*
X182845238Y-99438095D01*
X182940476Y-99485714D01*
X183130952Y-99533333D01*
X183273809Y-99533333D01*
X183464285Y-99485714D01*
X183559523Y-99438095D01*
X183654761Y-99342857D01*
X183702380Y-99200000D01*
X183702380Y-98961904D01*
X137902019Y-85237976D02*
X138902019Y-85237976D01*
X138902019Y-84857023D01*
X138854400Y-84761785D01*
X138806780Y-84714166D01*
X138711542Y-84666547D01*
X138568685Y-84666547D01*
X138473447Y-84714166D01*
X138425828Y-84761785D01*
X138378209Y-84857023D01*
X138378209Y-85237976D01*
X137902019Y-83809404D02*
X138425828Y-83809404D01*
X138521066Y-83857023D01*
X138568685Y-83952261D01*
X138568685Y-84142738D01*
X138521066Y-84237976D01*
X137949638Y-83809404D02*
X137902019Y-83904642D01*
X137902019Y-84142738D01*
X137949638Y-84237976D01*
X138044876Y-84285595D01*
X138140114Y-84285595D01*
X138235352Y-84237976D01*
X138282971Y-84142738D01*
X138282971Y-83904642D01*
X138330590Y-83809404D01*
X138568685Y-83333214D02*
X137902019Y-83333214D01*
X138473447Y-83333214D02*
X138521066Y-83285595D01*
X138568685Y-83190357D01*
X138568685Y-83047500D01*
X138521066Y-82952261D01*
X138425828Y-82904642D01*
X137902019Y-82904642D01*
X137949638Y-82047500D02*
X137902019Y-82142738D01*
X137902019Y-82333214D01*
X137949638Y-82428452D01*
X138044876Y-82476071D01*
X138425828Y-82476071D01*
X138521066Y-82428452D01*
X138568685Y-82333214D01*
X138568685Y-82142738D01*
X138521066Y-82047500D01*
X138425828Y-81999880D01*
X138330590Y-81999880D01*
X138235352Y-82476071D01*
X137902019Y-81428452D02*
X137949638Y-81523690D01*
X138044876Y-81571309D01*
X138902019Y-81571309D01*
X138282971Y-81047500D02*
X138282971Y-80285595D01*
X137902019Y-80666547D02*
X138663923Y-80666547D01*
X175285714Y-128697619D02*
X175238095Y-128650000D01*
X175142857Y-128602380D01*
X174904761Y-128602380D01*
X174809523Y-128650000D01*
X174761904Y-128697619D01*
X174714285Y-128792857D01*
X174714285Y-128888095D01*
X174761904Y-129030952D01*
X175333333Y-129602380D01*
X174714285Y-129602380D01*
X105785252Y-125202380D02*
X105785252Y-124202380D01*
X105118585Y-124202380D02*
X104928109Y-124202380D01*
X104832871Y-124250000D01*
X104737633Y-124345238D01*
X104690014Y-124535714D01*
X104690014Y-124869047D01*
X104737633Y-125059523D01*
X104832871Y-125154761D01*
X104928109Y-125202380D01*
X105118585Y-125202380D01*
X105213823Y-125154761D01*
X105309061Y-125059523D01*
X105356680Y-124869047D01*
X105356680Y-124535714D01*
X105309061Y-124345238D01*
X105213823Y-124250000D01*
X105118585Y-124202380D01*
X104309061Y-124297619D02*
X104261442Y-124250000D01*
X104166204Y-124202380D01*
X103928109Y-124202380D01*
X103832871Y-124250000D01*
X103785252Y-124297619D01*
X103737633Y-124392857D01*
X103737633Y-124488095D01*
X103785252Y-124630952D01*
X104356680Y-125202380D01*
X103737633Y-125202380D01*
X172833333Y-128602380D02*
X172214285Y-128602380D01*
X172547619Y-128983333D01*
X172404761Y-128983333D01*
X172309523Y-129030952D01*
X172261904Y-129078571D01*
X172214285Y-129173809D01*
X172214285Y-129411904D01*
X172261904Y-129507142D01*
X172309523Y-129554761D01*
X172404761Y-129602380D01*
X172690476Y-129602380D01*
X172785714Y-129554761D01*
X172833333Y-129507142D01*
X153309523Y-128935714D02*
X153309523Y-129602380D01*
X153547619Y-128554761D02*
X153785714Y-129269047D01*
X153166666Y-129269047D01*
D13*
X169487857Y-110678571D02*
X169487857Y-109178571D01*
X168630714Y-110678571D01*
X168630714Y-109178571D01*
X167702142Y-110678571D02*
X167845000Y-110607142D01*
X167916428Y-110535714D01*
X167987857Y-110392857D01*
X167987857Y-109964285D01*
X167916428Y-109821428D01*
X167845000Y-109750000D01*
X167702142Y-109678571D01*
X167487857Y-109678571D01*
X167345000Y-109750000D01*
X167273571Y-109821428D01*
X167202142Y-109964285D01*
X167202142Y-110392857D01*
X167273571Y-110535714D01*
X167345000Y-110607142D01*
X167487857Y-110678571D01*
X167702142Y-110678571D01*
X166559285Y-109678571D02*
X166559285Y-110678571D01*
X166559285Y-109821428D02*
X166487857Y-109750000D01*
X166345000Y-109678571D01*
X166130714Y-109678571D01*
X165987857Y-109750000D01*
X165916428Y-109892857D01*
X165916428Y-110678571D01*
X165202142Y-110678571D02*
X165202142Y-109678571D01*
X165202142Y-109178571D02*
X165273571Y-109250000D01*
X165202142Y-109321428D01*
X165130714Y-109250000D01*
X165202142Y-109178571D01*
X165202142Y-109321428D01*
X164559285Y-110607142D02*
X164416428Y-110678571D01*
X164130714Y-110678571D01*
X163987857Y-110607142D01*
X163916428Y-110464285D01*
X163916428Y-110392857D01*
X163987857Y-110250000D01*
X164130714Y-110178571D01*
X164345000Y-110178571D01*
X164487857Y-110107142D01*
X164559285Y-109964285D01*
X164559285Y-109892857D01*
X164487857Y-109750000D01*
X164345000Y-109678571D01*
X164130714Y-109678571D01*
X163987857Y-109750000D01*
X169559285Y-113022142D02*
X169345000Y-113093571D01*
X168987857Y-113093571D01*
X168845000Y-113022142D01*
X168773571Y-112950714D01*
X168702142Y-112807857D01*
X168702142Y-112665000D01*
X168773571Y-112522142D01*
X168845000Y-112450714D01*
X168987857Y-112379285D01*
X169273571Y-112307857D01*
X169416428Y-112236428D01*
X169487857Y-112165000D01*
X169559285Y-112022142D01*
X169559285Y-111879285D01*
X169487857Y-111736428D01*
X169416428Y-111665000D01*
X169273571Y-111593571D01*
X168916428Y-111593571D01*
X168702142Y-111665000D01*
X167416428Y-113093571D02*
X167416428Y-112307857D01*
X167487857Y-112165000D01*
X167630714Y-112093571D01*
X167916428Y-112093571D01*
X168059285Y-112165000D01*
X167416428Y-113022142D02*
X167559285Y-113093571D01*
X167916428Y-113093571D01*
X168059285Y-113022142D01*
X168130714Y-112879285D01*
X168130714Y-112736428D01*
X168059285Y-112593571D01*
X167916428Y-112522142D01*
X167559285Y-112522142D01*
X167416428Y-112450714D01*
X166702142Y-112093571D02*
X166702142Y-113093571D01*
X166702142Y-112236428D02*
X166630714Y-112165000D01*
X166487857Y-112093571D01*
X166273571Y-112093571D01*
X166130714Y-112165000D01*
X166059285Y-112307857D01*
X166059285Y-113093571D01*
X165559285Y-112093571D02*
X164987857Y-112093571D01*
X165345000Y-111593571D02*
X165345000Y-112879285D01*
X165273571Y-113022142D01*
X165130714Y-113093571D01*
X164987857Y-113093571D01*
X163845000Y-113093571D02*
X163845000Y-112307857D01*
X163916428Y-112165000D01*
X164059285Y-112093571D01*
X164345000Y-112093571D01*
X164487857Y-112165000D01*
X163845000Y-113022142D02*
X163987857Y-113093571D01*
X164345000Y-113093571D01*
X164487857Y-113022142D01*
X164559285Y-112879285D01*
X164559285Y-112736428D01*
X164487857Y-112593571D01*
X164345000Y-112522142D01*
X163987857Y-112522142D01*
X163845000Y-112450714D01*
X163130714Y-113093571D02*
X163130714Y-112093571D01*
X163130714Y-112379285D02*
X163059285Y-112236428D01*
X162987857Y-112165000D01*
X162845000Y-112093571D01*
X162702142Y-112093571D01*
X161987857Y-113093571D02*
X162130714Y-113022142D01*
X162202142Y-112950714D01*
X162273571Y-112807857D01*
X162273571Y-112379285D01*
X162202142Y-112236428D01*
X162130714Y-112165000D01*
X161987857Y-112093571D01*
X161773571Y-112093571D01*
X161630714Y-112165000D01*
X161559285Y-112236428D01*
X161487857Y-112379285D01*
X161487857Y-112807857D01*
X161559285Y-112950714D01*
X161630714Y-113022142D01*
X161773571Y-113093571D01*
X161987857Y-113093571D01*
X160916428Y-113022142D02*
X160773571Y-113093571D01*
X160487857Y-113093571D01*
X160345000Y-113022142D01*
X160273571Y-112879285D01*
X160273571Y-112807857D01*
X160345000Y-112665000D01*
X160487857Y-112593571D01*
X160702142Y-112593571D01*
X160845000Y-112522142D01*
X160916428Y-112379285D01*
X160916428Y-112307857D01*
X160845000Y-112165000D01*
X160702142Y-112093571D01*
X160487857Y-112093571D01*
X160345000Y-112165000D01*
X159702142Y-113022142D02*
X159559285Y-113093571D01*
X159273571Y-113093571D01*
X159130714Y-113022142D01*
X159059285Y-112879285D01*
X159059285Y-112807857D01*
X159130714Y-112665000D01*
X159273571Y-112593571D01*
X159487857Y-112593571D01*
X159630714Y-112522142D01*
X159702142Y-112379285D01*
X159702142Y-112307857D01*
X159630714Y-112165000D01*
X159487857Y-112093571D01*
X159273571Y-112093571D01*
X159130714Y-112165000D01*
X157773571Y-113093571D02*
X157773571Y-112307857D01*
X157845000Y-112165000D01*
X157987857Y-112093571D01*
X158273571Y-112093571D01*
X158416428Y-112165000D01*
X157773571Y-113022142D02*
X157916428Y-113093571D01*
X158273571Y-113093571D01*
X158416428Y-113022142D01*
X158487857Y-112879285D01*
X158487857Y-112736428D01*
X158416428Y-112593571D01*
X158273571Y-112522142D01*
X157916428Y-112522142D01*
X157773571Y-112450714D01*
X168630714Y-115365714D02*
X168702142Y-115437142D01*
X168916428Y-115508571D01*
X169059285Y-115508571D01*
X169273571Y-115437142D01*
X169416428Y-115294285D01*
X169487857Y-115151428D01*
X169559285Y-114865714D01*
X169559285Y-114651428D01*
X169487857Y-114365714D01*
X169416428Y-114222857D01*
X169273571Y-114080000D01*
X169059285Y-114008571D01*
X168916428Y-114008571D01*
X168702142Y-114080000D01*
X168630714Y-114151428D01*
X167345000Y-115508571D02*
X167345000Y-114722857D01*
X167416428Y-114580000D01*
X167559285Y-114508571D01*
X167845000Y-114508571D01*
X167987857Y-114580000D01*
X167345000Y-115437142D02*
X167487857Y-115508571D01*
X167845000Y-115508571D01*
X167987857Y-115437142D01*
X168059285Y-115294285D01*
X168059285Y-115151428D01*
X167987857Y-115008571D01*
X167845000Y-114937142D01*
X167487857Y-114937142D01*
X167345000Y-114865714D01*
X166630714Y-114508571D02*
X166630714Y-115508571D01*
X166630714Y-114651428D02*
X166559285Y-114580000D01*
X166416428Y-114508571D01*
X166202142Y-114508571D01*
X166059285Y-114580000D01*
X165987857Y-114722857D01*
X165987857Y-115508571D01*
X165059285Y-115508571D02*
X165202142Y-115437142D01*
X165273571Y-115365714D01*
X165345000Y-115222857D01*
X165345000Y-114794285D01*
X165273571Y-114651428D01*
X165202142Y-114580000D01*
X165059285Y-114508571D01*
X164845000Y-114508571D01*
X164702142Y-114580000D01*
X164630714Y-114651428D01*
X164559285Y-114794285D01*
X164559285Y-115222857D01*
X164630714Y-115365714D01*
X164702142Y-115437142D01*
X164845000Y-115508571D01*
X165059285Y-115508571D01*
X164059285Y-114508571D02*
X163702142Y-115508571D01*
X163345000Y-114508571D01*
X162130714Y-115508571D02*
X162130714Y-114722857D01*
X162202142Y-114580000D01*
X162345000Y-114508571D01*
X162630714Y-114508571D01*
X162773571Y-114580000D01*
X162130714Y-115437142D02*
X162273571Y-115508571D01*
X162630714Y-115508571D01*
X162773571Y-115437142D01*
X162845000Y-115294285D01*
X162845000Y-115151428D01*
X162773571Y-115008571D01*
X162630714Y-114937142D01*
X162273571Y-114937142D01*
X162130714Y-114865714D01*
X169702142Y-116423571D02*
X168845000Y-116423571D01*
X169273571Y-117923571D02*
X169273571Y-116423571D01*
X168130714Y-117923571D02*
X168273571Y-117852142D01*
X168345000Y-117780714D01*
X168416428Y-117637857D01*
X168416428Y-117209285D01*
X168345000Y-117066428D01*
X168273571Y-116995000D01*
X168130714Y-116923571D01*
X167916428Y-116923571D01*
X167773571Y-116995000D01*
X167702142Y-117066428D01*
X167630714Y-117209285D01*
X167630714Y-117637857D01*
X167702142Y-117780714D01*
X167773571Y-117852142D01*
X167916428Y-117923571D01*
X168130714Y-117923571D01*
X166773571Y-117923571D02*
X166916428Y-117852142D01*
X166987857Y-117709285D01*
X166987857Y-116423571D01*
X165987857Y-117923571D02*
X166130714Y-117852142D01*
X166202142Y-117709285D01*
X166202142Y-116423571D01*
X164773571Y-117923571D02*
X164773571Y-117137857D01*
X164845000Y-116995000D01*
X164987857Y-116923571D01*
X165273571Y-116923571D01*
X165416428Y-116995000D01*
X164773571Y-117852142D02*
X164916428Y-117923571D01*
X165273571Y-117923571D01*
X165416428Y-117852142D01*
X165487857Y-117709285D01*
X165487857Y-117566428D01*
X165416428Y-117423571D01*
X165273571Y-117352142D01*
X164916428Y-117352142D01*
X164773571Y-117280714D01*
X164059285Y-117923571D02*
X164059285Y-116923571D01*
X164059285Y-117209285D02*
X163987857Y-117066428D01*
X163916428Y-116995000D01*
X163773571Y-116923571D01*
X163630714Y-116923571D01*
X162487857Y-117923571D02*
X162487857Y-116423571D01*
X162487857Y-117852142D02*
X162630714Y-117923571D01*
X162916428Y-117923571D01*
X163059285Y-117852142D01*
X163130714Y-117780714D01*
X163202142Y-117637857D01*
X163202142Y-117209285D01*
X163130714Y-117066428D01*
X163059285Y-116995000D01*
X162916428Y-116923571D01*
X162630714Y-116923571D01*
X162487857Y-116995000D01*
X161559285Y-117923571D02*
X161702142Y-117852142D01*
X161773571Y-117780714D01*
X161845000Y-117637857D01*
X161845000Y-117209285D01*
X161773571Y-117066428D01*
X161702142Y-116995000D01*
X161559285Y-116923571D01*
X161345000Y-116923571D01*
X161202142Y-116995000D01*
X161130714Y-117066428D01*
X161059285Y-117209285D01*
X161059285Y-117637857D01*
X161130714Y-117780714D01*
X161202142Y-117852142D01*
X161345000Y-117923571D01*
X161559285Y-117923571D01*
X168987857Y-119552857D02*
X168773571Y-119624285D01*
X168702142Y-119695714D01*
X168630714Y-119838571D01*
X168630714Y-120052857D01*
X168702142Y-120195714D01*
X168773571Y-120267142D01*
X168916428Y-120338571D01*
X169487857Y-120338571D01*
X169487857Y-118838571D01*
X168987857Y-118838571D01*
X168845000Y-118910000D01*
X168773571Y-118981428D01*
X168702142Y-119124285D01*
X168702142Y-119267142D01*
X168773571Y-119410000D01*
X168845000Y-119481428D01*
X168987857Y-119552857D01*
X169487857Y-119552857D01*
X167416428Y-120267142D02*
X167559285Y-120338571D01*
X167845000Y-120338571D01*
X167987857Y-120267142D01*
X168059285Y-120124285D01*
X168059285Y-119552857D01*
X167987857Y-119410000D01*
X167845000Y-119338571D01*
X167559285Y-119338571D01*
X167416428Y-119410000D01*
X167345000Y-119552857D01*
X167345000Y-119695714D01*
X168059285Y-119838571D01*
X166702142Y-120338571D02*
X166702142Y-119338571D01*
X166702142Y-119624285D02*
X166630714Y-119481428D01*
X166559285Y-119410000D01*
X166416428Y-119338571D01*
X166273571Y-119338571D01*
X165773571Y-120338571D02*
X165773571Y-119338571D01*
X165773571Y-119624285D02*
X165702142Y-119481428D01*
X165630714Y-119410000D01*
X165487857Y-119338571D01*
X165345000Y-119338571D01*
X164273571Y-120267142D02*
X164416428Y-120338571D01*
X164702142Y-120338571D01*
X164845000Y-120267142D01*
X164916428Y-120124285D01*
X164916428Y-119552857D01*
X164845000Y-119410000D01*
X164702142Y-119338571D01*
X164416428Y-119338571D01*
X164273571Y-119410000D01*
X164202142Y-119552857D01*
X164202142Y-119695714D01*
X164916428Y-119838571D01*
X163773571Y-119338571D02*
X163202142Y-119338571D01*
X163559285Y-118838571D02*
X163559285Y-120124285D01*
X163487857Y-120267142D01*
X163345000Y-120338571D01*
X163202142Y-120338571D01*
X162916428Y-119338571D02*
X162345000Y-119338571D01*
X162702142Y-118838571D02*
X162702142Y-120124285D01*
X162630714Y-120267142D01*
X162487857Y-120338571D01*
X162345000Y-120338571D01*
X161202142Y-120338571D02*
X161202142Y-119552857D01*
X161273571Y-119410000D01*
X161416428Y-119338571D01*
X161702142Y-119338571D01*
X161845000Y-119410000D01*
X161202142Y-120267142D02*
X161345000Y-120338571D01*
X161702142Y-120338571D01*
X161845000Y-120267142D01*
X161916428Y-120124285D01*
X161916428Y-119981428D01*
X161845000Y-119838571D01*
X161702142Y-119767142D01*
X161345000Y-119767142D01*
X161202142Y-119695714D01*
D12*
X109964285Y-80114404D02*
X109297619Y-80114404D01*
X109869047Y-80114404D02*
X109916666Y-80066785D01*
X109964285Y-79971547D01*
X109964285Y-79828690D01*
X109916666Y-79733452D01*
X109821428Y-79685833D01*
X109297619Y-79685833D01*
X109345238Y-78781071D02*
X109297619Y-78876309D01*
X109297619Y-79066785D01*
X109345238Y-79162023D01*
X109392857Y-79209642D01*
X109488095Y-79257261D01*
X109773809Y-79257261D01*
X109869047Y-79209642D01*
X109916666Y-79162023D01*
X109964285Y-79066785D01*
X109964285Y-78876309D01*
X109916666Y-78781071D01*
X97547619Y-80209642D02*
X97547619Y-79590595D01*
X97166666Y-79923928D01*
X97166666Y-79781071D01*
X97119047Y-79685833D01*
X97071428Y-79638214D01*
X96976190Y-79590595D01*
X96738095Y-79590595D01*
X96642857Y-79638214D01*
X96595238Y-79685833D01*
X96547619Y-79781071D01*
X96547619Y-80066785D01*
X96595238Y-80162023D01*
X96642857Y-80209642D01*
X97547619Y-79304880D02*
X96547619Y-78971547D01*
X97547619Y-78638214D01*
X97547619Y-78400119D02*
X97547619Y-77781071D01*
X97166666Y-78114404D01*
X97166666Y-77971547D01*
X97119047Y-77876309D01*
X97071428Y-77828690D01*
X96976190Y-77781071D01*
X96738095Y-77781071D01*
X96642857Y-77828690D01*
X96595238Y-77876309D01*
X96547619Y-77971547D01*
X96547619Y-78257261D01*
X96595238Y-78352500D01*
X96642857Y-78400119D01*
X92509642Y-99402380D02*
X91890595Y-99402380D01*
X92223928Y-99783333D01*
X92081071Y-99783333D01*
X91985833Y-99830952D01*
X91938214Y-99878571D01*
X91890595Y-99973809D01*
X91890595Y-100211904D01*
X91938214Y-100307142D01*
X91985833Y-100354761D01*
X92081071Y-100402380D01*
X92366785Y-100402380D01*
X92462023Y-100354761D01*
X92509642Y-100307142D01*
X91604880Y-99402380D02*
X91271547Y-100402380D01*
X90938214Y-99402380D01*
X90700119Y-99402380D02*
X90081071Y-99402380D01*
X90414404Y-99783333D01*
X90271547Y-99783333D01*
X90176309Y-99830952D01*
X90128690Y-99878571D01*
X90081071Y-99973809D01*
X90081071Y-100211904D01*
X90128690Y-100307142D01*
X90176309Y-100354761D01*
X90271547Y-100402380D01*
X90557261Y-100402380D01*
X90652500Y-100354761D01*
X90700119Y-100307142D01*
X151359523Y-90702380D02*
X151026190Y-91702380D01*
X150692857Y-90702380D01*
X150597619Y-91797619D02*
X149835714Y-91797619D01*
X149597619Y-91702380D02*
X149597619Y-90702380D01*
X149216666Y-90702380D01*
X149121428Y-90750000D01*
X149073809Y-90797619D01*
X149026190Y-90892857D01*
X149026190Y-91035714D01*
X149073809Y-91130952D01*
X149121428Y-91178571D01*
X149216666Y-91226190D01*
X149597619Y-91226190D01*
X148169047Y-91702380D02*
X148169047Y-91178571D01*
X148216666Y-91083333D01*
X148311904Y-91035714D01*
X148502380Y-91035714D01*
X148597619Y-91083333D01*
X148169047Y-91654761D02*
X148264285Y-91702380D01*
X148502380Y-91702380D01*
X148597619Y-91654761D01*
X148645238Y-91559523D01*
X148645238Y-91464285D01*
X148597619Y-91369047D01*
X148502380Y-91321428D01*
X148264285Y-91321428D01*
X148169047Y-91273809D01*
X147692857Y-91035714D02*
X147692857Y-91702380D01*
X147692857Y-91130952D02*
X147645238Y-91083333D01*
X147550000Y-91035714D01*
X147407142Y-91035714D01*
X147311904Y-91083333D01*
X147264285Y-91178571D01*
X147264285Y-91702380D01*
X146407142Y-91654761D02*
X146502380Y-91702380D01*
X146692857Y-91702380D01*
X146788095Y-91654761D01*
X146835714Y-91559523D01*
X146835714Y-91178571D01*
X146788095Y-91083333D01*
X146692857Y-91035714D01*
X146502380Y-91035714D01*
X146407142Y-91083333D01*
X146359523Y-91178571D01*
X146359523Y-91273809D01*
X146835714Y-91369047D01*
X145788095Y-91702380D02*
X145883333Y-91654761D01*
X145930952Y-91559523D01*
X145930952Y-90702380D01*
X162950000Y-92290595D02*
X162997619Y-92385833D01*
X162997619Y-92528690D01*
X162950000Y-92671547D01*
X162854761Y-92766785D01*
X162759523Y-92814404D01*
X162569047Y-92862023D01*
X162426190Y-92862023D01*
X162235714Y-92814404D01*
X162140476Y-92766785D01*
X162045238Y-92671547D01*
X161997619Y-92528690D01*
X161997619Y-92433452D01*
X162045238Y-92290595D01*
X162092857Y-92242976D01*
X162426190Y-92242976D01*
X162426190Y-92433452D01*
X161997619Y-91814404D02*
X162997619Y-91814404D01*
X161997619Y-91242976D01*
X162997619Y-91242976D01*
X161997619Y-90766785D02*
X162997619Y-90766785D01*
X162997619Y-90528690D01*
X162950000Y-90385833D01*
X162854761Y-90290595D01*
X162759523Y-90242976D01*
X162569047Y-90195357D01*
X162426190Y-90195357D01*
X162235714Y-90242976D01*
X162140476Y-90290595D01*
X162045238Y-90385833D01*
X161997619Y-90528690D01*
X161997619Y-90766785D01*
X107078571Y-105254761D02*
X106935714Y-105302380D01*
X106697619Y-105302380D01*
X106602380Y-105254761D01*
X106554761Y-105207142D01*
X106507142Y-105111904D01*
X106507142Y-105016666D01*
X106554761Y-104921428D01*
X106602380Y-104873809D01*
X106697619Y-104826190D01*
X106888095Y-104778571D01*
X106983333Y-104730952D01*
X107030952Y-104683333D01*
X107078571Y-104588095D01*
X107078571Y-104492857D01*
X107030952Y-104397619D01*
X106983333Y-104350000D01*
X106888095Y-104302380D01*
X106650000Y-104302380D01*
X106507142Y-104350000D01*
X106173809Y-104302380D02*
X105935714Y-105302380D01*
X105745238Y-104588095D01*
X105554761Y-105302380D01*
X105316666Y-104302380D01*
X105173809Y-105397619D02*
X104411904Y-105397619D01*
X104316666Y-104302380D02*
X103983333Y-105302380D01*
X103650000Y-104302380D01*
X103316666Y-105302380D02*
X103316666Y-104302380D01*
X102840476Y-105302380D02*
X102840476Y-104302380D01*
X102269047Y-105302380D01*
X102269047Y-104302380D01*
X116766547Y-122052380D02*
X116147500Y-122052380D01*
X116480833Y-122433333D01*
X116337976Y-122433333D01*
X116242738Y-122480952D01*
X116195119Y-122528571D01*
X116147500Y-122623809D01*
X116147500Y-122861904D01*
X116195119Y-122957142D01*
X116242738Y-123004761D01*
X116337976Y-123052380D01*
X116623690Y-123052380D01*
X116718928Y-123004761D01*
X116766547Y-122957142D01*
X115861785Y-122052380D02*
X115528452Y-123052380D01*
X115195119Y-122052380D01*
X114957023Y-122052380D02*
X114337976Y-122052380D01*
X114671309Y-122433333D01*
X114528452Y-122433333D01*
X114433214Y-122480952D01*
X114385595Y-122528571D01*
X114337976Y-122623809D01*
X114337976Y-122861904D01*
X114385595Y-122957142D01*
X114433214Y-123004761D01*
X114528452Y-123052380D01*
X114814166Y-123052380D01*
X114909404Y-123004761D01*
X114957023Y-122957142D01*
X112861680Y-120766666D02*
X112385490Y-120766666D01*
X112956918Y-121052380D02*
X112623585Y-120052380D01*
X112290252Y-121052380D01*
X111956918Y-121052380D02*
X111956918Y-120052380D01*
X111718823Y-120052380D01*
X111575966Y-120100000D01*
X111480728Y-120195238D01*
X111433109Y-120290476D01*
X111385490Y-120480952D01*
X111385490Y-120623809D01*
X111433109Y-120814285D01*
X111480728Y-120909523D01*
X111575966Y-121004761D01*
X111718823Y-121052380D01*
X111956918Y-121052380D01*
X110385490Y-120957142D02*
X110433109Y-121004761D01*
X110575966Y-121052380D01*
X110671204Y-121052380D01*
X110814061Y-121004761D01*
X110909299Y-120909523D01*
X110956918Y-120814285D01*
X111004537Y-120623809D01*
X111004537Y-120480952D01*
X110956918Y-120290476D01*
X110909299Y-120195238D01*
X110814061Y-120100000D01*
X110671204Y-120052380D01*
X110575966Y-120052380D01*
X110433109Y-120100000D01*
X110385490Y-120147619D01*
X109766442Y-120052380D02*
X109671204Y-120052380D01*
X109575966Y-120100000D01*
X109528347Y-120147619D01*
X109480728Y-120242857D01*
X109433109Y-120433333D01*
X109433109Y-120671428D01*
X109480728Y-120861904D01*
X109528347Y-120957142D01*
X109575966Y-121004761D01*
X109671204Y-121052380D01*
X109766442Y-121052380D01*
X109861680Y-121004761D01*
X109909299Y-120957142D01*
X109956918Y-120861904D01*
X110004537Y-120671428D01*
X110004537Y-120433333D01*
X109956918Y-120242857D01*
X109909299Y-120147619D01*
X109861680Y-120100000D01*
X109766442Y-120052380D01*
X140397619Y-85237976D02*
X141397619Y-85237976D01*
X141397619Y-84857023D01*
X141350000Y-84761785D01*
X141302380Y-84714166D01*
X141207142Y-84666547D01*
X141064285Y-84666547D01*
X140969047Y-84714166D01*
X140921428Y-84761785D01*
X140873809Y-84857023D01*
X140873809Y-85237976D01*
X140397619Y-83809404D02*
X140921428Y-83809404D01*
X141016666Y-83857023D01*
X141064285Y-83952261D01*
X141064285Y-84142738D01*
X141016666Y-84237976D01*
X140445238Y-83809404D02*
X140397619Y-83904642D01*
X140397619Y-84142738D01*
X140445238Y-84237976D01*
X140540476Y-84285595D01*
X140635714Y-84285595D01*
X140730952Y-84237976D01*
X140778571Y-84142738D01*
X140778571Y-83904642D01*
X140826190Y-83809404D01*
X141064285Y-83333214D02*
X140397619Y-83333214D01*
X140969047Y-83333214D02*
X141016666Y-83285595D01*
X141064285Y-83190357D01*
X141064285Y-83047500D01*
X141016666Y-82952261D01*
X140921428Y-82904642D01*
X140397619Y-82904642D01*
X140445238Y-82047500D02*
X140397619Y-82142738D01*
X140397619Y-82333214D01*
X140445238Y-82428452D01*
X140540476Y-82476071D01*
X140921428Y-82476071D01*
X141016666Y-82428452D01*
X141064285Y-82333214D01*
X141064285Y-82142738D01*
X141016666Y-82047500D01*
X140921428Y-81999880D01*
X140826190Y-81999880D01*
X140730952Y-82476071D01*
X140397619Y-81428452D02*
X140445238Y-81523690D01*
X140540476Y-81571309D01*
X141397619Y-81571309D01*
X140778571Y-81047500D02*
X140778571Y-80285595D01*
X140397619Y-80666547D02*
X141159523Y-80666547D01*
X167997619Y-92957261D02*
X166997619Y-92623928D01*
X167997619Y-92290595D01*
X166902380Y-92195357D02*
X166902380Y-91433452D01*
X167521428Y-90862023D02*
X167473809Y-90719166D01*
X167426190Y-90671547D01*
X167330952Y-90623928D01*
X167188095Y-90623928D01*
X167092857Y-90671547D01*
X167045238Y-90719166D01*
X166997619Y-90814404D01*
X166997619Y-91195357D01*
X167997619Y-91195357D01*
X167997619Y-90862023D01*
X167950000Y-90766785D01*
X167902380Y-90719166D01*
X167807142Y-90671547D01*
X167711904Y-90671547D01*
X167616666Y-90719166D01*
X167569047Y-90766785D01*
X167521428Y-90862023D01*
X167521428Y-91195357D01*
X167092857Y-89623928D02*
X167045238Y-89671547D01*
X166997619Y-89814404D01*
X166997619Y-89909642D01*
X167045238Y-90052500D01*
X167140476Y-90147738D01*
X167235714Y-90195357D01*
X167426190Y-90242976D01*
X167569047Y-90242976D01*
X167759523Y-90195357D01*
X167854761Y-90147738D01*
X167950000Y-90052500D01*
X167997619Y-89909642D01*
X167997619Y-89814404D01*
X167950000Y-89671547D01*
X167902380Y-89623928D01*
X166997619Y-89195357D02*
X167997619Y-89195357D01*
X166997619Y-88623928D02*
X167569047Y-89052500D01*
X167997619Y-88623928D02*
X167426190Y-89195357D01*
X166997619Y-88195357D02*
X167997619Y-88195357D01*
X167997619Y-87814404D01*
X167950000Y-87719166D01*
X167902380Y-87671547D01*
X167807142Y-87623928D01*
X167664285Y-87623928D01*
X167569047Y-87671547D01*
X167521428Y-87719166D01*
X167473809Y-87814404D01*
X167473809Y-88195357D01*
X116718928Y-127004761D02*
X116576071Y-127052380D01*
X116337976Y-127052380D01*
X116242738Y-127004761D01*
X116195119Y-126957142D01*
X116147500Y-126861904D01*
X116147500Y-126766666D01*
X116195119Y-126671428D01*
X116242738Y-126623809D01*
X116337976Y-126576190D01*
X116528452Y-126528571D01*
X116623690Y-126480952D01*
X116671309Y-126433333D01*
X116718928Y-126338095D01*
X116718928Y-126242857D01*
X116671309Y-126147619D01*
X116623690Y-126100000D01*
X116528452Y-126052380D01*
X116290357Y-126052380D01*
X116147500Y-126100000D01*
X115147500Y-126957142D02*
X115195119Y-127004761D01*
X115337976Y-127052380D01*
X115433214Y-127052380D01*
X115576071Y-127004761D01*
X115671309Y-126909523D01*
X115718928Y-126814285D01*
X115766547Y-126623809D01*
X115766547Y-126480952D01*
X115718928Y-126290476D01*
X115671309Y-126195238D01*
X115576071Y-126100000D01*
X115433214Y-126052380D01*
X115337976Y-126052380D01*
X115195119Y-126100000D01*
X115147500Y-126147619D01*
X114242738Y-127052380D02*
X114718928Y-127052380D01*
X114718928Y-126052380D01*
X170497619Y-92957261D02*
X170497619Y-92385833D01*
X169497619Y-92671547D02*
X170497619Y-92671547D01*
X169497619Y-92052500D02*
X170497619Y-92052500D01*
X170497619Y-91671547D01*
X170450000Y-91576309D01*
X170402380Y-91528690D01*
X170307142Y-91481071D01*
X170164285Y-91481071D01*
X170069047Y-91528690D01*
X170021428Y-91576309D01*
X169973809Y-91671547D01*
X169973809Y-92052500D01*
X118849047Y-132677619D02*
X118801428Y-132630000D01*
X118706190Y-132582380D01*
X118468095Y-132582380D01*
X118372857Y-132630000D01*
X118325238Y-132677619D01*
X118277619Y-132772857D01*
X118277619Y-132868095D01*
X118325238Y-133010952D01*
X118896666Y-133582380D01*
X118277619Y-133582380D01*
X117658571Y-132582380D02*
X117563333Y-132582380D01*
X117468095Y-132630000D01*
X117420476Y-132677619D01*
X117372857Y-132772857D01*
X117325238Y-132963333D01*
X117325238Y-133201428D01*
X117372857Y-133391904D01*
X117420476Y-133487142D01*
X117468095Y-133534761D01*
X117563333Y-133582380D01*
X117658571Y-133582380D01*
X117753809Y-133534761D01*
X117801428Y-133487142D01*
X117849047Y-133391904D01*
X117896666Y-133201428D01*
X117896666Y-132963333D01*
X117849047Y-132772857D01*
X117801428Y-132677619D01*
X117753809Y-132630000D01*
X117658571Y-132582380D01*
X116944285Y-132677619D02*
X116896666Y-132630000D01*
X116801428Y-132582380D01*
X116563333Y-132582380D01*
X116468095Y-132630000D01*
X116420476Y-132677619D01*
X116372857Y-132772857D01*
X116372857Y-132868095D01*
X116420476Y-133010952D01*
X116991904Y-133582380D01*
X116372857Y-133582380D01*
X115991904Y-132677619D02*
X115944285Y-132630000D01*
X115849047Y-132582380D01*
X115610952Y-132582380D01*
X115515714Y-132630000D01*
X115468095Y-132677619D01*
X115420476Y-132772857D01*
X115420476Y-132868095D01*
X115468095Y-133010952D01*
X116039523Y-133582380D01*
X115420476Y-133582380D01*
X114991904Y-133201428D02*
X114230000Y-133201428D01*
X113563333Y-132582380D02*
X113468095Y-132582380D01*
X113372857Y-132630000D01*
X113325238Y-132677619D01*
X113277619Y-132772857D01*
X113230000Y-132963333D01*
X113230000Y-133201428D01*
X113277619Y-133391904D01*
X113325238Y-133487142D01*
X113372857Y-133534761D01*
X113468095Y-133582380D01*
X113563333Y-133582380D01*
X113658571Y-133534761D01*
X113706190Y-133487142D01*
X113753809Y-133391904D01*
X113801428Y-133201428D01*
X113801428Y-132963333D01*
X113753809Y-132772857D01*
X113706190Y-132677619D01*
X113658571Y-132630000D01*
X113563333Y-132582380D01*
X112372857Y-132915714D02*
X112372857Y-133582380D01*
X112610952Y-132534761D02*
X112849047Y-133249047D01*
X112230000Y-133249047D01*
X111849047Y-133201428D02*
X111087142Y-133201428D01*
X110087142Y-133582380D02*
X110658571Y-133582380D01*
X110372857Y-133582380D02*
X110372857Y-132582380D01*
X110468095Y-132725238D01*
X110563333Y-132820476D01*
X110658571Y-132868095D01*
X109134761Y-133582380D02*
X109706190Y-133582380D01*
X109420476Y-133582380D02*
X109420476Y-132582380D01*
X109515714Y-132725238D01*
X109610952Y-132820476D01*
X109706190Y-132868095D01*
X107372857Y-133582380D02*
X107706190Y-133106190D01*
X107944285Y-133582380D02*
X107944285Y-132582380D01*
X107563333Y-132582380D01*
X107468095Y-132630000D01*
X107420476Y-132677619D01*
X107372857Y-132772857D01*
X107372857Y-132915714D01*
X107420476Y-133010952D01*
X107468095Y-133058571D01*
X107563333Y-133106190D01*
X107944285Y-133106190D01*
X106563333Y-133534761D02*
X106658571Y-133582380D01*
X106849047Y-133582380D01*
X106944285Y-133534761D01*
X106991904Y-133439523D01*
X106991904Y-133058571D01*
X106944285Y-132963333D01*
X106849047Y-132915714D01*
X106658571Y-132915714D01*
X106563333Y-132963333D01*
X106515714Y-133058571D01*
X106515714Y-133153809D01*
X106991904Y-133249047D01*
X106182380Y-132915714D02*
X105944285Y-133582380D01*
X105706190Y-132915714D01*
X104039523Y-133582380D02*
X104610952Y-133582380D01*
X104325238Y-133582380D02*
X104325238Y-132582380D01*
X104420476Y-132725238D01*
X104515714Y-132820476D01*
X104610952Y-132868095D01*
X103610952Y-133487142D02*
X103563333Y-133534761D01*
X103610952Y-133582380D01*
X103658571Y-133534761D01*
X103610952Y-133487142D01*
X103610952Y-133582380D01*
X102944285Y-132582380D02*
X102849047Y-132582380D01*
X102753809Y-132630000D01*
X102706190Y-132677619D01*
X102658571Y-132772857D01*
X102610952Y-132963333D01*
X102610952Y-133201428D01*
X102658571Y-133391904D01*
X102706190Y-133487142D01*
X102753809Y-133534761D01*
X102849047Y-133582380D01*
X102944285Y-133582380D01*
X103039523Y-133534761D01*
X103087142Y-133487142D01*
X103134761Y-133391904D01*
X103182380Y-133201428D01*
X103182380Y-132963333D01*
X103134761Y-132772857D01*
X103087142Y-132677619D01*
X103039523Y-132630000D01*
X102944285Y-132582380D01*
X175440476Y-132602380D02*
X175440476Y-131602380D01*
X175107142Y-132316666D01*
X174773809Y-131602380D01*
X174773809Y-132602380D01*
X174154761Y-132602380D02*
X174250000Y-132554761D01*
X174297619Y-132507142D01*
X174345238Y-132411904D01*
X174345238Y-132126190D01*
X174297619Y-132030952D01*
X174250000Y-131983333D01*
X174154761Y-131935714D01*
X174011904Y-131935714D01*
X173916666Y-131983333D01*
X173869047Y-132030952D01*
X173821428Y-132126190D01*
X173821428Y-132411904D01*
X173869047Y-132507142D01*
X173916666Y-132554761D01*
X174011904Y-132602380D01*
X174154761Y-132602380D01*
X173535714Y-131935714D02*
X173154761Y-131935714D01*
X173392857Y-131602380D02*
X173392857Y-132459523D01*
X173345238Y-132554761D01*
X173250000Y-132602380D01*
X173154761Y-132602380D01*
X172678571Y-132602380D02*
X172773809Y-132554761D01*
X172821428Y-132507142D01*
X172869047Y-132411904D01*
X172869047Y-132126190D01*
X172821428Y-132030952D01*
X172773809Y-131983333D01*
X172678571Y-131935714D01*
X172535714Y-131935714D01*
X172440476Y-131983333D01*
X172392857Y-132030952D01*
X172345238Y-132126190D01*
X172345238Y-132411904D01*
X172392857Y-132507142D01*
X172440476Y-132554761D01*
X172535714Y-132602380D01*
X172678571Y-132602380D01*
X171916666Y-132602380D02*
X171916666Y-131935714D01*
X171916666Y-132126190D02*
X171869047Y-132030952D01*
X171821428Y-131983333D01*
X171726190Y-131935714D01*
X171630952Y-131935714D01*
X170583333Y-131697619D02*
X170535714Y-131650000D01*
X170440476Y-131602380D01*
X170202380Y-131602380D01*
X170107142Y-131650000D01*
X170059523Y-131697619D01*
X170011904Y-131792857D01*
X170011904Y-131888095D01*
X170059523Y-132030952D01*
X170630952Y-132602380D01*
X170011904Y-132602380D01*
X158785714Y-128697619D02*
X158738095Y-128650000D01*
X158642857Y-128602380D01*
X158404761Y-128602380D01*
X158309523Y-128650000D01*
X158261904Y-128697619D01*
X158214285Y-128792857D01*
X158214285Y-128888095D01*
X158261904Y-129030952D01*
X158833333Y-129602380D01*
X158214285Y-129602380D01*
X104345238Y-80162023D02*
X104297619Y-80019166D01*
X104297619Y-79781071D01*
X104345238Y-79685833D01*
X104392857Y-79638214D01*
X104488095Y-79590595D01*
X104583333Y-79590595D01*
X104678571Y-79638214D01*
X104726190Y-79685833D01*
X104773809Y-79781071D01*
X104821428Y-79971547D01*
X104869047Y-80066785D01*
X104916666Y-80114404D01*
X105011904Y-80162023D01*
X105107142Y-80162023D01*
X105202380Y-80114404D01*
X105250000Y-80066785D01*
X105297619Y-79971547D01*
X105297619Y-79733452D01*
X105250000Y-79590595D01*
X104297619Y-79162023D02*
X105297619Y-79162023D01*
X105297619Y-78923928D01*
X105250000Y-78781071D01*
X105154761Y-78685833D01*
X105059523Y-78638214D01*
X104869047Y-78590595D01*
X104726190Y-78590595D01*
X104535714Y-78638214D01*
X104440476Y-78685833D01*
X104345238Y-78781071D01*
X104297619Y-78923928D01*
X104297619Y-79162023D01*
X104583333Y-78209642D02*
X104583333Y-77733452D01*
X104297619Y-78304880D02*
X105297619Y-77971547D01*
X104297619Y-77638214D01*
X127878571Y-81154761D02*
X127735714Y-81202380D01*
X127497619Y-81202380D01*
X127402380Y-81154761D01*
X127354761Y-81107142D01*
X127307142Y-81011904D01*
X127307142Y-80916666D01*
X127354761Y-80821428D01*
X127402380Y-80773809D01*
X127497619Y-80726190D01*
X127688095Y-80678571D01*
X127783333Y-80630952D01*
X127830952Y-80583333D01*
X127878571Y-80488095D01*
X127878571Y-80392857D01*
X127830952Y-80297619D01*
X127783333Y-80250000D01*
X127688095Y-80202380D01*
X127450000Y-80202380D01*
X127307142Y-80250000D01*
X126878571Y-81202380D02*
X126878571Y-80202380D01*
X126450000Y-81202380D02*
X126450000Y-80678571D01*
X126497619Y-80583333D01*
X126592857Y-80535714D01*
X126735714Y-80535714D01*
X126830952Y-80583333D01*
X126878571Y-80630952D01*
X125545238Y-80535714D02*
X125545238Y-81202380D01*
X125973809Y-80535714D02*
X125973809Y-81059523D01*
X125926190Y-81154761D01*
X125830952Y-81202380D01*
X125688095Y-81202380D01*
X125592857Y-81154761D01*
X125545238Y-81107142D01*
X125069047Y-80535714D02*
X125069047Y-81202380D01*
X125069047Y-80630952D02*
X125021428Y-80583333D01*
X124926190Y-80535714D01*
X124783333Y-80535714D01*
X124688095Y-80583333D01*
X124640476Y-80678571D01*
X124640476Y-81202380D01*
X124307142Y-80535714D02*
X123926190Y-80535714D01*
X124164285Y-80202380D02*
X124164285Y-81059523D01*
X124116666Y-81154761D01*
X124021428Y-81202380D01*
X123926190Y-81202380D01*
X112750000Y-79590595D02*
X112797619Y-79685833D01*
X112797619Y-79828690D01*
X112750000Y-79971547D01*
X112654761Y-80066785D01*
X112559523Y-80114404D01*
X112369047Y-80162023D01*
X112226190Y-80162023D01*
X112035714Y-80114404D01*
X111940476Y-80066785D01*
X111845238Y-79971547D01*
X111797619Y-79828690D01*
X111797619Y-79733452D01*
X111845238Y-79590595D01*
X111892857Y-79542976D01*
X112226190Y-79542976D01*
X112226190Y-79733452D01*
X111797619Y-79114404D02*
X112797619Y-79114404D01*
X111797619Y-78542976D01*
X112797619Y-78542976D01*
X111797619Y-78066785D02*
X112797619Y-78066785D01*
X112797619Y-77828690D01*
X112750000Y-77685833D01*
X112654761Y-77590595D01*
X112559523Y-77542976D01*
X112369047Y-77495357D01*
X112226190Y-77495357D01*
X112035714Y-77542976D01*
X111940476Y-77590595D01*
X111845238Y-77685833D01*
X111797619Y-77828690D01*
X111797619Y-78066785D01*
X131597619Y-85137976D02*
X132597619Y-85137976D01*
X132597619Y-84757023D01*
X132550000Y-84661785D01*
X132502380Y-84614166D01*
X132407142Y-84566547D01*
X132264285Y-84566547D01*
X132169047Y-84614166D01*
X132121428Y-84661785D01*
X132073809Y-84757023D01*
X132073809Y-85137976D01*
X131597619Y-83709404D02*
X132121428Y-83709404D01*
X132216666Y-83757023D01*
X132264285Y-83852261D01*
X132264285Y-84042738D01*
X132216666Y-84137976D01*
X131645238Y-83709404D02*
X131597619Y-83804642D01*
X131597619Y-84042738D01*
X131645238Y-84137976D01*
X131740476Y-84185595D01*
X131835714Y-84185595D01*
X131930952Y-84137976D01*
X131978571Y-84042738D01*
X131978571Y-83804642D01*
X132026190Y-83709404D01*
X132264285Y-83233214D02*
X131597619Y-83233214D01*
X132169047Y-83233214D02*
X132216666Y-83185595D01*
X132264285Y-83090357D01*
X132264285Y-82947500D01*
X132216666Y-82852261D01*
X132121428Y-82804642D01*
X131597619Y-82804642D01*
X131645238Y-81947500D02*
X131597619Y-82042738D01*
X131597619Y-82233214D01*
X131645238Y-82328452D01*
X131740476Y-82376071D01*
X132121428Y-82376071D01*
X132216666Y-82328452D01*
X132264285Y-82233214D01*
X132264285Y-82042738D01*
X132216666Y-81947500D01*
X132121428Y-81899880D01*
X132026190Y-81899880D01*
X131930952Y-82376071D01*
X131597619Y-81328452D02*
X131645238Y-81423690D01*
X131740476Y-81471309D01*
X132597619Y-81471309D01*
X131978571Y-80947500D02*
X131978571Y-80185595D01*
X99933214Y-121650000D02*
X100028452Y-121602380D01*
X100171309Y-121602380D01*
X100314166Y-121650000D01*
X100409404Y-121745238D01*
X100457023Y-121840476D01*
X100504642Y-122030952D01*
X100504642Y-122173809D01*
X100457023Y-122364285D01*
X100409404Y-122459523D01*
X100314166Y-122554761D01*
X100171309Y-122602380D01*
X100076071Y-122602380D01*
X99933214Y-122554761D01*
X99885595Y-122507142D01*
X99885595Y-122173809D01*
X100076071Y-122173809D01*
X99457023Y-122602380D02*
X99457023Y-121602380D01*
X98885595Y-122602380D01*
X98885595Y-121602380D01*
X98409404Y-122602380D02*
X98409404Y-121602380D01*
X98171309Y-121602380D01*
X98028452Y-121650000D01*
X97933214Y-121745238D01*
X97885595Y-121840476D01*
X97837976Y-122030952D01*
X97837976Y-122173809D01*
X97885595Y-122364285D01*
X97933214Y-122459523D01*
X98028452Y-122554761D01*
X98171309Y-122602380D01*
X98409404Y-122602380D01*
X100000000Y-79590595D02*
X100047619Y-79685833D01*
X100047619Y-79828690D01*
X100000000Y-79971547D01*
X99904761Y-80066785D01*
X99809523Y-80114404D01*
X99619047Y-80162023D01*
X99476190Y-80162023D01*
X99285714Y-80114404D01*
X99190476Y-80066785D01*
X99095238Y-79971547D01*
X99047619Y-79828690D01*
X99047619Y-79733452D01*
X99095238Y-79590595D01*
X99142857Y-79542976D01*
X99476190Y-79542976D01*
X99476190Y-79733452D01*
X99047619Y-79114404D02*
X100047619Y-79114404D01*
X99047619Y-78542976D01*
X100047619Y-78542976D01*
X99047619Y-78066785D02*
X100047619Y-78066785D01*
X100047619Y-77828690D01*
X100000000Y-77685833D01*
X99904761Y-77590595D01*
X99809523Y-77542976D01*
X99619047Y-77495357D01*
X99476190Y-77495357D01*
X99285714Y-77542976D01*
X99190476Y-77590595D01*
X99095238Y-77685833D01*
X99047619Y-77828690D01*
X99047619Y-78066785D01*
X92462023Y-95104761D02*
X92319166Y-95152380D01*
X92081071Y-95152380D01*
X91985833Y-95104761D01*
X91938214Y-95057142D01*
X91890595Y-94961904D01*
X91890595Y-94866666D01*
X91938214Y-94771428D01*
X91985833Y-94723809D01*
X92081071Y-94676190D01*
X92271547Y-94628571D01*
X92366785Y-94580952D01*
X92414404Y-94533333D01*
X92462023Y-94438095D01*
X92462023Y-94342857D01*
X92414404Y-94247619D01*
X92366785Y-94200000D01*
X92271547Y-94152380D01*
X92033452Y-94152380D01*
X91890595Y-94200000D01*
X90890595Y-95057142D02*
X90938214Y-95104761D01*
X91081071Y-95152380D01*
X91176309Y-95152380D01*
X91319166Y-95104761D01*
X91414404Y-95009523D01*
X91462023Y-94914285D01*
X91509642Y-94723809D01*
X91509642Y-94580952D01*
X91462023Y-94390476D01*
X91414404Y-94295238D01*
X91319166Y-94200000D01*
X91176309Y-94152380D01*
X91081071Y-94152380D01*
X90938214Y-94200000D01*
X90890595Y-94247619D01*
X89985833Y-95152380D02*
X90462023Y-95152380D01*
X90462023Y-94152380D01*
X138597619Y-93366547D02*
X138597619Y-92747500D01*
X138216666Y-93080833D01*
X138216666Y-92937976D01*
X138169047Y-92842738D01*
X138121428Y-92795119D01*
X138026190Y-92747500D01*
X137788095Y-92747500D01*
X137692857Y-92795119D01*
X137645238Y-92842738D01*
X137597619Y-92937976D01*
X137597619Y-93223690D01*
X137645238Y-93318928D01*
X137692857Y-93366547D01*
X138597619Y-92461785D02*
X137597619Y-92128452D01*
X138597619Y-91795119D01*
X138597619Y-91557023D02*
X138597619Y-90937976D01*
X138216666Y-91271309D01*
X138216666Y-91128452D01*
X138169047Y-91033214D01*
X138121428Y-90985595D01*
X138026190Y-90937976D01*
X137788095Y-90937976D01*
X137692857Y-90985595D01*
X137645238Y-91033214D01*
X137597619Y-91128452D01*
X137597619Y-91414166D01*
X137645238Y-91509404D01*
X137692857Y-91557023D01*
X92462023Y-92604761D02*
X92319166Y-92652380D01*
X92081071Y-92652380D01*
X91985833Y-92604761D01*
X91938214Y-92557142D01*
X91890595Y-92461904D01*
X91890595Y-92366666D01*
X91938214Y-92271428D01*
X91985833Y-92223809D01*
X92081071Y-92176190D01*
X92271547Y-92128571D01*
X92366785Y-92080952D01*
X92414404Y-92033333D01*
X92462023Y-91938095D01*
X92462023Y-91842857D01*
X92414404Y-91747619D01*
X92366785Y-91700000D01*
X92271547Y-91652380D01*
X92033452Y-91652380D01*
X91890595Y-91700000D01*
X91462023Y-92652380D02*
X91462023Y-91652380D01*
X91223928Y-91652380D01*
X91081071Y-91700000D01*
X90985833Y-91795238D01*
X90938214Y-91890476D01*
X90890595Y-92080952D01*
X90890595Y-92223809D01*
X90938214Y-92414285D01*
X90985833Y-92509523D01*
X91081071Y-92604761D01*
X91223928Y-92652380D01*
X91462023Y-92652380D01*
X90509642Y-92366666D02*
X90033452Y-92366666D01*
X90604880Y-92652380D02*
X90271547Y-91652380D01*
X89938214Y-92652380D01*
X116766547Y-125004761D02*
X116623690Y-125052380D01*
X116385595Y-125052380D01*
X116290357Y-125004761D01*
X116242738Y-124957142D01*
X116195119Y-124861904D01*
X116195119Y-124766666D01*
X116242738Y-124671428D01*
X116290357Y-124623809D01*
X116385595Y-124576190D01*
X116576071Y-124528571D01*
X116671309Y-124480952D01*
X116718928Y-124433333D01*
X116766547Y-124338095D01*
X116766547Y-124242857D01*
X116718928Y-124147619D01*
X116671309Y-124100000D01*
X116576071Y-124052380D01*
X116337976Y-124052380D01*
X116195119Y-124100000D01*
X115766547Y-125052380D02*
X115766547Y-124052380D01*
X115528452Y-124052380D01*
X115385595Y-124100000D01*
X115290357Y-124195238D01*
X115242738Y-124290476D01*
X115195119Y-124480952D01*
X115195119Y-124623809D01*
X115242738Y-124814285D01*
X115290357Y-124909523D01*
X115385595Y-125004761D01*
X115528452Y-125052380D01*
X115766547Y-125052380D01*
X114814166Y-124766666D02*
X114337976Y-124766666D01*
X114909404Y-125052380D02*
X114576071Y-124052380D01*
X114242738Y-125052380D01*
D13*
X181782142Y-109178571D02*
X180925000Y-109178571D01*
X181353571Y-110678571D02*
X181353571Y-109178571D01*
X180425000Y-110678571D02*
X180425000Y-109178571D01*
X179782142Y-110678571D02*
X179782142Y-109892857D01*
X179853571Y-109750000D01*
X179996428Y-109678571D01*
X180210714Y-109678571D01*
X180353571Y-109750000D01*
X180425000Y-109821428D01*
X178853571Y-110678571D02*
X178996428Y-110607142D01*
X179067857Y-110535714D01*
X179139285Y-110392857D01*
X179139285Y-109964285D01*
X179067857Y-109821428D01*
X178996428Y-109750000D01*
X178853571Y-109678571D01*
X178639285Y-109678571D01*
X178496428Y-109750000D01*
X178425000Y-109821428D01*
X178353571Y-109964285D01*
X178353571Y-110392857D01*
X178425000Y-110535714D01*
X178496428Y-110607142D01*
X178639285Y-110678571D01*
X178853571Y-110678571D01*
X177710714Y-110678571D02*
X177710714Y-109678571D01*
X177710714Y-109821428D02*
X177639285Y-109750000D01*
X177496428Y-109678571D01*
X177282142Y-109678571D01*
X177139285Y-109750000D01*
X177067857Y-109892857D01*
X177067857Y-110678571D01*
X177067857Y-109892857D02*
X176996428Y-109750000D01*
X176853571Y-109678571D01*
X176639285Y-109678571D01*
X176496428Y-109750000D01*
X176425000Y-109892857D01*
X176425000Y-110678571D01*
X175067857Y-110678571D02*
X175067857Y-109892857D01*
X175139285Y-109750000D01*
X175282142Y-109678571D01*
X175567857Y-109678571D01*
X175710714Y-109750000D01*
X175067857Y-110607142D02*
X175210714Y-110678571D01*
X175567857Y-110678571D01*
X175710714Y-110607142D01*
X175782142Y-110464285D01*
X175782142Y-110321428D01*
X175710714Y-110178571D01*
X175567857Y-110107142D01*
X175210714Y-110107142D01*
X175067857Y-110035714D01*
X174425000Y-110607142D02*
X174282142Y-110678571D01*
X173996428Y-110678571D01*
X173853571Y-110607142D01*
X173782142Y-110464285D01*
X173782142Y-110392857D01*
X173853571Y-110250000D01*
X173996428Y-110178571D01*
X174210714Y-110178571D01*
X174353571Y-110107142D01*
X174425000Y-109964285D01*
X174425000Y-109892857D01*
X174353571Y-109750000D01*
X174210714Y-109678571D01*
X173996428Y-109678571D01*
X173853571Y-109750000D01*
X180853571Y-113093571D02*
X181567857Y-113093571D01*
X181567857Y-111593571D01*
X180353571Y-113093571D02*
X180353571Y-112093571D01*
X180353571Y-111593571D02*
X180425000Y-111665000D01*
X180353571Y-111736428D01*
X180282142Y-111665000D01*
X180353571Y-111593571D01*
X180353571Y-111736428D01*
X179710714Y-113022142D02*
X179567857Y-113093571D01*
X179282142Y-113093571D01*
X179139285Y-113022142D01*
X179067857Y-112879285D01*
X179067857Y-112807857D01*
X179139285Y-112665000D01*
X179282142Y-112593571D01*
X179496428Y-112593571D01*
X179639285Y-112522142D01*
X179710714Y-112379285D01*
X179710714Y-112307857D01*
X179639285Y-112165000D01*
X179496428Y-112093571D01*
X179282142Y-112093571D01*
X179139285Y-112165000D01*
X177782142Y-113093571D02*
X177782142Y-112307857D01*
X177853571Y-112165000D01*
X177996428Y-112093571D01*
X178282142Y-112093571D01*
X178425000Y-112165000D01*
X177782142Y-113022142D02*
X177925000Y-113093571D01*
X178282142Y-113093571D01*
X178425000Y-113022142D01*
X178496428Y-112879285D01*
X178496428Y-112736428D01*
X178425000Y-112593571D01*
X178282142Y-112522142D01*
X177925000Y-112522142D01*
X177782142Y-112450714D01*
X181782142Y-114008571D02*
X180925000Y-114008571D01*
X181353571Y-115508571D02*
X181353571Y-114008571D01*
X180210714Y-115508571D02*
X180353571Y-115437142D01*
X180425000Y-115365714D01*
X180496428Y-115222857D01*
X180496428Y-114794285D01*
X180425000Y-114651428D01*
X180353571Y-114580000D01*
X180210714Y-114508571D01*
X179996428Y-114508571D01*
X179853571Y-114580000D01*
X179782142Y-114651428D01*
X179710714Y-114794285D01*
X179710714Y-115222857D01*
X179782142Y-115365714D01*
X179853571Y-115437142D01*
X179996428Y-115508571D01*
X180210714Y-115508571D01*
X179067857Y-115508571D02*
X179067857Y-114508571D01*
X179067857Y-114651428D02*
X178996428Y-114580000D01*
X178853571Y-114508571D01*
X178639285Y-114508571D01*
X178496428Y-114580000D01*
X178425000Y-114722857D01*
X178425000Y-115508571D01*
X178425000Y-114722857D02*
X178353571Y-114580000D01*
X178210714Y-114508571D01*
X177996428Y-114508571D01*
X177853571Y-114580000D01*
X177782142Y-114722857D01*
X177782142Y-115508571D01*
X177067857Y-115508571D02*
X177067857Y-114508571D01*
X177067857Y-114651428D02*
X176996428Y-114580000D01*
X176853571Y-114508571D01*
X176639285Y-114508571D01*
X176496428Y-114580000D01*
X176425000Y-114722857D01*
X176425000Y-115508571D01*
X176425000Y-114722857D02*
X176353571Y-114580000D01*
X176210714Y-114508571D01*
X175996428Y-114508571D01*
X175853571Y-114580000D01*
X175782142Y-114722857D01*
X175782142Y-115508571D01*
X174425000Y-115508571D02*
X174425000Y-114722857D01*
X174496428Y-114580000D01*
X174639285Y-114508571D01*
X174925000Y-114508571D01*
X175067857Y-114580000D01*
X174425000Y-115437142D02*
X174567857Y-115508571D01*
X174925000Y-115508571D01*
X175067857Y-115437142D01*
X175139285Y-115294285D01*
X175139285Y-115151428D01*
X175067857Y-115008571D01*
X174925000Y-114937142D01*
X174567857Y-114937142D01*
X174425000Y-114865714D01*
X173782142Y-115437142D02*
X173639285Y-115508571D01*
X173353571Y-115508571D01*
X173210714Y-115437142D01*
X173139285Y-115294285D01*
X173139285Y-115222857D01*
X173210714Y-115080000D01*
X173353571Y-115008571D01*
X173567857Y-115008571D01*
X173710714Y-114937142D01*
X173782142Y-114794285D01*
X173782142Y-114722857D01*
X173710714Y-114580000D01*
X173567857Y-114508571D01*
X173353571Y-114508571D01*
X173210714Y-114580000D01*
X172282142Y-115508571D02*
X172425000Y-115437142D01*
X172496428Y-115365714D01*
X172567857Y-115222857D01*
X172567857Y-114794285D01*
X172496428Y-114651428D01*
X172425000Y-114580000D01*
X172282142Y-114508571D01*
X172067857Y-114508571D01*
X171925000Y-114580000D01*
X171853571Y-114651428D01*
X171782142Y-114794285D01*
X171782142Y-115222857D01*
X171853571Y-115365714D01*
X171925000Y-115437142D01*
X172067857Y-115508571D01*
X172282142Y-115508571D01*
X181639285Y-117852142D02*
X181425000Y-117923571D01*
X181067857Y-117923571D01*
X180925000Y-117852142D01*
X180853571Y-117780714D01*
X180782142Y-117637857D01*
X180782142Y-117495000D01*
X180853571Y-117352142D01*
X180925000Y-117280714D01*
X181067857Y-117209285D01*
X181353571Y-117137857D01*
X181496428Y-117066428D01*
X181567857Y-116995000D01*
X181639285Y-116852142D01*
X181639285Y-116709285D01*
X181567857Y-116566428D01*
X181496428Y-116495000D01*
X181353571Y-116423571D01*
X180996428Y-116423571D01*
X180782142Y-116495000D01*
X180139285Y-117923571D02*
X180139285Y-116923571D01*
X180139285Y-116423571D02*
X180210714Y-116495000D01*
X180139285Y-116566428D01*
X180067857Y-116495000D01*
X180139285Y-116423571D01*
X180139285Y-116566428D01*
X179425000Y-117923571D02*
X179425000Y-116923571D01*
X179425000Y-117066428D02*
X179353571Y-116995000D01*
X179210714Y-116923571D01*
X178996428Y-116923571D01*
X178853571Y-116995000D01*
X178782142Y-117137857D01*
X178782142Y-117923571D01*
X178782142Y-117137857D02*
X178710714Y-116995000D01*
X178567857Y-116923571D01*
X178353571Y-116923571D01*
X178210714Y-116995000D01*
X178139285Y-117137857D01*
X178139285Y-117923571D01*
X177210714Y-117923571D02*
X177353571Y-117852142D01*
X177425000Y-117780714D01*
X177496428Y-117637857D01*
X177496428Y-117209285D01*
X177425000Y-117066428D01*
X177353571Y-116995000D01*
X177210714Y-116923571D01*
X176996428Y-116923571D01*
X176853571Y-116995000D01*
X176782142Y-117066428D01*
X176710714Y-117209285D01*
X176710714Y-117637857D01*
X176782142Y-117780714D01*
X176853571Y-117852142D01*
X176996428Y-117923571D01*
X177210714Y-117923571D01*
X176067857Y-116923571D02*
X176067857Y-117923571D01*
X176067857Y-117066428D02*
X175996428Y-116995000D01*
X175853571Y-116923571D01*
X175639285Y-116923571D01*
X175496428Y-116995000D01*
X175425000Y-117137857D01*
X175425000Y-117923571D01*
X174139285Y-117852142D02*
X174282142Y-117923571D01*
X174567857Y-117923571D01*
X174710714Y-117852142D01*
X174782142Y-117709285D01*
X174782142Y-117137857D01*
X174710714Y-116995000D01*
X174567857Y-116923571D01*
X174282142Y-116923571D01*
X174139285Y-116995000D01*
X174067857Y-117137857D01*
X174067857Y-117280714D01*
X174782142Y-117423571D01*
X180782142Y-118910000D02*
X180925000Y-118838571D01*
X181139285Y-118838571D01*
X181353571Y-118910000D01*
X181496428Y-119052857D01*
X181567857Y-119195714D01*
X181639285Y-119481428D01*
X181639285Y-119695714D01*
X181567857Y-119981428D01*
X181496428Y-120124285D01*
X181353571Y-120267142D01*
X181139285Y-120338571D01*
X180996428Y-120338571D01*
X180782142Y-120267142D01*
X180710714Y-120195714D01*
X180710714Y-119695714D01*
X180996428Y-119695714D01*
X179425000Y-120338571D02*
X179425000Y-119552857D01*
X179496428Y-119410000D01*
X179639285Y-119338571D01*
X179925000Y-119338571D01*
X180067857Y-119410000D01*
X179425000Y-120267142D02*
X179567857Y-120338571D01*
X179925000Y-120338571D01*
X180067857Y-120267142D01*
X180139285Y-120124285D01*
X180139285Y-119981428D01*
X180067857Y-119838571D01*
X179925000Y-119767142D01*
X179567857Y-119767142D01*
X179425000Y-119695714D01*
X178710714Y-120338571D02*
X178710714Y-118838571D01*
X178710714Y-119410000D02*
X178567857Y-119338571D01*
X178282142Y-119338571D01*
X178139285Y-119410000D01*
X178067857Y-119481428D01*
X177996428Y-119624285D01*
X177996428Y-120052857D01*
X178067857Y-120195714D01*
X178139285Y-120267142D01*
X178282142Y-120338571D01*
X178567857Y-120338571D01*
X178710714Y-120267142D01*
X177353571Y-120338571D02*
X177353571Y-119338571D01*
X177353571Y-119624285D02*
X177282142Y-119481428D01*
X177210714Y-119410000D01*
X177067857Y-119338571D01*
X176925000Y-119338571D01*
X176425000Y-120338571D02*
X176425000Y-119338571D01*
X176425000Y-118838571D02*
X176496428Y-118910000D01*
X176425000Y-118981428D01*
X176353571Y-118910000D01*
X176425000Y-118838571D01*
X176425000Y-118981428D01*
X175139285Y-120267142D02*
X175282142Y-120338571D01*
X175567857Y-120338571D01*
X175710714Y-120267142D01*
X175782142Y-120124285D01*
X175782142Y-119552857D01*
X175710714Y-119410000D01*
X175567857Y-119338571D01*
X175282142Y-119338571D01*
X175139285Y-119410000D01*
X175067857Y-119552857D01*
X175067857Y-119695714D01*
X175782142Y-119838571D01*
X174210714Y-120338571D02*
X174353571Y-120267142D01*
X174425000Y-120124285D01*
X174425000Y-118838571D01*
X173067857Y-120267142D02*
X173210714Y-120338571D01*
X173496428Y-120338571D01*
X173639285Y-120267142D01*
X173710714Y-120124285D01*
X173710714Y-119552857D01*
X173639285Y-119410000D01*
X173496428Y-119338571D01*
X173210714Y-119338571D01*
X173067857Y-119410000D01*
X172996428Y-119552857D01*
X172996428Y-119695714D01*
X173710714Y-119838571D01*
X155829285Y-109571428D02*
X155757857Y-109500000D01*
X155615000Y-109428571D01*
X155257857Y-109428571D01*
X155115000Y-109500000D01*
X155043571Y-109571428D01*
X154972142Y-109714285D01*
X154972142Y-109857142D01*
X155043571Y-110071428D01*
X155900714Y-110928571D01*
X154972142Y-110928571D01*
X154043571Y-109428571D02*
X153900714Y-109428571D01*
X153757857Y-109500000D01*
X153686428Y-109571428D01*
X153615000Y-109714285D01*
X153543571Y-110000000D01*
X153543571Y-110357142D01*
X153615000Y-110642857D01*
X153686428Y-110785714D01*
X153757857Y-110857142D01*
X153900714Y-110928571D01*
X154043571Y-110928571D01*
X154186428Y-110857142D01*
X154257857Y-110785714D01*
X154329285Y-110642857D01*
X154400714Y-110357142D01*
X154400714Y-110000000D01*
X154329285Y-109714285D01*
X154257857Y-109571428D01*
X154186428Y-109500000D01*
X154043571Y-109428571D01*
X152829285Y-110928571D02*
X152543571Y-110928571D01*
X152400714Y-110857142D01*
X152329285Y-110785714D01*
X152186428Y-110571428D01*
X152115000Y-110285714D01*
X152115000Y-109714285D01*
X152186428Y-109571428D01*
X152257857Y-109500000D01*
X152400714Y-109428571D01*
X152686428Y-109428571D01*
X152829285Y-109500000D01*
X152900714Y-109571428D01*
X152972142Y-109714285D01*
X152972142Y-110071428D01*
X152900714Y-110214285D01*
X152829285Y-110285714D01*
X152686428Y-110357142D01*
X152400714Y-110357142D01*
X152257857Y-110285714D01*
X152186428Y-110214285D01*
X152115000Y-110071428D01*
X150829285Y-109928571D02*
X150829285Y-110928571D01*
X151186428Y-109357142D02*
X151543571Y-110428571D01*
X150615000Y-110428571D01*
X149400714Y-109928571D02*
X149400714Y-110928571D01*
X149757857Y-109357142D02*
X150115000Y-110428571D01*
X149186428Y-110428571D01*
X147900714Y-109428571D02*
X148615000Y-109428571D01*
X148686428Y-110142857D01*
X148615000Y-110071428D01*
X148472142Y-110000000D01*
X148115000Y-110000000D01*
X147972142Y-110071428D01*
X147900714Y-110142857D01*
X147829285Y-110285714D01*
X147829285Y-110642857D01*
X147900714Y-110785714D01*
X147972142Y-110857142D01*
X148115000Y-110928571D01*
X148472142Y-110928571D01*
X148615000Y-110857142D01*
X148686428Y-110785714D01*
X155829285Y-111986428D02*
X155757857Y-111915000D01*
X155615000Y-111843571D01*
X155257857Y-111843571D01*
X155115000Y-111915000D01*
X155043571Y-111986428D01*
X154972142Y-112129285D01*
X154972142Y-112272142D01*
X155043571Y-112486428D01*
X155900714Y-113343571D01*
X154972142Y-113343571D01*
X154043571Y-111843571D02*
X153900714Y-111843571D01*
X153757857Y-111915000D01*
X153686428Y-111986428D01*
X153615000Y-112129285D01*
X153543571Y-112415000D01*
X153543571Y-112772142D01*
X153615000Y-113057857D01*
X153686428Y-113200714D01*
X153757857Y-113272142D01*
X153900714Y-113343571D01*
X154043571Y-113343571D01*
X154186428Y-113272142D01*
X154257857Y-113200714D01*
X154329285Y-113057857D01*
X154400714Y-112772142D01*
X154400714Y-112415000D01*
X154329285Y-112129285D01*
X154257857Y-111986428D01*
X154186428Y-111915000D01*
X154043571Y-111843571D01*
X152829285Y-113343571D02*
X152543571Y-113343571D01*
X152400714Y-113272142D01*
X152329285Y-113200714D01*
X152186428Y-112986428D01*
X152115000Y-112700714D01*
X152115000Y-112129285D01*
X152186428Y-111986428D01*
X152257857Y-111915000D01*
X152400714Y-111843571D01*
X152686428Y-111843571D01*
X152829285Y-111915000D01*
X152900714Y-111986428D01*
X152972142Y-112129285D01*
X152972142Y-112486428D01*
X152900714Y-112629285D01*
X152829285Y-112700714D01*
X152686428Y-112772142D01*
X152400714Y-112772142D01*
X152257857Y-112700714D01*
X152186428Y-112629285D01*
X152115000Y-112486428D01*
X151615000Y-111843571D02*
X150686428Y-111843571D01*
X151186428Y-112415000D01*
X150972142Y-112415000D01*
X150829285Y-112486428D01*
X150757857Y-112557857D01*
X150686428Y-112700714D01*
X150686428Y-113057857D01*
X150757857Y-113200714D01*
X150829285Y-113272142D01*
X150972142Y-113343571D01*
X151400714Y-113343571D01*
X151543571Y-113272142D01*
X151615000Y-113200714D01*
X149829285Y-112486428D02*
X149972142Y-112415000D01*
X150043571Y-112343571D01*
X150115000Y-112200714D01*
X150115000Y-112129285D01*
X150043571Y-111986428D01*
X149972142Y-111915000D01*
X149829285Y-111843571D01*
X149543571Y-111843571D01*
X149400714Y-111915000D01*
X149329285Y-111986428D01*
X149257857Y-112129285D01*
X149257857Y-112200714D01*
X149329285Y-112343571D01*
X149400714Y-112415000D01*
X149543571Y-112486428D01*
X149829285Y-112486428D01*
X149972142Y-112557857D01*
X150043571Y-112629285D01*
X150115000Y-112772142D01*
X150115000Y-113057857D01*
X150043571Y-113200714D01*
X149972142Y-113272142D01*
X149829285Y-113343571D01*
X149543571Y-113343571D01*
X149400714Y-113272142D01*
X149329285Y-113200714D01*
X149257857Y-113057857D01*
X149257857Y-112772142D01*
X149329285Y-112629285D01*
X149400714Y-112557857D01*
X149543571Y-112486428D01*
X147972142Y-111843571D02*
X148257857Y-111843571D01*
X148400714Y-111915000D01*
X148472142Y-111986428D01*
X148615000Y-112200714D01*
X148686428Y-112486428D01*
X148686428Y-113057857D01*
X148615000Y-113200714D01*
X148543571Y-113272142D01*
X148400714Y-113343571D01*
X148115000Y-113343571D01*
X147972142Y-113272142D01*
X147900714Y-113200714D01*
X147829285Y-113057857D01*
X147829285Y-112700714D01*
X147900714Y-112557857D01*
X147972142Y-112486428D01*
X148115000Y-112415000D01*
X148400714Y-112415000D01*
X148543571Y-112486428D01*
X148615000Y-112557857D01*
X148686428Y-112700714D01*
X155829285Y-114401428D02*
X155757857Y-114330000D01*
X155615000Y-114258571D01*
X155257857Y-114258571D01*
X155115000Y-114330000D01*
X155043571Y-114401428D01*
X154972142Y-114544285D01*
X154972142Y-114687142D01*
X155043571Y-114901428D01*
X155900714Y-115758571D01*
X154972142Y-115758571D01*
X154043571Y-114258571D02*
X153900714Y-114258571D01*
X153757857Y-114330000D01*
X153686428Y-114401428D01*
X153615000Y-114544285D01*
X153543571Y-114830000D01*
X153543571Y-115187142D01*
X153615000Y-115472857D01*
X153686428Y-115615714D01*
X153757857Y-115687142D01*
X153900714Y-115758571D01*
X154043571Y-115758571D01*
X154186428Y-115687142D01*
X154257857Y-115615714D01*
X154329285Y-115472857D01*
X154400714Y-115187142D01*
X154400714Y-114830000D01*
X154329285Y-114544285D01*
X154257857Y-114401428D01*
X154186428Y-114330000D01*
X154043571Y-114258571D01*
X152829285Y-115758571D02*
X152543571Y-115758571D01*
X152400714Y-115687142D01*
X152329285Y-115615714D01*
X152186428Y-115401428D01*
X152115000Y-115115714D01*
X152115000Y-114544285D01*
X152186428Y-114401428D01*
X152257857Y-114330000D01*
X152400714Y-114258571D01*
X152686428Y-114258571D01*
X152829285Y-114330000D01*
X152900714Y-114401428D01*
X152972142Y-114544285D01*
X152972142Y-114901428D01*
X152900714Y-115044285D01*
X152829285Y-115115714D01*
X152686428Y-115187142D01*
X152400714Y-115187142D01*
X152257857Y-115115714D01*
X152186428Y-115044285D01*
X152115000Y-114901428D01*
X151543571Y-114401428D02*
X151472142Y-114330000D01*
X151329285Y-114258571D01*
X150972142Y-114258571D01*
X150829285Y-114330000D01*
X150757857Y-114401428D01*
X150686428Y-114544285D01*
X150686428Y-114687142D01*
X150757857Y-114901428D01*
X151615000Y-115758571D01*
X150686428Y-115758571D01*
X150186428Y-114258571D02*
X149186428Y-114258571D01*
X149829285Y-115758571D01*
X148329285Y-114258571D02*
X148186428Y-114258571D01*
X148043571Y-114330000D01*
X147972142Y-114401428D01*
X147900714Y-114544285D01*
X147829285Y-114830000D01*
X147829285Y-115187142D01*
X147900714Y-115472857D01*
X147972142Y-115615714D01*
X148043571Y-115687142D01*
X148186428Y-115758571D01*
X148329285Y-115758571D01*
X148472142Y-115687142D01*
X148543571Y-115615714D01*
X148615000Y-115472857D01*
X148686428Y-115187142D01*
X148686428Y-114830000D01*
X148615000Y-114544285D01*
X148543571Y-114401428D01*
X148472142Y-114330000D01*
X148329285Y-114258571D01*
X155829285Y-116816428D02*
X155757857Y-116745000D01*
X155615000Y-116673571D01*
X155257857Y-116673571D01*
X155115000Y-116745000D01*
X155043571Y-116816428D01*
X154972142Y-116959285D01*
X154972142Y-117102142D01*
X155043571Y-117316428D01*
X155900714Y-118173571D01*
X154972142Y-118173571D01*
X154043571Y-116673571D02*
X153900714Y-116673571D01*
X153757857Y-116745000D01*
X153686428Y-116816428D01*
X153615000Y-116959285D01*
X153543571Y-117245000D01*
X153543571Y-117602142D01*
X153615000Y-117887857D01*
X153686428Y-118030714D01*
X153757857Y-118102142D01*
X153900714Y-118173571D01*
X154043571Y-118173571D01*
X154186428Y-118102142D01*
X154257857Y-118030714D01*
X154329285Y-117887857D01*
X154400714Y-117602142D01*
X154400714Y-117245000D01*
X154329285Y-116959285D01*
X154257857Y-116816428D01*
X154186428Y-116745000D01*
X154043571Y-116673571D01*
X152829285Y-118173571D02*
X152543571Y-118173571D01*
X152400714Y-118102142D01*
X152329285Y-118030714D01*
X152186428Y-117816428D01*
X152115000Y-117530714D01*
X152115000Y-116959285D01*
X152186428Y-116816428D01*
X152257857Y-116745000D01*
X152400714Y-116673571D01*
X152686428Y-116673571D01*
X152829285Y-116745000D01*
X152900714Y-116816428D01*
X152972142Y-116959285D01*
X152972142Y-117316428D01*
X152900714Y-117459285D01*
X152829285Y-117530714D01*
X152686428Y-117602142D01*
X152400714Y-117602142D01*
X152257857Y-117530714D01*
X152186428Y-117459285D01*
X152115000Y-117316428D01*
X151186428Y-116673571D02*
X151043571Y-116673571D01*
X150900714Y-116745000D01*
X150829285Y-116816428D01*
X150757857Y-116959285D01*
X150686428Y-117245000D01*
X150686428Y-117602142D01*
X150757857Y-117887857D01*
X150829285Y-118030714D01*
X150900714Y-118102142D01*
X151043571Y-118173571D01*
X151186428Y-118173571D01*
X151329285Y-118102142D01*
X151400714Y-118030714D01*
X151472142Y-117887857D01*
X151543571Y-117602142D01*
X151543571Y-117245000D01*
X151472142Y-116959285D01*
X151400714Y-116816428D01*
X151329285Y-116745000D01*
X151186428Y-116673571D01*
X149757857Y-116673571D02*
X149615000Y-116673571D01*
X149472142Y-116745000D01*
X149400714Y-116816428D01*
X149329285Y-116959285D01*
X149257857Y-117245000D01*
X149257857Y-117602142D01*
X149329285Y-117887857D01*
X149400714Y-118030714D01*
X149472142Y-118102142D01*
X149615000Y-118173571D01*
X149757857Y-118173571D01*
X149900714Y-118102142D01*
X149972142Y-118030714D01*
X150043571Y-117887857D01*
X150115000Y-117602142D01*
X150115000Y-117245000D01*
X150043571Y-116959285D01*
X149972142Y-116816428D01*
X149900714Y-116745000D01*
X149757857Y-116673571D01*
X148686428Y-116816428D02*
X148615000Y-116745000D01*
X148472142Y-116673571D01*
X148115000Y-116673571D01*
X147972142Y-116745000D01*
X147900714Y-116816428D01*
X147829285Y-116959285D01*
X147829285Y-117102142D01*
X147900714Y-117316428D01*
X148757857Y-118173571D01*
X147829285Y-118173571D01*
X155829285Y-119231428D02*
X155757857Y-119160000D01*
X155615000Y-119088571D01*
X155257857Y-119088571D01*
X155115000Y-119160000D01*
X155043571Y-119231428D01*
X154972142Y-119374285D01*
X154972142Y-119517142D01*
X155043571Y-119731428D01*
X155900714Y-120588571D01*
X154972142Y-120588571D01*
X154043571Y-119088571D02*
X153900714Y-119088571D01*
X153757857Y-119160000D01*
X153686428Y-119231428D01*
X153615000Y-119374285D01*
X153543571Y-119660000D01*
X153543571Y-120017142D01*
X153615000Y-120302857D01*
X153686428Y-120445714D01*
X153757857Y-120517142D01*
X153900714Y-120588571D01*
X154043571Y-120588571D01*
X154186428Y-120517142D01*
X154257857Y-120445714D01*
X154329285Y-120302857D01*
X154400714Y-120017142D01*
X154400714Y-119660000D01*
X154329285Y-119374285D01*
X154257857Y-119231428D01*
X154186428Y-119160000D01*
X154043571Y-119088571D01*
X152829285Y-120588571D02*
X152543571Y-120588571D01*
X152400714Y-120517142D01*
X152329285Y-120445714D01*
X152186428Y-120231428D01*
X152115000Y-119945714D01*
X152115000Y-119374285D01*
X152186428Y-119231428D01*
X152257857Y-119160000D01*
X152400714Y-119088571D01*
X152686428Y-119088571D01*
X152829285Y-119160000D01*
X152900714Y-119231428D01*
X152972142Y-119374285D01*
X152972142Y-119731428D01*
X152900714Y-119874285D01*
X152829285Y-119945714D01*
X152686428Y-120017142D01*
X152400714Y-120017142D01*
X152257857Y-119945714D01*
X152186428Y-119874285D01*
X152115000Y-119731428D01*
X150829285Y-119588571D02*
X150829285Y-120588571D01*
X151186428Y-119017142D02*
X151543571Y-120088571D01*
X150615000Y-120088571D01*
X149400714Y-119088571D02*
X149686428Y-119088571D01*
X149829285Y-119160000D01*
X149900714Y-119231428D01*
X150043571Y-119445714D01*
X150115000Y-119731428D01*
X150115000Y-120302857D01*
X150043571Y-120445714D01*
X149972142Y-120517142D01*
X149829285Y-120588571D01*
X149543571Y-120588571D01*
X149400714Y-120517142D01*
X149329285Y-120445714D01*
X149257857Y-120302857D01*
X149257857Y-119945714D01*
X149329285Y-119802857D01*
X149400714Y-119731428D01*
X149543571Y-119660000D01*
X149829285Y-119660000D01*
X149972142Y-119731428D01*
X150043571Y-119802857D01*
X150115000Y-119945714D01*
X147972142Y-119088571D02*
X148257857Y-119088571D01*
X148400714Y-119160000D01*
X148472142Y-119231428D01*
X148615000Y-119445714D01*
X148686428Y-119731428D01*
X148686428Y-120302857D01*
X148615000Y-120445714D01*
X148543571Y-120517142D01*
X148400714Y-120588571D01*
X148115000Y-120588571D01*
X147972142Y-120517142D01*
X147900714Y-120445714D01*
X147829285Y-120302857D01*
X147829285Y-119945714D01*
X147900714Y-119802857D01*
X147972142Y-119731428D01*
X148115000Y-119660000D01*
X148400714Y-119660000D01*
X148543571Y-119731428D01*
X148615000Y-119802857D01*
X148686428Y-119945714D01*
D12*
X177214285Y-129602380D02*
X177785714Y-129602380D01*
X177500000Y-129602380D02*
X177500000Y-128602380D01*
X177595238Y-128745238D01*
X177690476Y-128840476D01*
X177785714Y-128888095D01*
X112814061Y-125002380D02*
X112814061Y-124002380D01*
X112147395Y-124002380D02*
X111956918Y-124002380D01*
X111861680Y-124050000D01*
X111766442Y-124145238D01*
X111718823Y-124335714D01*
X111718823Y-124669047D01*
X111766442Y-124859523D01*
X111861680Y-124954761D01*
X111956918Y-125002380D01*
X112147395Y-125002380D01*
X112242633Y-124954761D01*
X112337871Y-124859523D01*
X112385490Y-124669047D01*
X112385490Y-124335714D01*
X112337871Y-124145238D01*
X112242633Y-124050000D01*
X112147395Y-124002380D01*
X110861680Y-124335714D02*
X110861680Y-125002380D01*
X111099776Y-123954761D02*
X111337871Y-124669047D01*
X110718823Y-124669047D01*
X130669047Y-121402380D02*
X131240476Y-121402380D01*
X130954761Y-121402380D02*
X130954761Y-120402380D01*
X131050000Y-120545238D01*
X131145238Y-120640476D01*
X131240476Y-120688095D01*
X130288095Y-120497619D02*
X130240476Y-120450000D01*
X130145238Y-120402380D01*
X129907142Y-120402380D01*
X129811904Y-120450000D01*
X129764285Y-120497619D01*
X129716666Y-120592857D01*
X129716666Y-120688095D01*
X129764285Y-120830952D01*
X130335714Y-121402380D01*
X129716666Y-121402380D01*
X129430952Y-120402380D02*
X129097619Y-121402380D01*
X128764285Y-120402380D01*
X101409404Y-119221428D02*
X100647500Y-119221428D01*
X101028452Y-119602380D02*
X101028452Y-118840476D01*
X99647500Y-119602380D02*
X100218928Y-119602380D01*
X99933214Y-119602380D02*
X99933214Y-118602380D01*
X100028452Y-118745238D01*
X100123690Y-118840476D01*
X100218928Y-118888095D01*
X99266547Y-118697619D02*
X99218928Y-118650000D01*
X99123690Y-118602380D01*
X98885595Y-118602380D01*
X98790357Y-118650000D01*
X98742738Y-118697619D01*
X98695119Y-118792857D01*
X98695119Y-118888095D01*
X98742738Y-119030952D01*
X99314166Y-119602380D01*
X98695119Y-119602380D01*
X98409404Y-118602380D02*
X98076071Y-119602380D01*
X97742738Y-118602380D01*
X105785252Y-127102380D02*
X105785252Y-126102380D01*
X105118585Y-126102380D02*
X104928109Y-126102380D01*
X104832871Y-126150000D01*
X104737633Y-126245238D01*
X104690014Y-126435714D01*
X104690014Y-126769047D01*
X104737633Y-126959523D01*
X104832871Y-127054761D01*
X104928109Y-127102380D01*
X105118585Y-127102380D01*
X105213823Y-127054761D01*
X105309061Y-126959523D01*
X105356680Y-126769047D01*
X105356680Y-126435714D01*
X105309061Y-126245238D01*
X105213823Y-126150000D01*
X105118585Y-126102380D01*
X103737633Y-127102380D02*
X104309061Y-127102380D01*
X104023347Y-127102380D02*
X104023347Y-126102380D01*
X104118585Y-126245238D01*
X104213823Y-126340476D01*
X104309061Y-126388095D01*
X112861680Y-122766666D02*
X112385490Y-122766666D01*
X112956918Y-123052380D02*
X112623585Y-122052380D01*
X112290252Y-123052380D01*
X111956918Y-123052380D02*
X111956918Y-122052380D01*
X111718823Y-122052380D01*
X111575966Y-122100000D01*
X111480728Y-122195238D01*
X111433109Y-122290476D01*
X111385490Y-122480952D01*
X111385490Y-122623809D01*
X111433109Y-122814285D01*
X111480728Y-122909523D01*
X111575966Y-123004761D01*
X111718823Y-123052380D01*
X111956918Y-123052380D01*
X110385490Y-122957142D02*
X110433109Y-123004761D01*
X110575966Y-123052380D01*
X110671204Y-123052380D01*
X110814061Y-123004761D01*
X110909299Y-122909523D01*
X110956918Y-122814285D01*
X111004537Y-122623809D01*
X111004537Y-122480952D01*
X110956918Y-122290476D01*
X110909299Y-122195238D01*
X110814061Y-122100000D01*
X110671204Y-122052380D01*
X110575966Y-122052380D01*
X110433109Y-122100000D01*
X110385490Y-122147619D01*
X109433109Y-123052380D02*
X110004537Y-123052380D01*
X109718823Y-123052380D02*
X109718823Y-122052380D01*
X109814061Y-122195238D01*
X109909299Y-122290476D01*
X110004537Y-122338095D01*
X101595238Y-80162023D02*
X101547619Y-80019166D01*
X101547619Y-79781071D01*
X101595238Y-79685833D01*
X101642857Y-79638214D01*
X101738095Y-79590595D01*
X101833333Y-79590595D01*
X101928571Y-79638214D01*
X101976190Y-79685833D01*
X102023809Y-79781071D01*
X102071428Y-79971547D01*
X102119047Y-80066785D01*
X102166666Y-80114404D01*
X102261904Y-80162023D01*
X102357142Y-80162023D01*
X102452380Y-80114404D01*
X102500000Y-80066785D01*
X102547619Y-79971547D01*
X102547619Y-79733452D01*
X102500000Y-79590595D01*
X101642857Y-78590595D02*
X101595238Y-78638214D01*
X101547619Y-78781071D01*
X101547619Y-78876309D01*
X101595238Y-79019166D01*
X101690476Y-79114404D01*
X101785714Y-79162023D01*
X101976190Y-79209642D01*
X102119047Y-79209642D01*
X102309523Y-79162023D01*
X102404761Y-79114404D01*
X102500000Y-79019166D01*
X102547619Y-78876309D01*
X102547619Y-78781071D01*
X102500000Y-78638214D01*
X102452380Y-78590595D01*
X101547619Y-77685833D02*
X101547619Y-78162023D01*
X102547619Y-78162023D01*
X167833333Y-128602380D02*
X167500000Y-129602380D01*
X167166666Y-128602380D01*
X112814061Y-127002380D02*
X112814061Y-126002380D01*
X112147395Y-126002380D02*
X111956918Y-126002380D01*
X111861680Y-126050000D01*
X111766442Y-126145238D01*
X111718823Y-126335714D01*
X111718823Y-126669047D01*
X111766442Y-126859523D01*
X111861680Y-126954761D01*
X111956918Y-127002380D01*
X112147395Y-127002380D01*
X112242633Y-126954761D01*
X112337871Y-126859523D01*
X112385490Y-126669047D01*
X112385490Y-126335714D01*
X112337871Y-126145238D01*
X112242633Y-126050000D01*
X112147395Y-126002380D01*
X111385490Y-126002380D02*
X110766442Y-126002380D01*
X111099776Y-126383333D01*
X110956918Y-126383333D01*
X110861680Y-126430952D01*
X110814061Y-126478571D01*
X110766442Y-126573809D01*
X110766442Y-126811904D01*
X110814061Y-126907142D01*
X110861680Y-126954761D01*
X110956918Y-127002380D01*
X111242633Y-127002380D01*
X111337871Y-126954761D01*
X111385490Y-126907142D01*
X156897619Y-92242976D02*
X157373809Y-92576309D01*
X156897619Y-92814404D02*
X157897619Y-92814404D01*
X157897619Y-92433452D01*
X157850000Y-92338214D01*
X157802380Y-92290595D01*
X157707142Y-92242976D01*
X157564285Y-92242976D01*
X157469047Y-92290595D01*
X157421428Y-92338214D01*
X157373809Y-92433452D01*
X157373809Y-92814404D01*
X157897619Y-91909642D02*
X156897619Y-91242976D01*
X157897619Y-91242976D02*
X156897619Y-91909642D01*
X158940476Y-132602380D02*
X158940476Y-131602380D01*
X158607142Y-132316666D01*
X158273809Y-131602380D01*
X158273809Y-132602380D01*
X157654761Y-132602380D02*
X157750000Y-132554761D01*
X157797619Y-132507142D01*
X157845238Y-132411904D01*
X157845238Y-132126190D01*
X157797619Y-132030952D01*
X157750000Y-131983333D01*
X157654761Y-131935714D01*
X157511904Y-131935714D01*
X157416666Y-131983333D01*
X157369047Y-132030952D01*
X157321428Y-132126190D01*
X157321428Y-132411904D01*
X157369047Y-132507142D01*
X157416666Y-132554761D01*
X157511904Y-132602380D01*
X157654761Y-132602380D01*
X157035714Y-131935714D02*
X156654761Y-131935714D01*
X156892857Y-131602380D02*
X156892857Y-132459523D01*
X156845238Y-132554761D01*
X156750000Y-132602380D01*
X156654761Y-132602380D01*
X156178571Y-132602380D02*
X156273809Y-132554761D01*
X156321428Y-132507142D01*
X156369047Y-132411904D01*
X156369047Y-132126190D01*
X156321428Y-132030952D01*
X156273809Y-131983333D01*
X156178571Y-131935714D01*
X156035714Y-131935714D01*
X155940476Y-131983333D01*
X155892857Y-132030952D01*
X155845238Y-132126190D01*
X155845238Y-132411904D01*
X155892857Y-132507142D01*
X155940476Y-132554761D01*
X156035714Y-132602380D01*
X156178571Y-132602380D01*
X155416666Y-132602380D02*
X155416666Y-131935714D01*
X155416666Y-132126190D02*
X155369047Y-132030952D01*
X155321428Y-131983333D01*
X155226190Y-131935714D01*
X155130952Y-131935714D01*
X153511904Y-132602380D02*
X154083333Y-132602380D01*
X153797619Y-132602380D02*
X153797619Y-131602380D01*
X153892857Y-131745238D01*
X153988095Y-131840476D01*
X154083333Y-131888095D01*
X106166204Y-123004761D02*
X106023347Y-123052380D01*
X105785252Y-123052380D01*
X105690014Y-123004761D01*
X105642395Y-122957142D01*
X105594776Y-122861904D01*
X105594776Y-122766666D01*
X105642395Y-122671428D01*
X105690014Y-122623809D01*
X105785252Y-122576190D01*
X105975728Y-122528571D01*
X106070966Y-122480952D01*
X106118585Y-122433333D01*
X106166204Y-122338095D01*
X106166204Y-122242857D01*
X106118585Y-122147619D01*
X106070966Y-122100000D01*
X105975728Y-122052380D01*
X105737633Y-122052380D01*
X105594776Y-122100000D01*
X105166204Y-123052380D02*
X105166204Y-122052380D01*
X104928109Y-122052380D01*
X104785252Y-122100000D01*
X104690014Y-122195238D01*
X104642395Y-122290476D01*
X104594776Y-122480952D01*
X104594776Y-122623809D01*
X104642395Y-122814285D01*
X104690014Y-122909523D01*
X104785252Y-123004761D01*
X104928109Y-123052380D01*
X105166204Y-123052380D01*
X104213823Y-122766666D02*
X103737633Y-122766666D01*
X104309061Y-123052380D02*
X103975728Y-122052380D01*
X103642395Y-123052380D01*
X126988095Y-111502380D02*
X126369047Y-111502380D01*
X126702380Y-111883333D01*
X126559523Y-111883333D01*
X126464285Y-111930952D01*
X126416666Y-111978571D01*
X126369047Y-112073809D01*
X126369047Y-112311904D01*
X126416666Y-112407142D01*
X126464285Y-112454761D01*
X126559523Y-112502380D01*
X126845238Y-112502380D01*
X126940476Y-112454761D01*
X126988095Y-112407142D01*
X126083333Y-111502380D02*
X125750000Y-112502380D01*
X125416666Y-111502380D01*
X125178571Y-111502380D02*
X124559523Y-111502380D01*
X124892857Y-111883333D01*
X124750000Y-111883333D01*
X124654761Y-111930952D01*
X124607142Y-111978571D01*
X124559523Y-112073809D01*
X124559523Y-112311904D01*
X124607142Y-112407142D01*
X124654761Y-112454761D01*
X124750000Y-112502380D01*
X125035714Y-112502380D01*
X125130952Y-112454761D01*
X125178571Y-112407142D01*
X169809523Y-128935714D02*
X169809523Y-129602380D01*
X170047619Y-128554761D02*
X170285714Y-129269047D01*
X169666666Y-129269047D01*
X175264285Y-92814404D02*
X174597619Y-92814404D01*
X175169047Y-92814404D02*
X175216666Y-92766785D01*
X175264285Y-92671547D01*
X175264285Y-92528690D01*
X175216666Y-92433452D01*
X175121428Y-92385833D01*
X174597619Y-92385833D01*
X174645238Y-91481071D02*
X174597619Y-91576309D01*
X174597619Y-91766785D01*
X174645238Y-91862023D01*
X174692857Y-91909642D01*
X174788095Y-91957261D01*
X175073809Y-91957261D01*
X175169047Y-91909642D01*
X175216666Y-91862023D01*
X175264285Y-91766785D01*
X175264285Y-91576309D01*
X175216666Y-91481071D01*
X160397619Y-92957261D02*
X160397619Y-92385833D01*
X159397619Y-92671547D02*
X160397619Y-92671547D01*
X160397619Y-92147738D02*
X159397619Y-91481071D01*
X160397619Y-91481071D02*
X159397619Y-92147738D01*
X140245238Y-93318928D02*
X140197619Y-93176071D01*
X140197619Y-92937976D01*
X140245238Y-92842738D01*
X140292857Y-92795119D01*
X140388095Y-92747500D01*
X140483333Y-92747500D01*
X140578571Y-92795119D01*
X140626190Y-92842738D01*
X140673809Y-92937976D01*
X140721428Y-93128452D01*
X140769047Y-93223690D01*
X140816666Y-93271309D01*
X140911904Y-93318928D01*
X141007142Y-93318928D01*
X141102380Y-93271309D01*
X141150000Y-93223690D01*
X141197619Y-93128452D01*
X141197619Y-92890357D01*
X141150000Y-92747500D01*
X140292857Y-91747500D02*
X140245238Y-91795119D01*
X140197619Y-91937976D01*
X140197619Y-92033214D01*
X140245238Y-92176071D01*
X140340476Y-92271309D01*
X140435714Y-92318928D01*
X140626190Y-92366547D01*
X140769047Y-92366547D01*
X140959523Y-92318928D01*
X141054761Y-92271309D01*
X141150000Y-92176071D01*
X141197619Y-92033214D01*
X141197619Y-91937976D01*
X141150000Y-91795119D01*
X141102380Y-91747500D01*
X140197619Y-90842738D02*
X140197619Y-91318928D01*
X141197619Y-91318928D01*
X107464285Y-80114404D02*
X106797619Y-80114404D01*
X107369047Y-80114404D02*
X107416666Y-80066785D01*
X107464285Y-79971547D01*
X107464285Y-79828690D01*
X107416666Y-79733452D01*
X107321428Y-79685833D01*
X106797619Y-79685833D01*
X106845238Y-78781071D02*
X106797619Y-78876309D01*
X106797619Y-79066785D01*
X106845238Y-79162023D01*
X106892857Y-79209642D01*
X106988095Y-79257261D01*
X107273809Y-79257261D01*
X107369047Y-79209642D01*
X107416666Y-79162023D01*
X107464285Y-79066785D01*
X107464285Y-78876309D01*
X107416666Y-78781071D01*
X135154400Y-82333214D02*
X135202019Y-82428452D01*
X135202019Y-82571309D01*
X135154400Y-82714166D01*
X135059161Y-82809404D01*
X134963923Y-82857023D01*
X134773447Y-82904642D01*
X134630590Y-82904642D01*
X134440114Y-82857023D01*
X134344876Y-82809404D01*
X134249638Y-82714166D01*
X134202019Y-82571309D01*
X134202019Y-82476071D01*
X134249638Y-82333214D01*
X134297257Y-82285595D01*
X134630590Y-82285595D01*
X134630590Y-82476071D01*
X134202019Y-81857023D02*
X135202019Y-81857023D01*
X134202019Y-81285595D01*
X135202019Y-81285595D01*
X134202019Y-80809404D02*
X135202019Y-80809404D01*
X135202019Y-80571309D01*
X135154400Y-80428452D01*
X135059161Y-80333214D01*
X134963923Y-80285595D01*
X134773447Y-80237976D01*
X134630590Y-80237976D01*
X134440114Y-80285595D01*
X134344876Y-80333214D01*
X134249638Y-80428452D01*
X134202019Y-80571309D01*
X134202019Y-80809404D01*
X123462023Y-125004761D02*
X123319166Y-125052380D01*
X123081071Y-125052380D01*
X122985833Y-125004761D01*
X122938214Y-124957142D01*
X122890595Y-124861904D01*
X122890595Y-124766666D01*
X122938214Y-124671428D01*
X122985833Y-124623809D01*
X123081071Y-124576190D01*
X123271547Y-124528571D01*
X123366785Y-124480952D01*
X123414404Y-124433333D01*
X123462023Y-124338095D01*
X123462023Y-124242857D01*
X123414404Y-124147619D01*
X123366785Y-124100000D01*
X123271547Y-124052380D01*
X123033452Y-124052380D01*
X122890595Y-124100000D01*
X122557261Y-124052380D02*
X122319166Y-125052380D01*
X122128690Y-124338095D01*
X121938214Y-125052380D01*
X121700119Y-124052380D01*
X121319166Y-125052380D02*
X121319166Y-124052380D01*
X121081071Y-124052380D01*
X120938214Y-124100000D01*
X120842976Y-124195238D01*
X120795357Y-124290476D01*
X120747738Y-124480952D01*
X120747738Y-124623809D01*
X120795357Y-124814285D01*
X120842976Y-124909523D01*
X120938214Y-125004761D01*
X121081071Y-125052380D01*
X121319166Y-125052380D01*
X120319166Y-125052380D02*
X120319166Y-124052380D01*
X119652500Y-124052380D02*
X119462023Y-124052380D01*
X119366785Y-124100000D01*
X119271547Y-124195238D01*
X119223928Y-124385714D01*
X119223928Y-124719047D01*
X119271547Y-124909523D01*
X119366785Y-125004761D01*
X119462023Y-125052380D01*
X119652500Y-125052380D01*
X119747738Y-125004761D01*
X119842976Y-124909523D01*
X119890595Y-124719047D01*
X119890595Y-124385714D01*
X119842976Y-124195238D01*
X119747738Y-124100000D01*
X119652500Y-124052380D01*
M02*
