%TF.GenerationSoftware,KiCad,Pcbnew,(6.0.4)*%
%TF.CreationDate,2022-04-13T22:44:02+02:00*%
%TF.ProjectId,PPSE_2021,50505345-5f32-4303-9231-2e6b69636164,rev?*%
%TF.SameCoordinates,Original*%
%TF.FileFunction,Paste,Top*%
%TF.FilePolarity,Positive*%
%FSLAX46Y46*%
G04 Gerber Fmt 4.6, Leading zero omitted, Abs format (unit mm)*
G04 Created by KiCad (PCBNEW (6.0.4)) date 2022-04-13 22:44:02*
%MOMM*%
%LPD*%
G01*
G04 APERTURE LIST*
G04 Aperture macros list*
%AMRoundRect*
0 Rectangle with rounded corners*
0 $1 Rounding radius*
0 $2 $3 $4 $5 $6 $7 $8 $9 X,Y pos of 4 corners*
0 Add a 4 corners polygon primitive as box body*
4,1,4,$2,$3,$4,$5,$6,$7,$8,$9,$2,$3,0*
0 Add four circle primitives for the rounded corners*
1,1,$1+$1,$2,$3*
1,1,$1+$1,$4,$5*
1,1,$1+$1,$6,$7*
1,1,$1+$1,$8,$9*
0 Add four rect primitives between the rounded corners*
20,1,$1+$1,$2,$3,$4,$5,0*
20,1,$1+$1,$4,$5,$6,$7,0*
20,1,$1+$1,$6,$7,$8,$9,0*
20,1,$1+$1,$8,$9,$2,$3,0*%
G04 Aperture macros list end*
%ADD10R,0.500000X0.500000*%
%ADD11RoundRect,0.250000X0.250000X0.475000X-0.250000X0.475000X-0.250000X-0.475000X0.250000X-0.475000X0*%
%ADD12R,1.800000X2.500000*%
%ADD13RoundRect,0.225000X0.225000X0.250000X-0.225000X0.250000X-0.225000X-0.250000X0.225000X-0.250000X0*%
%ADD14RoundRect,0.150000X0.587500X0.150000X-0.587500X0.150000X-0.587500X-0.150000X0.587500X-0.150000X0*%
%ADD15RoundRect,0.200000X-0.200000X-0.275000X0.200000X-0.275000X0.200000X0.275000X-0.200000X0.275000X0*%
%ADD16RoundRect,0.200000X0.200000X0.275000X-0.200000X0.275000X-0.200000X-0.275000X0.200000X-0.275000X0*%
%ADD17RoundRect,0.200000X-0.275000X0.200000X-0.275000X-0.200000X0.275000X-0.200000X0.275000X0.200000X0*%
%ADD18RoundRect,0.250000X0.475000X-0.250000X0.475000X0.250000X-0.475000X0.250000X-0.475000X-0.250000X0*%
%ADD19RoundRect,0.218750X0.256250X-0.218750X0.256250X0.218750X-0.256250X0.218750X-0.256250X-0.218750X0*%
%ADD20RoundRect,0.225000X-0.250000X0.225000X-0.250000X-0.225000X0.250000X-0.225000X0.250000X0.225000X0*%
%ADD21RoundRect,0.225000X-2.075000X0.525000X-2.075000X-0.525000X2.075000X-0.525000X2.075000X0.525000X0*%
%ADD22RoundRect,0.150000X0.512500X0.150000X-0.512500X0.150000X-0.512500X-0.150000X0.512500X-0.150000X0*%
%ADD23R,1.400000X1.200000*%
%ADD24RoundRect,0.275000X-0.275000X-0.450000X0.275000X-0.450000X0.275000X0.450000X-0.275000X0.450000X0*%
%ADD25RoundRect,0.200000X-0.200000X-0.200000X0.200000X-0.200000X0.200000X0.200000X-0.200000X0.200000X0*%
%ADD26R,2.500000X0.500000*%
%ADD27R,2.500000X2.000000*%
%ADD28R,1.500000X1.000000*%
%ADD29RoundRect,0.218750X-0.256250X0.218750X-0.256250X-0.218750X0.256250X-0.218750X0.256250X0.218750X0*%
%ADD30RoundRect,0.150000X-0.587500X-0.150000X0.587500X-0.150000X0.587500X0.150000X-0.587500X0.150000X0*%
%ADD31RoundRect,0.120000X0.880000X-0.280000X0.880000X0.280000X-0.880000X0.280000X-0.880000X-0.280000X0*%
%ADD32RoundRect,0.225000X-0.225000X-0.250000X0.225000X-0.250000X0.225000X0.250000X-0.225000X0.250000X0*%
%ADD33RoundRect,0.250000X-0.475000X0.250000X-0.475000X-0.250000X0.475000X-0.250000X0.475000X0.250000X0*%
%ADD34RoundRect,0.225000X0.250000X-0.225000X0.250000X0.225000X-0.250000X0.225000X-0.250000X-0.225000X0*%
%ADD35RoundRect,0.200000X0.275000X-0.200000X0.275000X0.200000X-0.275000X0.200000X-0.275000X-0.200000X0*%
%ADD36RoundRect,0.050000X0.050000X-0.587500X0.050000X0.587500X-0.050000X0.587500X-0.050000X-0.587500X0*%
%ADD37RoundRect,0.050000X0.587500X0.050000X-0.587500X0.050000X-0.587500X-0.050000X0.587500X-0.050000X0*%
%ADD38RoundRect,0.050000X-0.050000X0.587500X-0.050000X-0.587500X0.050000X-0.587500X0.050000X0.587500X0*%
%ADD39RoundRect,0.050000X-0.587500X-0.050000X0.587500X-0.050000X0.587500X0.050000X-0.587500X0.050000X0*%
%ADD40RoundRect,0.150000X-0.650000X-0.150000X0.650000X-0.150000X0.650000X0.150000X-0.650000X0.150000X0*%
%ADD41R,2.500000X2.500000*%
%ADD42R,0.450000X0.700000*%
%ADD43RoundRect,0.250000X-0.312500X-1.075000X0.312500X-1.075000X0.312500X1.075000X-0.312500X1.075000X0*%
G04 APERTURE END LIST*
%TO.C,U2*%
G36*
X135710800Y-102109400D02*
G01*
X137109200Y-102109400D01*
X137109200Y-100736400D01*
X135710800Y-100736400D01*
X135710800Y-102109400D01*
G37*
G36*
X135710800Y-100533200D02*
G01*
X137109200Y-100533200D01*
X137109200Y-99160200D01*
X135710800Y-99160200D01*
X135710800Y-100533200D01*
G37*
G36*
X137285600Y-102109400D02*
G01*
X138684000Y-102109400D01*
X138684000Y-100736400D01*
X137285600Y-100736400D01*
X137285600Y-102109400D01*
G37*
G36*
X137287000Y-100533200D02*
G01*
X138685400Y-100533200D01*
X138685400Y-99160200D01*
X137287000Y-99160200D01*
X137287000Y-100533200D01*
G37*
%TD*%
D10*
%TO.C,FID1*%
X91800000Y-82800000D03*
X91300000Y-83300000D03*
%TD*%
D11*
%TO.C,C8*%
X127849989Y-94640400D03*
X125949989Y-94640400D03*
%TD*%
D12*
%TO.C,D4*%
X107746800Y-123005600D03*
X107746800Y-119005600D03*
%TD*%
D13*
%TO.C,C12*%
X127458789Y-101689400D03*
X125908789Y-101689400D03*
%TD*%
D14*
%TO.C,Q6*%
X171553727Y-113065600D03*
X171553727Y-111165600D03*
X169678727Y-112115600D03*
%TD*%
D15*
%TO.C,R14*%
X108598200Y-103886000D03*
X110248200Y-103886000D03*
%TD*%
D12*
%TO.C,D10*%
X175839413Y-119662297D03*
X175839413Y-115662297D03*
%TD*%
D15*
%TO.C,R35*%
X157033671Y-107865426D03*
X158683671Y-107865426D03*
%TD*%
%TO.C,R34*%
X152829471Y-107865426D03*
X154479471Y-107865426D03*
%TD*%
D16*
%TO.C,R39*%
X158683671Y-109541826D03*
X157033671Y-109541826D03*
%TD*%
D15*
%TO.C,R27*%
X174236884Y-107814626D03*
X175886884Y-107814626D03*
%TD*%
D12*
%TO.C,D14*%
X158636200Y-119662297D03*
X158636200Y-115662297D03*
%TD*%
D15*
%TO.C,R5*%
X108142000Y-89433400D03*
X109792000Y-89433400D03*
%TD*%
D17*
%TO.C,R15*%
X144119600Y-107925600D03*
X144119600Y-109575600D03*
%TD*%
D16*
%TO.C,R2*%
X112890800Y-89433400D03*
X111240800Y-89433400D03*
%TD*%
D17*
%TO.C,R24*%
X138317700Y-82893400D03*
X138317700Y-84543400D03*
%TD*%
%TO.C,R19*%
X148285200Y-107925600D03*
X148285200Y-109575600D03*
%TD*%
D15*
%TO.C,R16*%
X144564600Y-114604800D03*
X146214600Y-114604800D03*
%TD*%
D10*
%TO.C,FID2*%
X183700000Y-83500000D03*
X183200000Y-84000000D03*
%TD*%
D12*
%TO.C,D13*%
X154381200Y-119630297D03*
X154381200Y-115630297D03*
%TD*%
D18*
%TO.C,C23*%
X131470400Y-119364800D03*
X131470400Y-117464800D03*
%TD*%
D19*
%TO.C,FB1*%
X98247200Y-107645200D03*
X98247200Y-106070200D03*
%TD*%
D20*
%TO.C,C21*%
X125780800Y-122725000D03*
X125780800Y-124275000D03*
%TD*%
D21*
%TO.C,F1*%
X102514400Y-118606400D03*
X102514400Y-123506400D03*
%TD*%
D14*
%TO.C,Q12*%
X162936371Y-113065600D03*
X162936371Y-111165600D03*
X161061371Y-112115600D03*
%TD*%
D11*
%TO.C,C9*%
X127837789Y-96723200D03*
X125937789Y-96723200D03*
%TD*%
D20*
%TO.C,C5*%
X131528000Y-107098800D03*
X131528000Y-108648800D03*
%TD*%
D15*
%TO.C,R37*%
X165593471Y-107865426D03*
X167243471Y-107865426D03*
%TD*%
D14*
%TO.C,Q13*%
X167228971Y-113065600D03*
X167228971Y-111165600D03*
X165353971Y-112115600D03*
%TD*%
%TO.C,Q10*%
X154414171Y-113065600D03*
X154414171Y-111165600D03*
X152539171Y-112115600D03*
%TD*%
D22*
%TO.C,U3*%
X123463900Y-122412800D03*
X123463900Y-121462800D03*
X123463900Y-120512800D03*
X121188900Y-120512800D03*
X121188900Y-121462800D03*
X121188900Y-122412800D03*
%TD*%
D12*
%TO.C,D1*%
X102463600Y-115722400D03*
X102463600Y-111722400D03*
%TD*%
D20*
%TO.C,C24*%
X164896800Y-98691400D03*
X164896800Y-100241400D03*
%TD*%
D23*
%TO.C,Y1*%
X145293400Y-102094400D03*
X147493400Y-102094400D03*
X147493400Y-100394400D03*
X145293400Y-100394400D03*
%TD*%
D12*
%TO.C,D11*%
X180166999Y-119662297D03*
X180166999Y-115662297D03*
%TD*%
D13*
%TO.C,C16*%
X127446589Y-103276400D03*
X125896589Y-103276400D03*
%TD*%
D24*
%TO.C,D5*%
X100025200Y-107533200D03*
D25*
X100025200Y-105913200D03*
%TD*%
D26*
%TO.C,J3*%
X95471400Y-107620000D03*
X95471400Y-108420000D03*
X95471400Y-109220000D03*
X95471400Y-110020000D03*
X95471400Y-110820000D03*
D27*
X89971400Y-113620000D03*
X95471400Y-104820000D03*
X95471400Y-113620000D03*
X89971400Y-104820000D03*
%TD*%
D16*
%TO.C,R30*%
X171556027Y-109541826D03*
X169906027Y-109541826D03*
%TD*%
D20*
%TO.C,C15*%
X137500000Y-107975000D03*
X137500000Y-109525000D03*
%TD*%
D28*
%TO.C,D7*%
X143677500Y-117511600D03*
X143677500Y-118911600D03*
X147177500Y-118911600D03*
X147177500Y-117511600D03*
%TD*%
D12*
%TO.C,D16*%
X167196000Y-119662297D03*
X167196000Y-115662297D03*
%TD*%
D29*
%TO.C,D6*%
X133654800Y-117779700D03*
X133654800Y-119354700D03*
%TD*%
D15*
%TO.C,R3*%
X141059400Y-123444000D03*
X142709400Y-123444000D03*
%TD*%
D30*
%TO.C,Q5*%
X148427700Y-111165600D03*
X148427700Y-113065600D03*
X150302700Y-112115600D03*
%TD*%
D31*
%TO.C,L1*%
X125780800Y-121446800D03*
X125780800Y-119446800D03*
%TD*%
D12*
%TO.C,D2*%
X125018800Y-131641600D03*
X125018800Y-127641600D03*
%TD*%
D32*
%TO.C,C1*%
X145059600Y-103784400D03*
X146609600Y-103784400D03*
%TD*%
D33*
%TO.C,C18*%
X112014000Y-122443200D03*
X112014000Y-124343200D03*
%TD*%
D12*
%TO.C,D15*%
X162903400Y-119662297D03*
X162903400Y-115662297D03*
%TD*%
D15*
%TO.C,R29*%
X182867800Y-107865426D03*
X184517800Y-107865426D03*
%TD*%
D16*
%TO.C,R7*%
X127509589Y-100114600D03*
X125859589Y-100114600D03*
%TD*%
D14*
%TO.C,Q8*%
X180199970Y-113065600D03*
X180199970Y-111165600D03*
X178324970Y-112115600D03*
%TD*%
D16*
%TO.C,R11*%
X120103400Y-118000000D03*
X118453400Y-118000000D03*
%TD*%
D12*
%TO.C,D9*%
X171520756Y-119662297D03*
X171520756Y-115662297D03*
%TD*%
D34*
%TO.C,C10*%
X134620000Y-94488000D03*
X134620000Y-92938000D03*
%TD*%
D15*
%TO.C,R18*%
X140399000Y-114604800D03*
X142049000Y-114604800D03*
%TD*%
D14*
%TO.C,Q11*%
X158669171Y-113065600D03*
X158669171Y-111165600D03*
X156794171Y-112115600D03*
%TD*%
D15*
%TO.C,R28*%
X178564470Y-107865426D03*
X180214470Y-107865426D03*
%TD*%
D34*
%TO.C,C14*%
X133045200Y-94501000D03*
X133045200Y-92951000D03*
%TD*%
D15*
%TO.C,R36*%
X161300871Y-107814626D03*
X162950871Y-107814626D03*
%TD*%
D20*
%TO.C,C25*%
X167741600Y-98678400D03*
X167741600Y-100228400D03*
%TD*%
D14*
%TO.C,Q9*%
X184503300Y-113065600D03*
X184503300Y-111165600D03*
X182628300Y-112115600D03*
%TD*%
D15*
%TO.C,R13*%
X161684200Y-102260400D03*
X163334200Y-102260400D03*
%TD*%
D35*
%TO.C,R23*%
X144261300Y-84594200D03*
X144261300Y-82944200D03*
%TD*%
D34*
%TO.C,C7*%
X142290800Y-96685400D03*
X142290800Y-95135400D03*
%TD*%
D30*
%TO.C,Q3*%
X144299700Y-111165600D03*
X144299700Y-113065600D03*
X146174700Y-112115600D03*
%TD*%
D14*
%TO.C,Q7*%
X175872384Y-113065600D03*
X175872384Y-111165600D03*
X173997384Y-112115600D03*
%TD*%
D15*
%TO.C,R20*%
X148679400Y-114604800D03*
X150329400Y-114604800D03*
%TD*%
D33*
%TO.C,C19*%
X114401600Y-122443200D03*
X114401600Y-124343200D03*
%TD*%
D36*
%TO.C,U2*%
X134610800Y-104272300D03*
X135010800Y-104272300D03*
X135410800Y-104272300D03*
X135810800Y-104272300D03*
X136210800Y-104272300D03*
X136610800Y-104272300D03*
X137010800Y-104272300D03*
X137410800Y-104272300D03*
X137810800Y-104272300D03*
X138210800Y-104272300D03*
X138610800Y-104272300D03*
X139010800Y-104272300D03*
X139410800Y-104272300D03*
X139810800Y-104272300D03*
D37*
X140848300Y-103234800D03*
X140848300Y-102834800D03*
X140848300Y-102434800D03*
X140848300Y-102034800D03*
X140848300Y-101634800D03*
X140848300Y-101234800D03*
X140848300Y-100834800D03*
X140848300Y-100434800D03*
X140848300Y-100034800D03*
X140848300Y-99634800D03*
X140848300Y-99234800D03*
X140848300Y-98834800D03*
X140848300Y-98434800D03*
X140848300Y-98034800D03*
D38*
X139810800Y-96997300D03*
X139410800Y-96997300D03*
X139010800Y-96997300D03*
X138610800Y-96997300D03*
X138210800Y-96997300D03*
X137810800Y-96997300D03*
X137410800Y-96997300D03*
X137010800Y-96997300D03*
X136610800Y-96997300D03*
X136210800Y-96997300D03*
X135810800Y-96997300D03*
X135410800Y-96997300D03*
X135010800Y-96997300D03*
X134610800Y-96997300D03*
D39*
X133573300Y-98034800D03*
X133573300Y-98434800D03*
X133573300Y-98834800D03*
X133573300Y-99234800D03*
X133573300Y-99634800D03*
X133573300Y-100034800D03*
X133573300Y-100434800D03*
X133573300Y-100834800D03*
X133573300Y-101234800D03*
X133573300Y-101634800D03*
X133573300Y-102034800D03*
X133573300Y-102434800D03*
X133573300Y-102834800D03*
X133573300Y-103234800D03*
%TD*%
D10*
%TO.C,FID3*%
X183700000Y-126100000D03*
X183200000Y-126600000D03*
%TD*%
D17*
%TO.C,R9*%
X118262400Y-122415800D03*
X118262400Y-124065800D03*
%TD*%
D20*
%TO.C,C17*%
X134670800Y-107968285D03*
X134670800Y-109518285D03*
%TD*%
D16*
%TO.C,R1*%
X102806000Y-89484200D03*
X101156000Y-89484200D03*
%TD*%
D40*
%TO.C,U1*%
X122333200Y-107111800D03*
X122333200Y-108381800D03*
X122333200Y-109651800D03*
X122333200Y-110921800D03*
X129533200Y-110921800D03*
X129533200Y-109651800D03*
X129533200Y-108381800D03*
X129533200Y-107111800D03*
%TD*%
D16*
%TO.C,R4*%
X146582400Y-98755200D03*
X144932400Y-98755200D03*
%TD*%
D34*
%TO.C,C26*%
X127141700Y-84582000D03*
X127141700Y-83032000D03*
%TD*%
D32*
%TO.C,C3*%
X148056800Y-98755200D03*
X149606800Y-98755200D03*
%TD*%
D16*
%TO.C,R6*%
X137934200Y-123444000D03*
X136284200Y-123444000D03*
%TD*%
D19*
%TO.C,D8*%
X147207700Y-84556700D03*
X147207700Y-82981700D03*
%TD*%
D16*
%TO.C,R38*%
X154467271Y-109541826D03*
X152817271Y-109541826D03*
%TD*%
%TO.C,R31*%
X175886884Y-109541826D03*
X174236884Y-109541826D03*
%TD*%
D34*
%TO.C,C11*%
X143916400Y-96685400D03*
X143916400Y-95135400D03*
%TD*%
D13*
%TO.C,C6*%
X127446589Y-104851200D03*
X125896589Y-104851200D03*
%TD*%
D14*
%TO.C,Q2*%
X114272300Y-104836000D03*
X114272300Y-102936000D03*
X112397300Y-103886000D03*
%TD*%
D20*
%TO.C,C20*%
X116484400Y-122428000D03*
X116484400Y-123978000D03*
%TD*%
D41*
%TO.C,U4*%
X155013400Y-79657600D03*
X177523400Y-79657600D03*
%TD*%
D18*
%TO.C,C22*%
X129133600Y-119364800D03*
X129133600Y-117464800D03*
%TD*%
D32*
%TO.C,C2*%
X144259000Y-123444000D03*
X145809000Y-123444000D03*
%TD*%
D16*
%TO.C,R40*%
X162950871Y-109541826D03*
X161300871Y-109541826D03*
%TD*%
D30*
%TO.C,Q4*%
X140171700Y-111165600D03*
X140171700Y-113065600D03*
X142046700Y-112115600D03*
%TD*%
D35*
%TO.C,R25*%
X141264100Y-84582000D03*
X141264100Y-82932000D03*
%TD*%
D17*
%TO.C,R22*%
X130037300Y-82944200D03*
X130037300Y-84594200D03*
%TD*%
D16*
%TO.C,R8*%
X125859589Y-98539800D03*
X127509589Y-98539800D03*
%TD*%
%TO.C,R33*%
X184505600Y-109524800D03*
X182855600Y-109524800D03*
%TD*%
D17*
%TO.C,R17*%
X139954000Y-107937800D03*
X139954000Y-109587800D03*
%TD*%
D42*
%TO.C,Q1*%
X161859200Y-100669600D03*
X163159200Y-100669600D03*
X162509200Y-98669600D03*
%TD*%
D13*
%TO.C,C4*%
X134734600Y-123444000D03*
X133184600Y-123444000D03*
%TD*%
D12*
%TO.C,D12*%
X184470329Y-119662297D03*
X184470329Y-115662297D03*
%TD*%
D16*
%TO.C,R41*%
X167243471Y-109541826D03*
X165593471Y-109541826D03*
%TD*%
D34*
%TO.C,C13*%
X138226800Y-94488000D03*
X138226800Y-92938000D03*
%TD*%
D16*
%TO.C,R12*%
X133654800Y-115620800D03*
X132004800Y-115620800D03*
%TD*%
D43*
%TO.C,R21*%
X131876800Y-83769200D03*
X134801800Y-83769200D03*
%TD*%
D12*
%TO.C,D3*%
X128930400Y-127641600D03*
X128930400Y-131641600D03*
%TD*%
D16*
%TO.C,R10*%
X123824000Y-118000000D03*
X122174000Y-118000000D03*
%TD*%
D15*
%TO.C,R26*%
X169918227Y-107865426D03*
X171568227Y-107865426D03*
%TD*%
D16*
%TO.C,R32*%
X180202270Y-109541826D03*
X178552270Y-109541826D03*
%TD*%
M02*
