%TF.GenerationSoftware,KiCad,Pcbnew,(6.0.4)*%
%TF.CreationDate,2022-04-12T11:12:27+02:00*%
%TF.ProjectId,PPSE_2021,50505345-5f32-4303-9231-2e6b69636164,rev?*%
%TF.SameCoordinates,Original*%
%TF.FileFunction,Soldermask,Bot*%
%TF.FilePolarity,Negative*%
%FSLAX46Y46*%
G04 Gerber Fmt 4.6, Leading zero omitted, Abs format (unit mm)*
G04 Created by KiCad (PCBNEW (6.0.4)) date 2022-04-12 11:12:27*
%MOMM*%
%LPD*%
G01*
G04 APERTURE LIST*
G04 Aperture macros list*
%AMRoundRect*
0 Rectangle with rounded corners*
0 $1 Rounding radius*
0 $2 $3 $4 $5 $6 $7 $8 $9 X,Y pos of 4 corners*
0 Add a 4 corners polygon primitive as box body*
4,1,4,$2,$3,$4,$5,$6,$7,$8,$9,$2,$3,0*
0 Add four circle primitives for the rounded corners*
1,1,$1+$1,$2,$3*
1,1,$1+$1,$4,$5*
1,1,$1+$1,$6,$7*
1,1,$1+$1,$8,$9*
0 Add four rect primitives between the rounded corners*
20,1,$1+$1,$2,$3,$4,$5,0*
20,1,$1+$1,$4,$5,$6,$7,0*
20,1,$1+$1,$6,$7,$8,$9,0*
20,1,$1+$1,$8,$9,$2,$3,0*%
G04 Aperture macros list end*
%ADD10RoundRect,0.250000X-0.600000X-0.725000X0.600000X-0.725000X0.600000X0.725000X-0.600000X0.725000X0*%
%ADD11O,1.700000X1.950000*%
%ADD12R,1.700000X1.700000*%
%ADD13O,1.700000X1.700000*%
%ADD14C,3.200000*%
%ADD15C,2.000000*%
%ADD16R,2.000000X2.000000*%
%ADD17R,2.100000X2.100000*%
%ADD18C,2.100000*%
%ADD19C,2.800000*%
%ADD20C,0.900000*%
%ADD21C,3.000000*%
%ADD22RoundRect,0.250001X0.759999X-0.499999X0.759999X0.499999X-0.759999X0.499999X-0.759999X-0.499999X0*%
%ADD23O,2.020000X1.500000*%
%ADD24RoundRect,0.500000X-0.500000X-1.000000X0.500000X-1.000000X0.500000X1.000000X-0.500000X1.000000X0*%
%ADD25R,1.400000X2.000000*%
G04 APERTURE END LIST*
D10*
%TO.C,J10*%
X150926800Y-125602974D03*
D11*
X153426800Y-125602974D03*
X155926800Y-125602974D03*
X158426800Y-125602974D03*
X160926800Y-125602974D03*
%TD*%
D12*
%TO.C,J5*%
X94575000Y-99875000D03*
D13*
X94575000Y-97335000D03*
X94575000Y-94795000D03*
X94575000Y-92255000D03*
X94575000Y-89715000D03*
%TD*%
D14*
%TO.C,H2*%
X91530000Y-130920000D03*
%TD*%
D15*
%TO.C,SW3*%
X141209200Y-133298000D03*
X141209200Y-126798000D03*
X145709200Y-133298000D03*
X145709200Y-126798000D03*
%TD*%
D16*
%TO.C,BZ1*%
X110042800Y-112217200D03*
D15*
X117642800Y-112217200D03*
%TD*%
D17*
%TO.C,J11*%
X138328400Y-78333600D03*
D18*
X140868400Y-78333600D03*
%TD*%
D14*
%TO.C,H4*%
X183480000Y-78920000D03*
%TD*%
D12*
%TO.C,J7*%
X135559800Y-89128600D03*
D13*
X138099800Y-89128600D03*
X140639800Y-89128600D03*
X143179800Y-89128600D03*
%TD*%
D19*
%TO.C,TP1*%
X130048000Y-123647200D03*
%TD*%
D12*
%TO.C,J1*%
X118867000Y-97325000D03*
D13*
X121407000Y-97325000D03*
X118867000Y-99865000D03*
X121407000Y-99865000D03*
X118867000Y-102405000D03*
X121407000Y-102405000D03*
%TD*%
D20*
%TO.C,J3*%
X92871400Y-111420000D03*
X92871400Y-107020000D03*
%TD*%
D14*
%TO.C,H3*%
X183520000Y-130930000D03*
%TD*%
D21*
%TO.C,J4*%
X91598000Y-120694556D03*
D22*
X95918000Y-122194556D03*
D23*
X95918000Y-119194556D03*
%TD*%
D15*
%TO.C,SW4*%
X133335200Y-133298000D03*
X133335200Y-126798000D03*
X137835200Y-126798000D03*
X137835200Y-133298000D03*
%TD*%
D19*
%TO.C,TP3*%
X125831600Y-114757200D03*
%TD*%
%TO.C,TP5*%
X148539200Y-88493600D03*
%TD*%
D12*
%TO.C,J2*%
X118917800Y-77165397D03*
D13*
X121457800Y-77165397D03*
X118917800Y-79705397D03*
X121457800Y-79705397D03*
X118917800Y-82245397D03*
X121457800Y-82245397D03*
X118917800Y-84785397D03*
X121457800Y-84785397D03*
X118917800Y-87325397D03*
X121457800Y-87325397D03*
%TD*%
D14*
%TO.C,H1*%
X91520000Y-78920000D03*
%TD*%
D19*
%TO.C,TP2*%
X104800400Y-107543600D03*
%TD*%
D17*
%TO.C,J8*%
X132080000Y-78333600D03*
D18*
X134620000Y-78333600D03*
%TD*%
D12*
%TO.C,J6*%
X96980000Y-82150000D03*
D13*
X99520000Y-82150000D03*
X102060000Y-82150000D03*
X104600000Y-82150000D03*
X107140000Y-82150000D03*
X109680000Y-82150000D03*
X112220000Y-82150000D03*
X114760000Y-82150000D03*
%TD*%
D24*
%TO.C,F2*%
X99642400Y-130149600D03*
X121642400Y-130149600D03*
%TD*%
D15*
%TO.C,SW1*%
X113984600Y-91980020D03*
X113984600Y-98480020D03*
X109484600Y-98480020D03*
X109484600Y-91980020D03*
%TD*%
D19*
%TO.C,TP4*%
X125984000Y-78282800D03*
%TD*%
D25*
%TO.C,U4*%
X157283400Y-95907600D03*
X159823400Y-95907600D03*
X162363400Y-95907600D03*
X164903400Y-95907600D03*
X167443400Y-95907600D03*
X169983400Y-95907600D03*
X172523400Y-95907600D03*
X175063400Y-95907600D03*
%TD*%
D10*
%TO.C,J9*%
X167364400Y-125582000D03*
D11*
X169864400Y-125582000D03*
X172364400Y-125582000D03*
X174864400Y-125582000D03*
X177364400Y-125582000D03*
%TD*%
D15*
%TO.C,SW2*%
X101610600Y-98480020D03*
X101610600Y-91980020D03*
X106110600Y-91980020D03*
X106110600Y-98480020D03*
%TD*%
G36*
X187413170Y-95290002D02*
G01*
X187459663Y-95343658D01*
X187471045Y-95394947D01*
X187518938Y-101122947D01*
X187499506Y-101191232D01*
X187446241Y-101238172D01*
X187392942Y-101250000D01*
X184246000Y-101250000D01*
X184177879Y-101229998D01*
X184131386Y-101176342D01*
X184120000Y-101124000D01*
X184120000Y-95396000D01*
X184140002Y-95327879D01*
X184193658Y-95281386D01*
X184246000Y-95270000D01*
X187345049Y-95270000D01*
X187413170Y-95290002D01*
G37*
M02*
