M48
; DRILL file {KiCad (6.0.4)} date Tue Apr 12 11:24:28 2022
; FORMAT={-:-/ absolute / metric / decimal}
; #@! TF.CreationDate,2022-04-12T11:24:28+02:00
; #@! TF.GenerationSoftware,Kicad,Pcbnew,(6.0.4)
; #@! TF.FileFunction,MixedPlating,1,2
FMAT,2
METRIC
; #@! TA.AperFunction,Plated,PTH,ViaDrill
T1C0.250
; #@! TA.AperFunction,Plated,PTH,ViaDrill
T2C0.400
; #@! TA.AperFunction,Plated,PTH,ComponentDrill
T3C0.950
; #@! TA.AperFunction,Plated,PTH,ComponentDrill
T4C1.000
; #@! TA.AperFunction,Plated,PTH,ComponentDrill
T5C1.020
; #@! TA.AperFunction,Plated,PTH,ComponentDrill
T6C1.100
; #@! TA.AperFunction,Plated,PTH,ComponentDrill
T7C1.300
; #@! TA.AperFunction,Plated,PTH,ComponentDrill
T8C1.600
; #@! TA.AperFunction,NonPlated,NPTH,ComponentDrill
T9C0.900
; #@! TA.AperFunction,NonPlated,NPTH,ComponentDrill
T10C3.000
; #@! TA.AperFunction,NonPlated,NPTH,ComponentDrill
T11C3.200
%
G90
G05
T1
X98.15Y-109.2
X98.15Y-110.05
X100.2Y-87.85
X113.0Y-93.85
X115.735Y-105.415
X115.75Y-100.6
X115.75Y-107.05
X120.65Y-91.674
X121.1Y-108.4
X121.15Y-107.1
X122.2Y-92.325
X123.65Y-110.95
X124.114Y-90.312
X124.25Y-104.65
X124.55Y-110.6
X124.75Y-98.55
X124.75Y-100.15
X124.8Y-108.05
X125.45Y-87.35
X126.114Y-92.312
X126.604Y-91.745
X127.8Y-110.2
X127.95Y-108.45
X127.95Y-109.4
X129.622Y-105.65
X129.9Y-103.05
X130.05Y-85.65
X130.871Y-106.305
X131.202Y-102.75
X131.5Y-109.9
X131.85Y-88.15
X132.027Y-104.139
X132.25Y-106.3
X132.615Y-103.669
X133.5Y-89.7
X133.55Y-103.648
X134.85Y-98.2
X135.1Y-101.25
X135.15Y-105.85
X135.55Y-91.0
X135.8Y-98.109
X135.801Y-95.112
X135.837Y-107.206
X136.192Y-103.096
X136.4Y-105.5
X136.438Y-95.508
X136.7Y-98.4
X136.775Y-106.775
X137.0Y-84.6
X137.074Y-95.112
X137.109Y-102.659
X137.636Y-95.65
X137.639Y-98.095
X137.8Y-102.95
X138.05Y-91.25
X138.85Y-107.938
X138.993Y-95.185
X139.1Y-87.3
X139.244Y-100.094
X139.3Y-99.15
X139.5Y-98.35
X139.6Y-101.0
X139.75Y-95.112
X140.6Y-95.05
X141.264Y-94.4
X142.2Y-99.05
X142.3Y-98.25
X142.65Y-103.4
X143.297Y-103.022
X161.0Y-100.7
X168.25Y-106.55
X171.85Y-105.8
X175.15Y-105.05
X178.4Y-104.4
T2
X90.45Y-109.15
X92.8Y-96.1
X97.05Y-87.6
X98.5Y-79.95
X101.0Y-79.95
X105.25Y-86.15
X107.15Y-112.15
X108.15Y-130.75
X112.05Y-86.05
X112.7Y-100.45
X113.85Y-108.05
X115.4Y-119.75
X116.75Y-103.75
X117.15Y-128.3
X118.261Y-120.346
X120.05Y-113.4
X121.4Y-94.75
X122.45Y-119.5
X123.8Y-76.35
X124.358Y-123.495
X124.7Y-95.7
X128.6Y-82.0
X128.789Y-100.645
X129.5Y-76.3
X131.528Y-105.522
X133.85Y-113.8
X136.25Y-101.7
X136.6Y-82.25
X138.1Y-111.9
X138.25Y-101.7
X142.05Y-110.65
X142.05Y-115.85
X144.05Y-86.7
X146.25Y-110.65
X146.25Y-115.85
X150.3Y-110.65
X150.3Y-115.85
X150.5Y-83.2
X150.9Y-93.75
X152.55Y-113.7
X153.1Y-87.25
X154.381Y-121.92
X156.8Y-113.65
X157.25Y-100.55
X158.648Y-121.92
X161.05Y-113.65
X162.916Y-121.92
X165.35Y-113.65
X167.183Y-121.92
X169.7Y-113.7
X171.552Y-121.92
X174.0Y-113.65
X175.87Y-121.92
X178.35Y-113.75
X180.188Y-121.92
X181.05Y-101.3
X181.4Y-91.25
X182.65Y-113.75
X184.556Y-121.92
T3
X150.927Y-125.603
X153.427Y-125.603
X155.927Y-125.603
X158.427Y-125.603
X160.927Y-125.603
X167.364Y-125.582
X169.864Y-125.582
X172.364Y-125.582
X174.864Y-125.582
X177.364Y-125.582
T4
X94.575Y-89.715
X94.575Y-92.255
X94.575Y-94.795
X94.575Y-97.335
X94.575Y-99.875
X96.98Y-82.15
X99.52Y-82.15
X102.06Y-82.15
X104.6Y-82.15
X107.14Y-82.15
X109.68Y-82.15
X110.043Y-112.217
X112.22Y-82.15
X114.76Y-82.15
X117.643Y-112.217
X118.867Y-97.325
X118.867Y-99.865
X118.867Y-102.405
X118.918Y-77.165
X118.918Y-79.705
X118.918Y-82.245
X118.918Y-84.785
X118.918Y-87.325
X121.407Y-97.325
X121.407Y-99.865
X121.407Y-102.405
X121.458Y-77.165
X121.458Y-79.705
X121.458Y-82.245
X121.458Y-84.785
X121.458Y-87.325
X135.56Y-89.129
X138.1Y-89.129
X140.64Y-89.129
X143.18Y-89.129
X157.283Y-95.908
X159.823Y-95.908
X162.363Y-95.908
X164.903Y-95.908
X167.443Y-95.908
X169.983Y-95.908
X172.523Y-95.908
X175.063Y-95.908
T5
X95.918Y-119.195
X95.918Y-122.195
T6
X101.611Y-91.98
X101.611Y-98.48
X106.111Y-91.98
X106.111Y-98.48
X109.485Y-91.98
X109.485Y-98.48
X113.985Y-91.98
X113.985Y-98.48
X132.08Y-78.334
X133.335Y-126.798
X133.335Y-133.298
X134.62Y-78.334
X137.835Y-126.798
X137.835Y-133.298
X138.328Y-78.334
X140.868Y-78.334
X141.209Y-126.798
X141.209Y-133.298
X145.709Y-126.798
X145.709Y-133.298
T8
X104.8Y-107.544
X125.832Y-114.757
X125.984Y-78.283
X130.048Y-123.647
X148.539Y-88.494
T9
X92.871Y-107.02
X92.871Y-111.42
T10
X91.598Y-120.695
T11
X91.52Y-78.92
X91.53Y-130.92
X183.48Y-78.92
X183.52Y-130.93
T7
G00X99.642Y-129.95
M15
G01X99.642Y-130.35
M16
G05
G00X121.642Y-129.95
M15
G01X121.642Y-130.35
M16
G05
T0
M30
