%TF.GenerationSoftware,KiCad,Pcbnew,(6.0.4)*%
%TF.CreationDate,2022-04-13T22:44:02+02:00*%
%TF.ProjectId,PPSE_2021,50505345-5f32-4303-9231-2e6b69636164,rev?*%
%TF.SameCoordinates,Original*%
%TF.FileFunction,Legend,Top*%
%TF.FilePolarity,Positive*%
%FSLAX46Y46*%
G04 Gerber Fmt 4.6, Leading zero omitted, Abs format (unit mm)*
G04 Created by KiCad (PCBNEW (6.0.4)) date 2022-04-13 22:44:02*
%MOMM*%
%LPD*%
G01*
G04 APERTURE LIST*
%ADD10C,0.100000*%
%ADD11C,0.150000*%
%ADD12C,0.300000*%
%ADD13C,0.254000*%
%ADD14C,0.120000*%
G04 APERTURE END LIST*
D10*
X144221200Y-75212425D02*
X148386800Y-75212425D01*
X148386800Y-75212425D02*
X148386800Y-81460825D01*
X148386800Y-81460825D02*
X144221200Y-81460825D01*
X144221200Y-81460825D02*
X144221200Y-75212425D01*
X148386800Y-75212425D02*
X152552400Y-75212425D01*
X152552400Y-75212425D02*
X152552400Y-81460825D01*
X152552400Y-81460825D02*
X148386800Y-81460825D01*
X148386800Y-81460825D02*
X148386800Y-75212425D01*
D11*
X110371428Y-100328571D02*
X110038095Y-100328571D01*
X110038095Y-100852380D02*
X110038095Y-99852380D01*
X110514285Y-99852380D01*
X111038095Y-100852380D02*
X110942857Y-100804761D01*
X110895238Y-100709523D01*
X110895238Y-99852380D01*
X111847619Y-100852380D02*
X111847619Y-100328571D01*
X111800000Y-100233333D01*
X111704761Y-100185714D01*
X111514285Y-100185714D01*
X111419047Y-100233333D01*
X111847619Y-100804761D02*
X111752380Y-100852380D01*
X111514285Y-100852380D01*
X111419047Y-100804761D01*
X111371428Y-100709523D01*
X111371428Y-100614285D01*
X111419047Y-100519047D01*
X111514285Y-100471428D01*
X111752380Y-100471428D01*
X111847619Y-100423809D01*
X112276190Y-100804761D02*
X112371428Y-100852380D01*
X112561904Y-100852380D01*
X112657142Y-100804761D01*
X112704761Y-100709523D01*
X112704761Y-100661904D01*
X112657142Y-100566666D01*
X112561904Y-100519047D01*
X112419047Y-100519047D01*
X112323809Y-100471428D01*
X112276190Y-100376190D01*
X112276190Y-100328571D01*
X112323809Y-100233333D01*
X112419047Y-100185714D01*
X112561904Y-100185714D01*
X112657142Y-100233333D01*
X113133333Y-100852380D02*
X113133333Y-99852380D01*
X113561904Y-100852380D02*
X113561904Y-100328571D01*
X113514285Y-100233333D01*
X113419047Y-100185714D01*
X113276190Y-100185714D01*
X113180952Y-100233333D01*
X113133333Y-100280952D01*
D12*
X97778571Y-117057142D02*
X98921428Y-117057142D01*
X98350000Y-117628571D02*
X98350000Y-116485714D01*
D11*
X150830019Y-75908209D02*
X151830019Y-75908209D01*
X151830019Y-76289161D01*
X151782400Y-76384400D01*
X151734780Y-76432019D01*
X151639542Y-76479638D01*
X151496685Y-76479638D01*
X151401447Y-76432019D01*
X151353828Y-76384400D01*
X151306209Y-76289161D01*
X151306209Y-75908209D01*
X150830019Y-77336780D02*
X151353828Y-77336780D01*
X151449066Y-77289161D01*
X151496685Y-77193923D01*
X151496685Y-77003447D01*
X151449066Y-76908209D01*
X150877638Y-77336780D02*
X150830019Y-77241542D01*
X150830019Y-77003447D01*
X150877638Y-76908209D01*
X150972876Y-76860590D01*
X151068114Y-76860590D01*
X151163352Y-76908209D01*
X151210971Y-77003447D01*
X151210971Y-77241542D01*
X151258590Y-77336780D01*
X151496685Y-77812971D02*
X150830019Y-77812971D01*
X151401447Y-77812971D02*
X151449066Y-77860590D01*
X151496685Y-77955828D01*
X151496685Y-78098685D01*
X151449066Y-78193923D01*
X151353828Y-78241542D01*
X150830019Y-78241542D01*
X150877638Y-79098685D02*
X150830019Y-79003447D01*
X150830019Y-78812971D01*
X150877638Y-78717733D01*
X150972876Y-78670114D01*
X151353828Y-78670114D01*
X151449066Y-78717733D01*
X151496685Y-78812971D01*
X151496685Y-79003447D01*
X151449066Y-79098685D01*
X151353828Y-79146304D01*
X151258590Y-79146304D01*
X151163352Y-78670114D01*
X150830019Y-79717733D02*
X150877638Y-79622495D01*
X150972876Y-79574876D01*
X151830019Y-79574876D01*
X151210971Y-80098685D02*
X151210971Y-80860590D01*
X150830019Y-80479638D02*
X151591923Y-80479638D01*
X144784819Y-75908209D02*
X145784819Y-75908209D01*
X145784819Y-76289161D01*
X145737200Y-76384400D01*
X145689580Y-76432019D01*
X145594342Y-76479638D01*
X145451485Y-76479638D01*
X145356247Y-76432019D01*
X145308628Y-76384400D01*
X145261009Y-76289161D01*
X145261009Y-75908209D01*
X144784819Y-77336780D02*
X145308628Y-77336780D01*
X145403866Y-77289161D01*
X145451485Y-77193923D01*
X145451485Y-77003447D01*
X145403866Y-76908209D01*
X144832438Y-77336780D02*
X144784819Y-77241542D01*
X144784819Y-77003447D01*
X144832438Y-76908209D01*
X144927676Y-76860590D01*
X145022914Y-76860590D01*
X145118152Y-76908209D01*
X145165771Y-77003447D01*
X145165771Y-77241542D01*
X145213390Y-77336780D01*
X145451485Y-77812971D02*
X144784819Y-77812971D01*
X145356247Y-77812971D02*
X145403866Y-77860590D01*
X145451485Y-77955828D01*
X145451485Y-78098685D01*
X145403866Y-78193923D01*
X145308628Y-78241542D01*
X144784819Y-78241542D01*
X144832438Y-79098685D02*
X144784819Y-79003447D01*
X144784819Y-78812971D01*
X144832438Y-78717733D01*
X144927676Y-78670114D01*
X145308628Y-78670114D01*
X145403866Y-78717733D01*
X145451485Y-78812971D01*
X145451485Y-79003447D01*
X145403866Y-79098685D01*
X145308628Y-79146304D01*
X145213390Y-79146304D01*
X145118152Y-78670114D01*
X144784819Y-79717733D02*
X144832438Y-79622495D01*
X144927676Y-79574876D01*
X145784819Y-79574876D01*
X145165771Y-80098685D02*
X145165771Y-80860590D01*
X102661904Y-100852380D02*
X102328571Y-100376190D01*
X102090476Y-100852380D02*
X102090476Y-99852380D01*
X102471428Y-99852380D01*
X102566666Y-99900000D01*
X102614285Y-99947619D01*
X102661904Y-100042857D01*
X102661904Y-100185714D01*
X102614285Y-100280952D01*
X102566666Y-100328571D01*
X102471428Y-100376190D01*
X102090476Y-100376190D01*
X103471428Y-100804761D02*
X103376190Y-100852380D01*
X103185714Y-100852380D01*
X103090476Y-100804761D01*
X103042857Y-100709523D01*
X103042857Y-100328571D01*
X103090476Y-100233333D01*
X103185714Y-100185714D01*
X103376190Y-100185714D01*
X103471428Y-100233333D01*
X103519047Y-100328571D01*
X103519047Y-100423809D01*
X103042857Y-100519047D01*
X103900000Y-100804761D02*
X103995238Y-100852380D01*
X104185714Y-100852380D01*
X104280952Y-100804761D01*
X104328571Y-100709523D01*
X104328571Y-100661904D01*
X104280952Y-100566666D01*
X104185714Y-100519047D01*
X104042857Y-100519047D01*
X103947619Y-100471428D01*
X103900000Y-100376190D01*
X103900000Y-100328571D01*
X103947619Y-100233333D01*
X104042857Y-100185714D01*
X104185714Y-100185714D01*
X104280952Y-100233333D01*
X105138095Y-100804761D02*
X105042857Y-100852380D01*
X104852380Y-100852380D01*
X104757142Y-100804761D01*
X104709523Y-100709523D01*
X104709523Y-100328571D01*
X104757142Y-100233333D01*
X104852380Y-100185714D01*
X105042857Y-100185714D01*
X105138095Y-100233333D01*
X105185714Y-100328571D01*
X105185714Y-100423809D01*
X104709523Y-100519047D01*
X105471428Y-100185714D02*
X105852380Y-100185714D01*
X105614285Y-99852380D02*
X105614285Y-100709523D01*
X105661904Y-100804761D01*
X105757142Y-100852380D01*
X105852380Y-100852380D01*
X149001219Y-75908209D02*
X150001219Y-75908209D01*
X150001219Y-76289161D01*
X149953600Y-76384400D01*
X149905980Y-76432019D01*
X149810742Y-76479638D01*
X149667885Y-76479638D01*
X149572647Y-76432019D01*
X149525028Y-76384400D01*
X149477409Y-76289161D01*
X149477409Y-75908209D01*
X149001219Y-77336780D02*
X149525028Y-77336780D01*
X149620266Y-77289161D01*
X149667885Y-77193923D01*
X149667885Y-77003447D01*
X149620266Y-76908209D01*
X149048838Y-77336780D02*
X149001219Y-77241542D01*
X149001219Y-77003447D01*
X149048838Y-76908209D01*
X149144076Y-76860590D01*
X149239314Y-76860590D01*
X149334552Y-76908209D01*
X149382171Y-77003447D01*
X149382171Y-77241542D01*
X149429790Y-77336780D01*
X149667885Y-77812971D02*
X149001219Y-77812971D01*
X149572647Y-77812971D02*
X149620266Y-77860590D01*
X149667885Y-77955828D01*
X149667885Y-78098685D01*
X149620266Y-78193923D01*
X149525028Y-78241542D01*
X149001219Y-78241542D01*
X149048838Y-79098685D02*
X149001219Y-79003447D01*
X149001219Y-78812971D01*
X149048838Y-78717733D01*
X149144076Y-78670114D01*
X149525028Y-78670114D01*
X149620266Y-78717733D01*
X149667885Y-78812971D01*
X149667885Y-79003447D01*
X149620266Y-79098685D01*
X149525028Y-79146304D01*
X149429790Y-79146304D01*
X149334552Y-78670114D01*
X149001219Y-79717733D02*
X149048838Y-79622495D01*
X149144076Y-79574876D01*
X150001219Y-79574876D01*
X149382171Y-80098685D02*
X149382171Y-80860590D01*
X149001219Y-80479638D02*
X149763123Y-80479638D01*
X118102380Y-105202380D02*
X118102380Y-104202380D01*
X118340476Y-104202380D01*
X118483333Y-104250000D01*
X118578571Y-104345238D01*
X118626190Y-104440476D01*
X118673809Y-104630952D01*
X118673809Y-104773809D01*
X118626190Y-104964285D01*
X118578571Y-105059523D01*
X118483333Y-105154761D01*
X118340476Y-105202380D01*
X118102380Y-105202380D01*
X119483333Y-105154761D02*
X119388095Y-105202380D01*
X119197619Y-105202380D01*
X119102380Y-105154761D01*
X119054761Y-105059523D01*
X119054761Y-104678571D01*
X119102380Y-104583333D01*
X119197619Y-104535714D01*
X119388095Y-104535714D01*
X119483333Y-104583333D01*
X119530952Y-104678571D01*
X119530952Y-104773809D01*
X119054761Y-104869047D01*
X119959523Y-105202380D02*
X119959523Y-104202380D01*
X119959523Y-104583333D02*
X120054761Y-104535714D01*
X120245238Y-104535714D01*
X120340476Y-104583333D01*
X120388095Y-104630952D01*
X120435714Y-104726190D01*
X120435714Y-105011904D01*
X120388095Y-105107142D01*
X120340476Y-105154761D01*
X120245238Y-105202380D01*
X120054761Y-105202380D01*
X119959523Y-105154761D01*
X121292857Y-104535714D02*
X121292857Y-105202380D01*
X120864285Y-104535714D02*
X120864285Y-105059523D01*
X120911904Y-105154761D01*
X121007142Y-105202380D01*
X121150000Y-105202380D01*
X121245238Y-105154761D01*
X121292857Y-105107142D01*
X122197619Y-104535714D02*
X122197619Y-105345238D01*
X122150000Y-105440476D01*
X122102380Y-105488095D01*
X122007142Y-105535714D01*
X121864285Y-105535714D01*
X121769047Y-105488095D01*
X122197619Y-105154761D02*
X122102380Y-105202380D01*
X121911904Y-105202380D01*
X121816666Y-105154761D01*
X121769047Y-105107142D01*
X121721428Y-105011904D01*
X121721428Y-104726190D01*
X121769047Y-104630952D01*
X121816666Y-104583333D01*
X121911904Y-104535714D01*
X122102380Y-104535714D01*
X122197619Y-104583333D01*
D12*
X98457142Y-124621428D02*
X98457142Y-123478571D01*
D11*
X100754761Y-84516666D02*
X101230952Y-84516666D01*
X100659523Y-84802380D02*
X100992857Y-83802380D01*
X101326190Y-84802380D01*
X102088095Y-84754761D02*
X101992857Y-84802380D01*
X101802380Y-84802380D01*
X101707142Y-84754761D01*
X101659523Y-84707142D01*
X101611904Y-84611904D01*
X101611904Y-84326190D01*
X101659523Y-84230952D01*
X101707142Y-84183333D01*
X101802380Y-84135714D01*
X101992857Y-84135714D01*
X102088095Y-84183333D01*
X102945238Y-84754761D02*
X102850000Y-84802380D01*
X102659523Y-84802380D01*
X102564285Y-84754761D01*
X102516666Y-84707142D01*
X102469047Y-84611904D01*
X102469047Y-84326190D01*
X102516666Y-84230952D01*
X102564285Y-84183333D01*
X102659523Y-84135714D01*
X102850000Y-84135714D01*
X102945238Y-84183333D01*
X103754761Y-84754761D02*
X103659523Y-84802380D01*
X103469047Y-84802380D01*
X103373809Y-84754761D01*
X103326190Y-84659523D01*
X103326190Y-84278571D01*
X103373809Y-84183333D01*
X103469047Y-84135714D01*
X103659523Y-84135714D01*
X103754761Y-84183333D01*
X103802380Y-84278571D01*
X103802380Y-84373809D01*
X103326190Y-84469047D01*
X104373809Y-84802380D02*
X104278571Y-84754761D01*
X104230952Y-84659523D01*
X104230952Y-83802380D01*
X105135714Y-84754761D02*
X105040476Y-84802380D01*
X104850000Y-84802380D01*
X104754761Y-84754761D01*
X104707142Y-84659523D01*
X104707142Y-84278571D01*
X104754761Y-84183333D01*
X104850000Y-84135714D01*
X105040476Y-84135714D01*
X105135714Y-84183333D01*
X105183333Y-84278571D01*
X105183333Y-84373809D01*
X104707142Y-84469047D01*
X105611904Y-84802380D02*
X105611904Y-84135714D01*
X105611904Y-84326190D02*
X105659523Y-84230952D01*
X105707142Y-84183333D01*
X105802380Y-84135714D01*
X105897619Y-84135714D01*
X106373809Y-84802380D02*
X106278571Y-84754761D01*
X106230952Y-84707142D01*
X106183333Y-84611904D01*
X106183333Y-84326190D01*
X106230952Y-84230952D01*
X106278571Y-84183333D01*
X106373809Y-84135714D01*
X106516666Y-84135714D01*
X106611904Y-84183333D01*
X106659523Y-84230952D01*
X106707142Y-84326190D01*
X106707142Y-84611904D01*
X106659523Y-84707142D01*
X106611904Y-84754761D01*
X106516666Y-84802380D01*
X106373809Y-84802380D01*
X107135714Y-84802380D02*
X107135714Y-84135714D01*
X107135714Y-84230952D02*
X107183333Y-84183333D01*
X107278571Y-84135714D01*
X107421428Y-84135714D01*
X107516666Y-84183333D01*
X107564285Y-84278571D01*
X107564285Y-84802380D01*
X107564285Y-84278571D02*
X107611904Y-84183333D01*
X107707142Y-84135714D01*
X107850000Y-84135714D01*
X107945238Y-84183333D01*
X107992857Y-84278571D01*
X107992857Y-84802380D01*
X108850000Y-84754761D02*
X108754761Y-84802380D01*
X108564285Y-84802380D01*
X108469047Y-84754761D01*
X108421428Y-84659523D01*
X108421428Y-84278571D01*
X108469047Y-84183333D01*
X108564285Y-84135714D01*
X108754761Y-84135714D01*
X108850000Y-84183333D01*
X108897619Y-84278571D01*
X108897619Y-84373809D01*
X108421428Y-84469047D01*
X109183333Y-84135714D02*
X109564285Y-84135714D01*
X109326190Y-83802380D02*
X109326190Y-84659523D01*
X109373809Y-84754761D01*
X109469047Y-84802380D01*
X109564285Y-84802380D01*
X110278571Y-84754761D02*
X110183333Y-84802380D01*
X109992857Y-84802380D01*
X109897619Y-84754761D01*
X109850000Y-84659523D01*
X109850000Y-84278571D01*
X109897619Y-84183333D01*
X109992857Y-84135714D01*
X110183333Y-84135714D01*
X110278571Y-84183333D01*
X110326190Y-84278571D01*
X110326190Y-84373809D01*
X109850000Y-84469047D01*
X110754761Y-84802380D02*
X110754761Y-84135714D01*
X110754761Y-84326190D02*
X110802380Y-84230952D01*
X110850000Y-84183333D01*
X110945238Y-84135714D01*
X111040476Y-84135714D01*
X165435714Y-92950000D02*
X165340476Y-92902380D01*
X165197619Y-92902380D01*
X165054761Y-92950000D01*
X164959523Y-93045238D01*
X164911904Y-93140476D01*
X164864285Y-93330952D01*
X164864285Y-93473809D01*
X164911904Y-93664285D01*
X164959523Y-93759523D01*
X165054761Y-93854761D01*
X165197619Y-93902380D01*
X165292857Y-93902380D01*
X165435714Y-93854761D01*
X165483333Y-93807142D01*
X165483333Y-93473809D01*
X165292857Y-93473809D01*
X165911904Y-93902380D02*
X165911904Y-92902380D01*
X166292857Y-92902380D01*
X166388095Y-92950000D01*
X166435714Y-92997619D01*
X166483333Y-93092857D01*
X166483333Y-93235714D01*
X166435714Y-93330952D01*
X166388095Y-93378571D01*
X166292857Y-93426190D01*
X165911904Y-93426190D01*
X166864285Y-93854761D02*
X167007142Y-93902380D01*
X167245238Y-93902380D01*
X167340476Y-93854761D01*
X167388095Y-93807142D01*
X167435714Y-93711904D01*
X167435714Y-93616666D01*
X167388095Y-93521428D01*
X167340476Y-93473809D01*
X167245238Y-93426190D01*
X167054761Y-93378571D01*
X166959523Y-93330952D01*
X166911904Y-93283333D01*
X166864285Y-93188095D01*
X166864285Y-93092857D01*
X166911904Y-92997619D01*
X166959523Y-92950000D01*
X167054761Y-92902380D01*
X167292857Y-92902380D01*
X167435714Y-92950000D01*
X139197619Y-91002380D02*
X139388095Y-91002380D01*
X139483333Y-91050000D01*
X139578571Y-91145238D01*
X139626190Y-91335714D01*
X139626190Y-91669047D01*
X139578571Y-91859523D01*
X139483333Y-91954761D01*
X139388095Y-92002380D01*
X139197619Y-92002380D01*
X139102380Y-91954761D01*
X139007142Y-91859523D01*
X138959523Y-91669047D01*
X138959523Y-91335714D01*
X139007142Y-91145238D01*
X139102380Y-91050000D01*
X139197619Y-91002380D01*
X140530952Y-92002380D02*
X140054761Y-92002380D01*
X140054761Y-91002380D01*
X140864285Y-91478571D02*
X141197619Y-91478571D01*
X141340476Y-92002380D02*
X140864285Y-92002380D01*
X140864285Y-91002380D01*
X141340476Y-91002380D01*
X141769047Y-92002380D02*
X141769047Y-91002380D01*
X142007142Y-91002380D01*
X142150000Y-91050000D01*
X142245238Y-91145238D01*
X142292857Y-91240476D01*
X142340476Y-91430952D01*
X142340476Y-91573809D01*
X142292857Y-91764285D01*
X142245238Y-91859523D01*
X142150000Y-91954761D01*
X142007142Y-92002380D01*
X141769047Y-92002380D01*
X97007142Y-97373809D02*
X97054761Y-97421428D01*
X97102380Y-97564285D01*
X97102380Y-97659523D01*
X97054761Y-97802380D01*
X96959523Y-97897619D01*
X96864285Y-97945238D01*
X96673809Y-97992857D01*
X96530952Y-97992857D01*
X96340476Y-97945238D01*
X96245238Y-97897619D01*
X96150000Y-97802380D01*
X96102380Y-97659523D01*
X96102380Y-97564285D01*
X96150000Y-97421428D01*
X96197619Y-97373809D01*
X97102380Y-96802380D02*
X97054761Y-96897619D01*
X97007142Y-96945238D01*
X96911904Y-96992857D01*
X96626190Y-96992857D01*
X96530952Y-96945238D01*
X96483333Y-96897619D01*
X96435714Y-96802380D01*
X96435714Y-96659523D01*
X96483333Y-96564285D01*
X96530952Y-96516666D01*
X96626190Y-96469047D01*
X96911904Y-96469047D01*
X97007142Y-96516666D01*
X97054761Y-96564285D01*
X97102380Y-96659523D01*
X97102380Y-96802380D01*
X97102380Y-96040476D02*
X96435714Y-96040476D01*
X96530952Y-96040476D02*
X96483333Y-95992857D01*
X96435714Y-95897619D01*
X96435714Y-95754761D01*
X96483333Y-95659523D01*
X96578571Y-95611904D01*
X97102380Y-95611904D01*
X96578571Y-95611904D02*
X96483333Y-95564285D01*
X96435714Y-95469047D01*
X96435714Y-95326190D01*
X96483333Y-95230952D01*
X96578571Y-95183333D01*
X97102380Y-95183333D01*
X96435714Y-94707142D02*
X97435714Y-94707142D01*
X96483333Y-94707142D02*
X96435714Y-94611904D01*
X96435714Y-94421428D01*
X96483333Y-94326190D01*
X96530952Y-94278571D01*
X96626190Y-94230952D01*
X96911904Y-94230952D01*
X97007142Y-94278571D01*
X97054761Y-94326190D01*
X97102380Y-94421428D01*
X97102380Y-94611904D01*
X97054761Y-94707142D01*
X97102380Y-93373809D02*
X96578571Y-93373809D01*
X96483333Y-93421428D01*
X96435714Y-93516666D01*
X96435714Y-93707142D01*
X96483333Y-93802380D01*
X97054761Y-93373809D02*
X97102380Y-93469047D01*
X97102380Y-93707142D01*
X97054761Y-93802380D01*
X96959523Y-93850000D01*
X96864285Y-93850000D01*
X96769047Y-93802380D01*
X96721428Y-93707142D01*
X96721428Y-93469047D01*
X96673809Y-93373809D01*
X97054761Y-92945238D02*
X97102380Y-92850000D01*
X97102380Y-92659523D01*
X97054761Y-92564285D01*
X96959523Y-92516666D01*
X96911904Y-92516666D01*
X96816666Y-92564285D01*
X96769047Y-92659523D01*
X96769047Y-92802380D01*
X96721428Y-92897619D01*
X96626190Y-92945238D01*
X96578571Y-92945238D01*
X96483333Y-92897619D01*
X96435714Y-92802380D01*
X96435714Y-92659523D01*
X96483333Y-92564285D01*
X97054761Y-92135714D02*
X97102380Y-92040476D01*
X97102380Y-91850000D01*
X97054761Y-91754761D01*
X96959523Y-91707142D01*
X96911904Y-91707142D01*
X96816666Y-91754761D01*
X96769047Y-91850000D01*
X96769047Y-91992857D01*
X96721428Y-92088095D01*
X96626190Y-92135714D01*
X96578571Y-92135714D01*
X96483333Y-92088095D01*
X96435714Y-91992857D01*
X96435714Y-91850000D01*
X96483333Y-91754761D01*
X147566000Y-77622495D02*
X147613619Y-77527257D01*
X147613619Y-77384400D01*
X147566000Y-77241542D01*
X147470761Y-77146304D01*
X147375523Y-77098685D01*
X147185047Y-77051066D01*
X147042190Y-77051066D01*
X146851714Y-77098685D01*
X146756476Y-77146304D01*
X146661238Y-77241542D01*
X146613619Y-77384400D01*
X146613619Y-77479638D01*
X146661238Y-77622495D01*
X146708857Y-77670114D01*
X147042190Y-77670114D01*
X147042190Y-77479638D01*
X146613619Y-78098685D02*
X147613619Y-78098685D01*
X146613619Y-78670114D01*
X147613619Y-78670114D01*
X146613619Y-79146304D02*
X147613619Y-79146304D01*
X147613619Y-79384400D01*
X147566000Y-79527257D01*
X147470761Y-79622495D01*
X147375523Y-79670114D01*
X147185047Y-79717733D01*
X147042190Y-79717733D01*
X146851714Y-79670114D01*
X146756476Y-79622495D01*
X146661238Y-79527257D01*
X146613619Y-79384400D01*
X146613619Y-79146304D01*
X182750000Y-98961904D02*
X182702380Y-99057142D01*
X182702380Y-99200000D01*
X182750000Y-99342857D01*
X182845238Y-99438095D01*
X182940476Y-99485714D01*
X183130952Y-99533333D01*
X183273809Y-99533333D01*
X183464285Y-99485714D01*
X183559523Y-99438095D01*
X183654761Y-99342857D01*
X183702380Y-99200000D01*
X183702380Y-99104761D01*
X183654761Y-98961904D01*
X183607142Y-98914285D01*
X183273809Y-98914285D01*
X183273809Y-99104761D01*
X183702380Y-98485714D02*
X182702380Y-98485714D01*
X183702380Y-97914285D01*
X182702380Y-97914285D01*
X183702380Y-97438095D02*
X182702380Y-97438095D01*
X182702380Y-97200000D01*
X182750000Y-97057142D01*
X182845238Y-96961904D01*
X182940476Y-96914285D01*
X183130952Y-96866666D01*
X183273809Y-96866666D01*
X183464285Y-96914285D01*
X183559523Y-96961904D01*
X183654761Y-97057142D01*
X183702380Y-97200000D01*
X183702380Y-97438095D01*
X116726190Y-89578571D02*
X117059523Y-89578571D01*
X117202380Y-90102380D02*
X116726190Y-90102380D01*
X116726190Y-89102380D01*
X117202380Y-89102380D01*
X117535714Y-90102380D02*
X118059523Y-89435714D01*
X117535714Y-89435714D02*
X118059523Y-90102380D01*
X118440476Y-89435714D02*
X118440476Y-90435714D01*
X118440476Y-89483333D02*
X118535714Y-89435714D01*
X118726190Y-89435714D01*
X118821428Y-89483333D01*
X118869047Y-89530952D01*
X118916666Y-89626190D01*
X118916666Y-89911904D01*
X118869047Y-90007142D01*
X118821428Y-90054761D01*
X118726190Y-90102380D01*
X118535714Y-90102380D01*
X118440476Y-90054761D01*
X119773809Y-90102380D02*
X119773809Y-89578571D01*
X119726190Y-89483333D01*
X119630952Y-89435714D01*
X119440476Y-89435714D01*
X119345238Y-89483333D01*
X119773809Y-90054761D02*
X119678571Y-90102380D01*
X119440476Y-90102380D01*
X119345238Y-90054761D01*
X119297619Y-89959523D01*
X119297619Y-89864285D01*
X119345238Y-89769047D01*
X119440476Y-89721428D01*
X119678571Y-89721428D01*
X119773809Y-89673809D01*
X120250000Y-89435714D02*
X120250000Y-90102380D01*
X120250000Y-89530952D02*
X120297619Y-89483333D01*
X120392857Y-89435714D01*
X120535714Y-89435714D01*
X120630952Y-89483333D01*
X120678571Y-89578571D01*
X120678571Y-90102380D01*
X121107142Y-90054761D02*
X121202380Y-90102380D01*
X121392857Y-90102380D01*
X121488095Y-90054761D01*
X121535714Y-89959523D01*
X121535714Y-89911904D01*
X121488095Y-89816666D01*
X121392857Y-89769047D01*
X121250000Y-89769047D01*
X121154761Y-89721428D01*
X121107142Y-89626190D01*
X121107142Y-89578571D01*
X121154761Y-89483333D01*
X121250000Y-89435714D01*
X121392857Y-89435714D01*
X121488095Y-89483333D01*
X121964285Y-90102380D02*
X121964285Y-89435714D01*
X121964285Y-89102380D02*
X121916666Y-89150000D01*
X121964285Y-89197619D01*
X122011904Y-89150000D01*
X121964285Y-89102380D01*
X121964285Y-89197619D01*
X122583333Y-90102380D02*
X122488095Y-90054761D01*
X122440476Y-90007142D01*
X122392857Y-89911904D01*
X122392857Y-89626190D01*
X122440476Y-89530952D01*
X122488095Y-89483333D01*
X122583333Y-89435714D01*
X122726190Y-89435714D01*
X122821428Y-89483333D01*
X122869047Y-89530952D01*
X122916666Y-89626190D01*
X122916666Y-89911904D01*
X122869047Y-90007142D01*
X122821428Y-90054761D01*
X122726190Y-90102380D01*
X122583333Y-90102380D01*
X123345238Y-89435714D02*
X123345238Y-90102380D01*
X123345238Y-89530952D02*
X123392857Y-89483333D01*
X123488095Y-89435714D01*
X123630952Y-89435714D01*
X123726190Y-89483333D01*
X123773809Y-89578571D01*
X123773809Y-90102380D01*
%TO.C,C8*%
X129322533Y-94997542D02*
X129274914Y-95045161D01*
X129132057Y-95092780D01*
X129036819Y-95092780D01*
X128893961Y-95045161D01*
X128798723Y-94949923D01*
X128751104Y-94854685D01*
X128703485Y-94664209D01*
X128703485Y-94521352D01*
X128751104Y-94330876D01*
X128798723Y-94235638D01*
X128893961Y-94140400D01*
X129036819Y-94092780D01*
X129132057Y-94092780D01*
X129274914Y-94140400D01*
X129322533Y-94188019D01*
X129893961Y-94521352D02*
X129798723Y-94473733D01*
X129751104Y-94426114D01*
X129703485Y-94330876D01*
X129703485Y-94283257D01*
X129751104Y-94188019D01*
X129798723Y-94140400D01*
X129893961Y-94092780D01*
X130084438Y-94092780D01*
X130179676Y-94140400D01*
X130227295Y-94188019D01*
X130274914Y-94283257D01*
X130274914Y-94330876D01*
X130227295Y-94426114D01*
X130179676Y-94473733D01*
X130084438Y-94521352D01*
X129893961Y-94521352D01*
X129798723Y-94568971D01*
X129751104Y-94616590D01*
X129703485Y-94711828D01*
X129703485Y-94902304D01*
X129751104Y-94997542D01*
X129798723Y-95045161D01*
X129893961Y-95092780D01*
X130084438Y-95092780D01*
X130179676Y-95045161D01*
X130227295Y-94997542D01*
X130274914Y-94902304D01*
X130274914Y-94711828D01*
X130227295Y-94616590D01*
X130179676Y-94568971D01*
X130084438Y-94521352D01*
%TO.C,D4*%
X106957904Y-117241580D02*
X106957904Y-116241580D01*
X107196000Y-116241580D01*
X107338857Y-116289200D01*
X107434095Y-116384438D01*
X107481714Y-116479676D01*
X107529333Y-116670152D01*
X107529333Y-116813009D01*
X107481714Y-117003485D01*
X107434095Y-117098723D01*
X107338857Y-117193961D01*
X107196000Y-117241580D01*
X106957904Y-117241580D01*
X108386476Y-116574914D02*
X108386476Y-117241580D01*
X108148380Y-116193961D02*
X107910285Y-116908247D01*
X108529333Y-116908247D01*
%TO.C,C12*%
X129322533Y-102058742D02*
X129274914Y-102106361D01*
X129132057Y-102153980D01*
X129036819Y-102153980D01*
X128893962Y-102106361D01*
X128798724Y-102011123D01*
X128751105Y-101915885D01*
X128703486Y-101725409D01*
X128703486Y-101582552D01*
X128751105Y-101392076D01*
X128798724Y-101296838D01*
X128893962Y-101201600D01*
X129036819Y-101153980D01*
X129132057Y-101153980D01*
X129274914Y-101201600D01*
X129322533Y-101249219D01*
X130274914Y-102153980D02*
X129703486Y-102153980D01*
X129989200Y-102153980D02*
X129989200Y-101153980D01*
X129893962Y-101296838D01*
X129798724Y-101392076D01*
X129703486Y-101439695D01*
X130655867Y-101249219D02*
X130703486Y-101201600D01*
X130798724Y-101153980D01*
X131036819Y-101153980D01*
X131132057Y-101201600D01*
X131179676Y-101249219D01*
X131227295Y-101344457D01*
X131227295Y-101439695D01*
X131179676Y-101582552D01*
X130608248Y-102153980D01*
X131227295Y-102153980D01*
%TO.C,Q6*%
X170663517Y-107024419D02*
X170568279Y-106976800D01*
X170473041Y-106881561D01*
X170330184Y-106738704D01*
X170234946Y-106691085D01*
X170139708Y-106691085D01*
X170187327Y-106929180D02*
X170092089Y-106881561D01*
X169996851Y-106786323D01*
X169949232Y-106595847D01*
X169949232Y-106262514D01*
X169996851Y-106072038D01*
X170092089Y-105976800D01*
X170187327Y-105929180D01*
X170377803Y-105929180D01*
X170473041Y-105976800D01*
X170568279Y-106072038D01*
X170615898Y-106262514D01*
X170615898Y-106595847D01*
X170568279Y-106786323D01*
X170473041Y-106881561D01*
X170377803Y-106929180D01*
X170187327Y-106929180D01*
X171473041Y-105929180D02*
X171282565Y-105929180D01*
X171187327Y-105976800D01*
X171139708Y-106024419D01*
X171044470Y-106167276D01*
X170996851Y-106357752D01*
X170996851Y-106738704D01*
X171044470Y-106833942D01*
X171092089Y-106881561D01*
X171187327Y-106929180D01*
X171377803Y-106929180D01*
X171473041Y-106881561D01*
X171520660Y-106833942D01*
X171568279Y-106738704D01*
X171568279Y-106500609D01*
X171520660Y-106405371D01*
X171473041Y-106357752D01*
X171377803Y-106310133D01*
X171187327Y-106310133D01*
X171092089Y-106357752D01*
X171044470Y-106405371D01*
X170996851Y-106500609D01*
%TO.C,J10*%
X155117276Y-123053180D02*
X155117276Y-123767466D01*
X155069657Y-123910323D01*
X154974419Y-124005561D01*
X154831561Y-124053180D01*
X154736323Y-124053180D01*
X156117276Y-124053180D02*
X155545847Y-124053180D01*
X155831561Y-124053180D02*
X155831561Y-123053180D01*
X155736323Y-123196038D01*
X155641085Y-123291276D01*
X155545847Y-123338895D01*
X156736323Y-123053180D02*
X156831561Y-123053180D01*
X156926800Y-123100800D01*
X156974419Y-123148419D01*
X157022038Y-123243657D01*
X157069657Y-123434133D01*
X157069657Y-123672228D01*
X157022038Y-123862704D01*
X156974419Y-123957942D01*
X156926800Y-124005561D01*
X156831561Y-124053180D01*
X156736323Y-124053180D01*
X156641085Y-124005561D01*
X156593466Y-123957942D01*
X156545847Y-123862704D01*
X156498228Y-123672228D01*
X156498228Y-123434133D01*
X156545847Y-123243657D01*
X156593466Y-123148419D01*
X156641085Y-123100800D01*
X156736323Y-123053180D01*
%TO.C,J5*%
X89856666Y-101597380D02*
X89856666Y-102311666D01*
X89809047Y-102454523D01*
X89713809Y-102549761D01*
X89570952Y-102597380D01*
X89475714Y-102597380D01*
X90809047Y-101597380D02*
X90332857Y-101597380D01*
X90285238Y-102073571D01*
X90332857Y-102025952D01*
X90428095Y-101978333D01*
X90666190Y-101978333D01*
X90761428Y-102025952D01*
X90809047Y-102073571D01*
X90856666Y-102168809D01*
X90856666Y-102406904D01*
X90809047Y-102502142D01*
X90761428Y-102549761D01*
X90666190Y-102597380D01*
X90428095Y-102597380D01*
X90332857Y-102549761D01*
X90285238Y-102502142D01*
%TO.C,R14*%
X108780342Y-102908380D02*
X108447009Y-102432190D01*
X108208914Y-102908380D02*
X108208914Y-101908380D01*
X108589866Y-101908380D01*
X108685104Y-101956000D01*
X108732723Y-102003619D01*
X108780342Y-102098857D01*
X108780342Y-102241714D01*
X108732723Y-102336952D01*
X108685104Y-102384571D01*
X108589866Y-102432190D01*
X108208914Y-102432190D01*
X109732723Y-102908380D02*
X109161295Y-102908380D01*
X109447009Y-102908380D02*
X109447009Y-101908380D01*
X109351771Y-102051238D01*
X109256533Y-102146476D01*
X109161295Y-102194095D01*
X110589866Y-102241714D02*
X110589866Y-102908380D01*
X110351771Y-101860761D02*
X110113676Y-102575047D01*
X110732723Y-102575047D01*
%TO.C,D10*%
X174604514Y-122372380D02*
X174604514Y-121372380D01*
X174842609Y-121372380D01*
X174985466Y-121420000D01*
X175080704Y-121515238D01*
X175128323Y-121610476D01*
X175175942Y-121800952D01*
X175175942Y-121943809D01*
X175128323Y-122134285D01*
X175080704Y-122229523D01*
X174985466Y-122324761D01*
X174842609Y-122372380D01*
X174604514Y-122372380D01*
X176128323Y-122372380D02*
X175556895Y-122372380D01*
X175842609Y-122372380D02*
X175842609Y-121372380D01*
X175747371Y-121515238D01*
X175652133Y-121610476D01*
X175556895Y-121658095D01*
X176747371Y-121372380D02*
X176842609Y-121372380D01*
X176937847Y-121420000D01*
X176985466Y-121467619D01*
X177033085Y-121562857D01*
X177080704Y-121753333D01*
X177080704Y-121991428D01*
X177033085Y-122181904D01*
X176985466Y-122277142D01*
X176937847Y-122324761D01*
X176842609Y-122372380D01*
X176747371Y-122372380D01*
X176652133Y-122324761D01*
X176604514Y-122277142D01*
X176556895Y-122181904D01*
X176509276Y-121991428D01*
X176509276Y-121753333D01*
X176556895Y-121562857D01*
X176604514Y-121467619D01*
X176652133Y-121420000D01*
X176747371Y-121372380D01*
%TO.C,R35*%
X157141942Y-104490780D02*
X156808609Y-104014590D01*
X156570514Y-104490780D02*
X156570514Y-103490780D01*
X156951466Y-103490780D01*
X157046704Y-103538400D01*
X157094323Y-103586019D01*
X157141942Y-103681257D01*
X157141942Y-103824114D01*
X157094323Y-103919352D01*
X157046704Y-103966971D01*
X156951466Y-104014590D01*
X156570514Y-104014590D01*
X157475276Y-103490780D02*
X158094323Y-103490780D01*
X157760990Y-103871733D01*
X157903847Y-103871733D01*
X157999085Y-103919352D01*
X158046704Y-103966971D01*
X158094323Y-104062209D01*
X158094323Y-104300304D01*
X158046704Y-104395542D01*
X157999085Y-104443161D01*
X157903847Y-104490780D01*
X157618133Y-104490780D01*
X157522895Y-104443161D01*
X157475276Y-104395542D01*
X158999085Y-103490780D02*
X158522895Y-103490780D01*
X158475276Y-103966971D01*
X158522895Y-103919352D01*
X158618133Y-103871733D01*
X158856228Y-103871733D01*
X158951466Y-103919352D01*
X158999085Y-103966971D01*
X159046704Y-104062209D01*
X159046704Y-104300304D01*
X158999085Y-104395542D01*
X158951466Y-104443161D01*
X158856228Y-104490780D01*
X158618133Y-104490780D01*
X158522895Y-104443161D01*
X158475276Y-104395542D01*
%TO.C,R34*%
X153027142Y-104439980D02*
X152693809Y-103963790D01*
X152455714Y-104439980D02*
X152455714Y-103439980D01*
X152836666Y-103439980D01*
X152931904Y-103487600D01*
X152979523Y-103535219D01*
X153027142Y-103630457D01*
X153027142Y-103773314D01*
X152979523Y-103868552D01*
X152931904Y-103916171D01*
X152836666Y-103963790D01*
X152455714Y-103963790D01*
X153360476Y-103439980D02*
X153979523Y-103439980D01*
X153646190Y-103820933D01*
X153789047Y-103820933D01*
X153884285Y-103868552D01*
X153931904Y-103916171D01*
X153979523Y-104011409D01*
X153979523Y-104249504D01*
X153931904Y-104344742D01*
X153884285Y-104392361D01*
X153789047Y-104439980D01*
X153503333Y-104439980D01*
X153408095Y-104392361D01*
X153360476Y-104344742D01*
X154836666Y-103773314D02*
X154836666Y-104439980D01*
X154598571Y-103392361D02*
X154360476Y-104106647D01*
X154979523Y-104106647D01*
%TO.C,R39*%
X157141942Y-105709980D02*
X156808609Y-105233790D01*
X156570514Y-105709980D02*
X156570514Y-104709980D01*
X156951466Y-104709980D01*
X157046704Y-104757600D01*
X157094323Y-104805219D01*
X157141942Y-104900457D01*
X157141942Y-105043314D01*
X157094323Y-105138552D01*
X157046704Y-105186171D01*
X156951466Y-105233790D01*
X156570514Y-105233790D01*
X157475276Y-104709980D02*
X158094323Y-104709980D01*
X157760990Y-105090933D01*
X157903847Y-105090933D01*
X157999085Y-105138552D01*
X158046704Y-105186171D01*
X158094323Y-105281409D01*
X158094323Y-105519504D01*
X158046704Y-105614742D01*
X157999085Y-105662361D01*
X157903847Y-105709980D01*
X157618133Y-105709980D01*
X157522895Y-105662361D01*
X157475276Y-105614742D01*
X158570514Y-105709980D02*
X158760990Y-105709980D01*
X158856228Y-105662361D01*
X158903847Y-105614742D01*
X158999085Y-105471885D01*
X159046704Y-105281409D01*
X159046704Y-104900457D01*
X158999085Y-104805219D01*
X158951466Y-104757600D01*
X158856228Y-104709980D01*
X158665752Y-104709980D01*
X158570514Y-104757600D01*
X158522895Y-104805219D01*
X158475276Y-104900457D01*
X158475276Y-105138552D01*
X158522895Y-105233790D01*
X158570514Y-105281409D01*
X158665752Y-105329028D01*
X158856228Y-105329028D01*
X158951466Y-105281409D01*
X158999085Y-105233790D01*
X159046704Y-105138552D01*
%TO.C,R27*%
X174363799Y-104338380D02*
X174030466Y-103862190D01*
X173792371Y-104338380D02*
X173792371Y-103338380D01*
X174173323Y-103338380D01*
X174268561Y-103386000D01*
X174316180Y-103433619D01*
X174363799Y-103528857D01*
X174363799Y-103671714D01*
X174316180Y-103766952D01*
X174268561Y-103814571D01*
X174173323Y-103862190D01*
X173792371Y-103862190D01*
X174744752Y-103433619D02*
X174792371Y-103386000D01*
X174887609Y-103338380D01*
X175125704Y-103338380D01*
X175220942Y-103386000D01*
X175268561Y-103433619D01*
X175316180Y-103528857D01*
X175316180Y-103624095D01*
X175268561Y-103766952D01*
X174697133Y-104338380D01*
X175316180Y-104338380D01*
X175649514Y-103338380D02*
X176316180Y-103338380D01*
X175887609Y-104338380D01*
%TO.C,D14*%
X157434114Y-122372380D02*
X157434114Y-121372380D01*
X157672209Y-121372380D01*
X157815066Y-121420000D01*
X157910304Y-121515238D01*
X157957923Y-121610476D01*
X158005542Y-121800952D01*
X158005542Y-121943809D01*
X157957923Y-122134285D01*
X157910304Y-122229523D01*
X157815066Y-122324761D01*
X157672209Y-122372380D01*
X157434114Y-122372380D01*
X158957923Y-122372380D02*
X158386495Y-122372380D01*
X158672209Y-122372380D02*
X158672209Y-121372380D01*
X158576971Y-121515238D01*
X158481733Y-121610476D01*
X158386495Y-121658095D01*
X159815066Y-121705714D02*
X159815066Y-122372380D01*
X159576971Y-121324761D02*
X159338876Y-122039047D01*
X159957923Y-122039047D01*
%TO.C,R5*%
X108800333Y-88455780D02*
X108467000Y-87979590D01*
X108228904Y-88455780D02*
X108228904Y-87455780D01*
X108609857Y-87455780D01*
X108705095Y-87503400D01*
X108752714Y-87551019D01*
X108800333Y-87646257D01*
X108800333Y-87789114D01*
X108752714Y-87884352D01*
X108705095Y-87931971D01*
X108609857Y-87979590D01*
X108228904Y-87979590D01*
X109705095Y-87455780D02*
X109228904Y-87455780D01*
X109181285Y-87931971D01*
X109228904Y-87884352D01*
X109324142Y-87836733D01*
X109562238Y-87836733D01*
X109657476Y-87884352D01*
X109705095Y-87931971D01*
X109752714Y-88027209D01*
X109752714Y-88265304D01*
X109705095Y-88360542D01*
X109657476Y-88408161D01*
X109562238Y-88455780D01*
X109324142Y-88455780D01*
X109228904Y-88408161D01*
X109181285Y-88360542D01*
%TO.C,R15*%
X146001980Y-109393457D02*
X145525790Y-109726790D01*
X146001980Y-109964885D02*
X145001980Y-109964885D01*
X145001980Y-109583933D01*
X145049600Y-109488695D01*
X145097219Y-109441076D01*
X145192457Y-109393457D01*
X145335314Y-109393457D01*
X145430552Y-109441076D01*
X145478171Y-109488695D01*
X145525790Y-109583933D01*
X145525790Y-109964885D01*
X146001980Y-108441076D02*
X146001980Y-109012504D01*
X146001980Y-108726790D02*
X145001980Y-108726790D01*
X145144838Y-108822028D01*
X145240076Y-108917266D01*
X145287695Y-109012504D01*
X145001980Y-107536314D02*
X145001980Y-108012504D01*
X145478171Y-108060123D01*
X145430552Y-108012504D01*
X145382933Y-107917266D01*
X145382933Y-107679171D01*
X145430552Y-107583933D01*
X145478171Y-107536314D01*
X145573409Y-107488695D01*
X145811504Y-107488695D01*
X145906742Y-107536314D01*
X145954361Y-107583933D01*
X146001980Y-107679171D01*
X146001980Y-107917266D01*
X145954361Y-108012504D01*
X145906742Y-108060123D01*
%TO.C,SW3*%
X142125866Y-125525161D02*
X142268723Y-125572780D01*
X142506819Y-125572780D01*
X142602057Y-125525161D01*
X142649676Y-125477542D01*
X142697295Y-125382304D01*
X142697295Y-125287066D01*
X142649676Y-125191828D01*
X142602057Y-125144209D01*
X142506819Y-125096590D01*
X142316342Y-125048971D01*
X142221104Y-125001352D01*
X142173485Y-124953733D01*
X142125866Y-124858495D01*
X142125866Y-124763257D01*
X142173485Y-124668019D01*
X142221104Y-124620400D01*
X142316342Y-124572780D01*
X142554438Y-124572780D01*
X142697295Y-124620400D01*
X143030628Y-124572780D02*
X143268723Y-125572780D01*
X143459200Y-124858495D01*
X143649676Y-125572780D01*
X143887771Y-124572780D01*
X144173485Y-124572780D02*
X144792533Y-124572780D01*
X144459200Y-124953733D01*
X144602057Y-124953733D01*
X144697295Y-125001352D01*
X144744914Y-125048971D01*
X144792533Y-125144209D01*
X144792533Y-125382304D01*
X144744914Y-125477542D01*
X144697295Y-125525161D01*
X144602057Y-125572780D01*
X144316342Y-125572780D01*
X144221104Y-125525161D01*
X144173485Y-125477542D01*
%TO.C,R2*%
X111872733Y-88468800D02*
X111539400Y-87992610D01*
X111301304Y-88468800D02*
X111301304Y-87468800D01*
X111682257Y-87468800D01*
X111777495Y-87516420D01*
X111825114Y-87564039D01*
X111872733Y-87659277D01*
X111872733Y-87802134D01*
X111825114Y-87897372D01*
X111777495Y-87944991D01*
X111682257Y-87992610D01*
X111301304Y-87992610D01*
X112253685Y-87564039D02*
X112301304Y-87516420D01*
X112396542Y-87468800D01*
X112634638Y-87468800D01*
X112729876Y-87516420D01*
X112777495Y-87564039D01*
X112825114Y-87659277D01*
X112825114Y-87754515D01*
X112777495Y-87897372D01*
X112206066Y-88468800D01*
X112825114Y-88468800D01*
%TO.C,R24*%
X137398480Y-84361257D02*
X136922290Y-84694590D01*
X137398480Y-84932685D02*
X136398480Y-84932685D01*
X136398480Y-84551733D01*
X136446100Y-84456495D01*
X136493719Y-84408876D01*
X136588957Y-84361257D01*
X136731814Y-84361257D01*
X136827052Y-84408876D01*
X136874671Y-84456495D01*
X136922290Y-84551733D01*
X136922290Y-84932685D01*
X136493719Y-83980304D02*
X136446100Y-83932685D01*
X136398480Y-83837447D01*
X136398480Y-83599352D01*
X136446100Y-83504114D01*
X136493719Y-83456495D01*
X136588957Y-83408876D01*
X136684195Y-83408876D01*
X136827052Y-83456495D01*
X137398480Y-84027923D01*
X137398480Y-83408876D01*
X136731814Y-82551733D02*
X137398480Y-82551733D01*
X136350861Y-82789828D02*
X137065147Y-83027923D01*
X137065147Y-82408876D01*
%TO.C,R19*%
X150167580Y-109393457D02*
X149691390Y-109726790D01*
X150167580Y-109964885D02*
X149167580Y-109964885D01*
X149167580Y-109583933D01*
X149215200Y-109488695D01*
X149262819Y-109441076D01*
X149358057Y-109393457D01*
X149500914Y-109393457D01*
X149596152Y-109441076D01*
X149643771Y-109488695D01*
X149691390Y-109583933D01*
X149691390Y-109964885D01*
X150167580Y-108441076D02*
X150167580Y-109012504D01*
X150167580Y-108726790D02*
X149167580Y-108726790D01*
X149310438Y-108822028D01*
X149405676Y-108917266D01*
X149453295Y-109012504D01*
X150167580Y-107964885D02*
X150167580Y-107774409D01*
X150119961Y-107679171D01*
X150072342Y-107631552D01*
X149929485Y-107536314D01*
X149739009Y-107488695D01*
X149358057Y-107488695D01*
X149262819Y-107536314D01*
X149215200Y-107583933D01*
X149167580Y-107679171D01*
X149167580Y-107869647D01*
X149215200Y-107964885D01*
X149262819Y-108012504D01*
X149358057Y-108060123D01*
X149596152Y-108060123D01*
X149691390Y-108012504D01*
X149739009Y-107964885D01*
X149786628Y-107869647D01*
X149786628Y-107679171D01*
X149739009Y-107583933D01*
X149691390Y-107536314D01*
X149596152Y-107488695D01*
%TO.C,R16*%
X144746742Y-116428780D02*
X144413409Y-115952590D01*
X144175314Y-116428780D02*
X144175314Y-115428780D01*
X144556266Y-115428780D01*
X144651504Y-115476400D01*
X144699123Y-115524019D01*
X144746742Y-115619257D01*
X144746742Y-115762114D01*
X144699123Y-115857352D01*
X144651504Y-115904971D01*
X144556266Y-115952590D01*
X144175314Y-115952590D01*
X145699123Y-116428780D02*
X145127695Y-116428780D01*
X145413409Y-116428780D02*
X145413409Y-115428780D01*
X145318171Y-115571638D01*
X145222933Y-115666876D01*
X145127695Y-115714495D01*
X146556266Y-115428780D02*
X146365790Y-115428780D01*
X146270552Y-115476400D01*
X146222933Y-115524019D01*
X146127695Y-115666876D01*
X146080076Y-115857352D01*
X146080076Y-116238304D01*
X146127695Y-116333542D01*
X146175314Y-116381161D01*
X146270552Y-116428780D01*
X146461028Y-116428780D01*
X146556266Y-116381161D01*
X146603885Y-116333542D01*
X146651504Y-116238304D01*
X146651504Y-116000209D01*
X146603885Y-115904971D01*
X146556266Y-115857352D01*
X146461028Y-115809733D01*
X146270552Y-115809733D01*
X146175314Y-115857352D01*
X146127695Y-115904971D01*
X146080076Y-116000209D01*
%TO.C,BZ1*%
X108186647Y-106252971D02*
X108329504Y-106300590D01*
X108377123Y-106348209D01*
X108424742Y-106443447D01*
X108424742Y-106586304D01*
X108377123Y-106681542D01*
X108329504Y-106729161D01*
X108234266Y-106776780D01*
X107853314Y-106776780D01*
X107853314Y-105776780D01*
X108186647Y-105776780D01*
X108281885Y-105824400D01*
X108329504Y-105872019D01*
X108377123Y-105967257D01*
X108377123Y-106062495D01*
X108329504Y-106157733D01*
X108281885Y-106205352D01*
X108186647Y-106252971D01*
X107853314Y-106252971D01*
X108758076Y-105776780D02*
X109424742Y-105776780D01*
X108758076Y-106776780D01*
X109424742Y-106776780D01*
X110329504Y-106776780D02*
X109758076Y-106776780D01*
X110043790Y-106776780D02*
X110043790Y-105776780D01*
X109948552Y-105919638D01*
X109853314Y-106014876D01*
X109758076Y-106062495D01*
X109651847Y-109748628D02*
X110413752Y-109748628D01*
X110032800Y-110129580D02*
X110032800Y-109367676D01*
%TO.C,D13*%
X153166914Y-122372380D02*
X153166914Y-121372380D01*
X153405009Y-121372380D01*
X153547866Y-121420000D01*
X153643104Y-121515238D01*
X153690723Y-121610476D01*
X153738342Y-121800952D01*
X153738342Y-121943809D01*
X153690723Y-122134285D01*
X153643104Y-122229523D01*
X153547866Y-122324761D01*
X153405009Y-122372380D01*
X153166914Y-122372380D01*
X154690723Y-122372380D02*
X154119295Y-122372380D01*
X154405009Y-122372380D02*
X154405009Y-121372380D01*
X154309771Y-121515238D01*
X154214533Y-121610476D01*
X154119295Y-121658095D01*
X155024057Y-121372380D02*
X155643104Y-121372380D01*
X155309771Y-121753333D01*
X155452628Y-121753333D01*
X155547866Y-121800952D01*
X155595485Y-121848571D01*
X155643104Y-121943809D01*
X155643104Y-122181904D01*
X155595485Y-122277142D01*
X155547866Y-122324761D01*
X155452628Y-122372380D01*
X155166914Y-122372380D01*
X155071676Y-122324761D01*
X155024057Y-122277142D01*
%TO.C,C23*%
X131065542Y-115806457D02*
X131113161Y-115854076D01*
X131160780Y-115996933D01*
X131160780Y-116092171D01*
X131113161Y-116235028D01*
X131017923Y-116330266D01*
X130922685Y-116377885D01*
X130732209Y-116425504D01*
X130589352Y-116425504D01*
X130398876Y-116377885D01*
X130303638Y-116330266D01*
X130208400Y-116235028D01*
X130160780Y-116092171D01*
X130160780Y-115996933D01*
X130208400Y-115854076D01*
X130256019Y-115806457D01*
X130256019Y-115425504D02*
X130208400Y-115377885D01*
X130160780Y-115282647D01*
X130160780Y-115044552D01*
X130208400Y-114949314D01*
X130256019Y-114901695D01*
X130351257Y-114854076D01*
X130446495Y-114854076D01*
X130589352Y-114901695D01*
X131160780Y-115473123D01*
X131160780Y-114854076D01*
X130160780Y-114520742D02*
X130160780Y-113901695D01*
X130541733Y-114235028D01*
X130541733Y-114092171D01*
X130589352Y-113996933D01*
X130636971Y-113949314D01*
X130732209Y-113901695D01*
X130970304Y-113901695D01*
X131065542Y-113949314D01*
X131113161Y-113996933D01*
X131160780Y-114092171D01*
X131160780Y-114377885D01*
X131113161Y-114473123D01*
X131065542Y-114520742D01*
%TO.C,FB1*%
X98175771Y-104820933D02*
X98175771Y-105154266D01*
X98699580Y-105154266D02*
X97699580Y-105154266D01*
X97699580Y-104678076D01*
X98175771Y-103963790D02*
X98223390Y-103820933D01*
X98271009Y-103773314D01*
X98366247Y-103725695D01*
X98509104Y-103725695D01*
X98604342Y-103773314D01*
X98651961Y-103820933D01*
X98699580Y-103916171D01*
X98699580Y-104297123D01*
X97699580Y-104297123D01*
X97699580Y-103963790D01*
X97747200Y-103868552D01*
X97794819Y-103820933D01*
X97890057Y-103773314D01*
X97985295Y-103773314D01*
X98080533Y-103820933D01*
X98128152Y-103868552D01*
X98175771Y-103963790D01*
X98175771Y-104297123D01*
X98699580Y-102773314D02*
X98699580Y-103344742D01*
X98699580Y-103059028D02*
X97699580Y-103059028D01*
X97842438Y-103154266D01*
X97937676Y-103249504D01*
X97985295Y-103344742D01*
%TO.C,C21*%
X127567942Y-124142857D02*
X127615561Y-124190476D01*
X127663180Y-124333333D01*
X127663180Y-124428571D01*
X127615561Y-124571428D01*
X127520323Y-124666666D01*
X127425085Y-124714285D01*
X127234609Y-124761904D01*
X127091752Y-124761904D01*
X126901276Y-124714285D01*
X126806038Y-124666666D01*
X126710800Y-124571428D01*
X126663180Y-124428571D01*
X126663180Y-124333333D01*
X126710800Y-124190476D01*
X126758419Y-124142857D01*
X126758419Y-123761904D02*
X126710800Y-123714285D01*
X126663180Y-123619047D01*
X126663180Y-123380952D01*
X126710800Y-123285714D01*
X126758419Y-123238095D01*
X126853657Y-123190476D01*
X126948895Y-123190476D01*
X127091752Y-123238095D01*
X127663180Y-123809523D01*
X127663180Y-123190476D01*
X127663180Y-122238095D02*
X127663180Y-122809523D01*
X127663180Y-122523809D02*
X126663180Y-122523809D01*
X126806038Y-122619047D01*
X126901276Y-122714285D01*
X126948895Y-122809523D01*
%TO.C,F1*%
X99242571Y-121288133D02*
X99242571Y-121621466D01*
X99766380Y-121621466D02*
X98766380Y-121621466D01*
X98766380Y-121145276D01*
X99766380Y-120240514D02*
X99766380Y-120811942D01*
X99766380Y-120526228D02*
X98766380Y-120526228D01*
X98909238Y-120621466D01*
X99004476Y-120716704D01*
X99052095Y-120811942D01*
%TO.C,Q12*%
X161569971Y-107024419D02*
X161474733Y-106976800D01*
X161379495Y-106881561D01*
X161236638Y-106738704D01*
X161141400Y-106691085D01*
X161046161Y-106691085D01*
X161093780Y-106929180D02*
X160998542Y-106881561D01*
X160903304Y-106786323D01*
X160855685Y-106595847D01*
X160855685Y-106262514D01*
X160903304Y-106072038D01*
X160998542Y-105976800D01*
X161093780Y-105929180D01*
X161284257Y-105929180D01*
X161379495Y-105976800D01*
X161474733Y-106072038D01*
X161522352Y-106262514D01*
X161522352Y-106595847D01*
X161474733Y-106786323D01*
X161379495Y-106881561D01*
X161284257Y-106929180D01*
X161093780Y-106929180D01*
X162474733Y-106929180D02*
X161903304Y-106929180D01*
X162189019Y-106929180D02*
X162189019Y-105929180D01*
X162093780Y-106072038D01*
X161998542Y-106167276D01*
X161903304Y-106214895D01*
X162855685Y-106024419D02*
X162903304Y-105976800D01*
X162998542Y-105929180D01*
X163236638Y-105929180D01*
X163331876Y-105976800D01*
X163379495Y-106024419D01*
X163427114Y-106119657D01*
X163427114Y-106214895D01*
X163379495Y-106357752D01*
X162808066Y-106929180D01*
X163427114Y-106929180D01*
%TO.C,J11*%
X142809980Y-79143123D02*
X143524266Y-79143123D01*
X143667123Y-79190742D01*
X143762361Y-79285980D01*
X143809980Y-79428838D01*
X143809980Y-79524076D01*
X143809980Y-78143123D02*
X143809980Y-78714552D01*
X143809980Y-78428838D02*
X142809980Y-78428838D01*
X142952838Y-78524076D01*
X143048076Y-78619314D01*
X143095695Y-78714552D01*
X143809980Y-77190742D02*
X143809980Y-77762171D01*
X143809980Y-77476457D02*
X142809980Y-77476457D01*
X142952838Y-77571695D01*
X143048076Y-77666933D01*
X143095695Y-77762171D01*
%TO.C,C9*%
X129322533Y-97181942D02*
X129274914Y-97229561D01*
X129132057Y-97277180D01*
X129036819Y-97277180D01*
X128893961Y-97229561D01*
X128798723Y-97134323D01*
X128751104Y-97039085D01*
X128703485Y-96848609D01*
X128703485Y-96705752D01*
X128751104Y-96515276D01*
X128798723Y-96420038D01*
X128893961Y-96324800D01*
X129036819Y-96277180D01*
X129132057Y-96277180D01*
X129274914Y-96324800D01*
X129322533Y-96372419D01*
X129798723Y-97277180D02*
X129989200Y-97277180D01*
X130084438Y-97229561D01*
X130132057Y-97181942D01*
X130227295Y-97039085D01*
X130274914Y-96848609D01*
X130274914Y-96467657D01*
X130227295Y-96372419D01*
X130179676Y-96324800D01*
X130084438Y-96277180D01*
X129893961Y-96277180D01*
X129798723Y-96324800D01*
X129751104Y-96372419D01*
X129703485Y-96467657D01*
X129703485Y-96705752D01*
X129751104Y-96800990D01*
X129798723Y-96848609D01*
X129893961Y-96896228D01*
X130084438Y-96896228D01*
X130179676Y-96848609D01*
X130227295Y-96800990D01*
X130274914Y-96705752D01*
%TO.C,C5*%
X131354533Y-106071942D02*
X131306914Y-106119561D01*
X131164057Y-106167180D01*
X131068819Y-106167180D01*
X130925961Y-106119561D01*
X130830723Y-106024323D01*
X130783104Y-105929085D01*
X130735485Y-105738609D01*
X130735485Y-105595752D01*
X130783104Y-105405276D01*
X130830723Y-105310038D01*
X130925961Y-105214800D01*
X131068819Y-105167180D01*
X131164057Y-105167180D01*
X131306914Y-105214800D01*
X131354533Y-105262419D01*
X132259295Y-105167180D02*
X131783104Y-105167180D01*
X131735485Y-105643371D01*
X131783104Y-105595752D01*
X131878342Y-105548133D01*
X132116438Y-105548133D01*
X132211676Y-105595752D01*
X132259295Y-105643371D01*
X132306914Y-105738609D01*
X132306914Y-105976704D01*
X132259295Y-106071942D01*
X132211676Y-106119561D01*
X132116438Y-106167180D01*
X131878342Y-106167180D01*
X131783104Y-106119561D01*
X131735485Y-106071942D01*
%TO.C,R37*%
X165727142Y-104439980D02*
X165393809Y-103963790D01*
X165155714Y-104439980D02*
X165155714Y-103439980D01*
X165536666Y-103439980D01*
X165631904Y-103487600D01*
X165679523Y-103535219D01*
X165727142Y-103630457D01*
X165727142Y-103773314D01*
X165679523Y-103868552D01*
X165631904Y-103916171D01*
X165536666Y-103963790D01*
X165155714Y-103963790D01*
X166060476Y-103439980D02*
X166679523Y-103439980D01*
X166346190Y-103820933D01*
X166489047Y-103820933D01*
X166584285Y-103868552D01*
X166631904Y-103916171D01*
X166679523Y-104011409D01*
X166679523Y-104249504D01*
X166631904Y-104344742D01*
X166584285Y-104392361D01*
X166489047Y-104439980D01*
X166203333Y-104439980D01*
X166108095Y-104392361D01*
X166060476Y-104344742D01*
X167012857Y-103439980D02*
X167679523Y-103439980D01*
X167250952Y-104439980D01*
%TO.C,Q13*%
X165862571Y-107024419D02*
X165767333Y-106976800D01*
X165672095Y-106881561D01*
X165529238Y-106738704D01*
X165434000Y-106691085D01*
X165338761Y-106691085D01*
X165386380Y-106929180D02*
X165291142Y-106881561D01*
X165195904Y-106786323D01*
X165148285Y-106595847D01*
X165148285Y-106262514D01*
X165195904Y-106072038D01*
X165291142Y-105976800D01*
X165386380Y-105929180D01*
X165576857Y-105929180D01*
X165672095Y-105976800D01*
X165767333Y-106072038D01*
X165814952Y-106262514D01*
X165814952Y-106595847D01*
X165767333Y-106786323D01*
X165672095Y-106881561D01*
X165576857Y-106929180D01*
X165386380Y-106929180D01*
X166767333Y-106929180D02*
X166195904Y-106929180D01*
X166481619Y-106929180D02*
X166481619Y-105929180D01*
X166386380Y-106072038D01*
X166291142Y-106167276D01*
X166195904Y-106214895D01*
X167100666Y-105929180D02*
X167719714Y-105929180D01*
X167386380Y-106310133D01*
X167529238Y-106310133D01*
X167624476Y-106357752D01*
X167672095Y-106405371D01*
X167719714Y-106500609D01*
X167719714Y-106738704D01*
X167672095Y-106833942D01*
X167624476Y-106881561D01*
X167529238Y-106929180D01*
X167243523Y-106929180D01*
X167148285Y-106881561D01*
X167100666Y-106833942D01*
%TO.C,Q10*%
X153047771Y-107024419D02*
X152952533Y-106976800D01*
X152857295Y-106881561D01*
X152714438Y-106738704D01*
X152619200Y-106691085D01*
X152523961Y-106691085D01*
X152571580Y-106929180D02*
X152476342Y-106881561D01*
X152381104Y-106786323D01*
X152333485Y-106595847D01*
X152333485Y-106262514D01*
X152381104Y-106072038D01*
X152476342Y-105976800D01*
X152571580Y-105929180D01*
X152762057Y-105929180D01*
X152857295Y-105976800D01*
X152952533Y-106072038D01*
X153000152Y-106262514D01*
X153000152Y-106595847D01*
X152952533Y-106786323D01*
X152857295Y-106881561D01*
X152762057Y-106929180D01*
X152571580Y-106929180D01*
X153952533Y-106929180D02*
X153381104Y-106929180D01*
X153666819Y-106929180D02*
X153666819Y-105929180D01*
X153571580Y-106072038D01*
X153476342Y-106167276D01*
X153381104Y-106214895D01*
X154571580Y-105929180D02*
X154666819Y-105929180D01*
X154762057Y-105976800D01*
X154809676Y-106024419D01*
X154857295Y-106119657D01*
X154904914Y-106310133D01*
X154904914Y-106548228D01*
X154857295Y-106738704D01*
X154809676Y-106833942D01*
X154762057Y-106881561D01*
X154666819Y-106929180D01*
X154571580Y-106929180D01*
X154476342Y-106881561D01*
X154428723Y-106833942D01*
X154381104Y-106738704D01*
X154333485Y-106548228D01*
X154333485Y-106310133D01*
X154381104Y-106119657D01*
X154428723Y-106024419D01*
X154476342Y-105976800D01*
X154571580Y-105929180D01*
%TO.C,U3*%
X121564495Y-123315180D02*
X121564495Y-124124704D01*
X121612114Y-124219942D01*
X121659733Y-124267561D01*
X121754971Y-124315180D01*
X121945447Y-124315180D01*
X122040685Y-124267561D01*
X122088304Y-124219942D01*
X122135923Y-124124704D01*
X122135923Y-123315180D01*
X122516876Y-123315180D02*
X123135923Y-123315180D01*
X122802590Y-123696133D01*
X122945447Y-123696133D01*
X123040685Y-123743752D01*
X123088304Y-123791371D01*
X123135923Y-123886609D01*
X123135923Y-124124704D01*
X123088304Y-124219942D01*
X123040685Y-124267561D01*
X122945447Y-124315180D01*
X122659733Y-124315180D01*
X122564495Y-124267561D01*
X122516876Y-124219942D01*
%TO.C,D1*%
X100415980Y-114460495D02*
X99415980Y-114460495D01*
X99415980Y-114222400D01*
X99463600Y-114079542D01*
X99558838Y-113984304D01*
X99654076Y-113936685D01*
X99844552Y-113889066D01*
X99987409Y-113889066D01*
X100177885Y-113936685D01*
X100273123Y-113984304D01*
X100368361Y-114079542D01*
X100415980Y-114222400D01*
X100415980Y-114460495D01*
X100415980Y-112936685D02*
X100415980Y-113508114D01*
X100415980Y-113222400D02*
X99415980Y-113222400D01*
X99558838Y-113317638D01*
X99654076Y-113412876D01*
X99701695Y-113508114D01*
%TO.C,C24*%
X166683942Y-100109257D02*
X166731561Y-100156876D01*
X166779180Y-100299733D01*
X166779180Y-100394971D01*
X166731561Y-100537828D01*
X166636323Y-100633066D01*
X166541085Y-100680685D01*
X166350609Y-100728304D01*
X166207752Y-100728304D01*
X166017276Y-100680685D01*
X165922038Y-100633066D01*
X165826800Y-100537828D01*
X165779180Y-100394971D01*
X165779180Y-100299733D01*
X165826800Y-100156876D01*
X165874419Y-100109257D01*
X165874419Y-99728304D02*
X165826800Y-99680685D01*
X165779180Y-99585447D01*
X165779180Y-99347352D01*
X165826800Y-99252114D01*
X165874419Y-99204495D01*
X165969657Y-99156876D01*
X166064895Y-99156876D01*
X166207752Y-99204495D01*
X166779180Y-99775923D01*
X166779180Y-99156876D01*
X166112514Y-98299733D02*
X166779180Y-98299733D01*
X165731561Y-98537828D02*
X166445847Y-98775923D01*
X166445847Y-98156876D01*
%TO.C,Y1*%
X149028209Y-101220590D02*
X149028209Y-101696780D01*
X148694876Y-100696780D02*
X149028209Y-101220590D01*
X149361542Y-100696780D01*
X150218685Y-101696780D02*
X149647257Y-101696780D01*
X149932971Y-101696780D02*
X149932971Y-100696780D01*
X149837733Y-100839638D01*
X149742495Y-100934876D01*
X149647257Y-100982495D01*
%TO.C,D11*%
X178973314Y-122372380D02*
X178973314Y-121372380D01*
X179211409Y-121372380D01*
X179354266Y-121420000D01*
X179449504Y-121515238D01*
X179497123Y-121610476D01*
X179544742Y-121800952D01*
X179544742Y-121943809D01*
X179497123Y-122134285D01*
X179449504Y-122229523D01*
X179354266Y-122324761D01*
X179211409Y-122372380D01*
X178973314Y-122372380D01*
X180497123Y-122372380D02*
X179925695Y-122372380D01*
X180211409Y-122372380D02*
X180211409Y-121372380D01*
X180116171Y-121515238D01*
X180020933Y-121610476D01*
X179925695Y-121658095D01*
X181449504Y-122372380D02*
X180878076Y-122372380D01*
X181163790Y-122372380D02*
X181163790Y-121372380D01*
X181068552Y-121515238D01*
X180973314Y-121610476D01*
X180878076Y-121658095D01*
%TO.C,J7*%
X132682180Y-89461933D02*
X133396466Y-89461933D01*
X133539323Y-89509552D01*
X133634561Y-89604790D01*
X133682180Y-89747647D01*
X133682180Y-89842885D01*
X132682180Y-89080980D02*
X132682180Y-88414314D01*
X133682180Y-88842885D01*
%TO.C,C16*%
X129322533Y-103684342D02*
X129274914Y-103731961D01*
X129132057Y-103779580D01*
X129036819Y-103779580D01*
X128893962Y-103731961D01*
X128798724Y-103636723D01*
X128751105Y-103541485D01*
X128703486Y-103351009D01*
X128703486Y-103208152D01*
X128751105Y-103017676D01*
X128798724Y-102922438D01*
X128893962Y-102827200D01*
X129036819Y-102779580D01*
X129132057Y-102779580D01*
X129274914Y-102827200D01*
X129322533Y-102874819D01*
X130274914Y-103779580D02*
X129703486Y-103779580D01*
X129989200Y-103779580D02*
X129989200Y-102779580D01*
X129893962Y-102922438D01*
X129798724Y-103017676D01*
X129703486Y-103065295D01*
X131132057Y-102779580D02*
X130941581Y-102779580D01*
X130846343Y-102827200D01*
X130798724Y-102874819D01*
X130703486Y-103017676D01*
X130655867Y-103208152D01*
X130655867Y-103589104D01*
X130703486Y-103684342D01*
X130751105Y-103731961D01*
X130846343Y-103779580D01*
X131036819Y-103779580D01*
X131132057Y-103731961D01*
X131179676Y-103684342D01*
X131227295Y-103589104D01*
X131227295Y-103351009D01*
X131179676Y-103255771D01*
X131132057Y-103208152D01*
X131036819Y-103160533D01*
X130846343Y-103160533D01*
X130751105Y-103208152D01*
X130703486Y-103255771D01*
X130655867Y-103351009D01*
%TO.C,TP1*%
X128786095Y-120349580D02*
X129357523Y-120349580D01*
X129071809Y-121349580D02*
X129071809Y-120349580D01*
X129690857Y-121349580D02*
X129690857Y-120349580D01*
X130071809Y-120349580D01*
X130167047Y-120397200D01*
X130214666Y-120444819D01*
X130262285Y-120540057D01*
X130262285Y-120682914D01*
X130214666Y-120778152D01*
X130167047Y-120825771D01*
X130071809Y-120873390D01*
X129690857Y-120873390D01*
X131214666Y-121349580D02*
X130643238Y-121349580D01*
X130928952Y-121349580D02*
X130928952Y-120349580D01*
X130833714Y-120492438D01*
X130738476Y-120587676D01*
X130643238Y-120635295D01*
%TO.C,J1*%
X119803666Y-94447380D02*
X119803666Y-95161666D01*
X119756047Y-95304523D01*
X119660809Y-95399761D01*
X119517952Y-95447380D01*
X119422714Y-95447380D01*
X120803666Y-95447380D02*
X120232238Y-95447380D01*
X120517952Y-95447380D02*
X120517952Y-94447380D01*
X120422714Y-94590238D01*
X120327476Y-94685476D01*
X120232238Y-94733095D01*
%TO.C,D5*%
X100528380Y-105132095D02*
X99528380Y-105132095D01*
X99528380Y-104894000D01*
X99576000Y-104751142D01*
X99671238Y-104655904D01*
X99766476Y-104608285D01*
X99956952Y-104560666D01*
X100099809Y-104560666D01*
X100290285Y-104608285D01*
X100385523Y-104655904D01*
X100480761Y-104751142D01*
X100528380Y-104894000D01*
X100528380Y-105132095D01*
X99528380Y-103655904D02*
X99528380Y-104132095D01*
X100004571Y-104179714D01*
X99956952Y-104132095D01*
X99909333Y-104036857D01*
X99909333Y-103798761D01*
X99956952Y-103703523D01*
X100004571Y-103655904D01*
X100099809Y-103608285D01*
X100337904Y-103608285D01*
X100433142Y-103655904D01*
X100480761Y-103703523D01*
X100528380Y-103798761D01*
X100528380Y-104036857D01*
X100480761Y-104132095D01*
X100433142Y-104179714D01*
%TO.C,J3*%
X97496380Y-111890133D02*
X98210666Y-111890133D01*
X98353523Y-111937752D01*
X98448761Y-112032990D01*
X98496380Y-112175847D01*
X98496380Y-112271085D01*
X97496380Y-111509180D02*
X97496380Y-110890133D01*
X97877333Y-111223466D01*
X97877333Y-111080609D01*
X97924952Y-110985371D01*
X97972571Y-110937752D01*
X98067809Y-110890133D01*
X98305904Y-110890133D01*
X98401142Y-110937752D01*
X98448761Y-110985371D01*
X98496380Y-111080609D01*
X98496380Y-111366323D01*
X98448761Y-111461561D01*
X98401142Y-111509180D01*
%TO.C,R30*%
X170037369Y-105629781D02*
X169704036Y-105153591D01*
X169465941Y-105629781D02*
X169465941Y-104629781D01*
X169846893Y-104629781D01*
X169942131Y-104677401D01*
X169989750Y-104725020D01*
X170037369Y-104820258D01*
X170037369Y-104963115D01*
X169989750Y-105058353D01*
X169942131Y-105105972D01*
X169846893Y-105153591D01*
X169465941Y-105153591D01*
X170370703Y-104629781D02*
X170989750Y-104629781D01*
X170656417Y-105010734D01*
X170799274Y-105010734D01*
X170894512Y-105058353D01*
X170942131Y-105105972D01*
X170989750Y-105201210D01*
X170989750Y-105439305D01*
X170942131Y-105534543D01*
X170894512Y-105582162D01*
X170799274Y-105629781D01*
X170513560Y-105629781D01*
X170418322Y-105582162D01*
X170370703Y-105534543D01*
X171608798Y-104629781D02*
X171704036Y-104629781D01*
X171799274Y-104677401D01*
X171846893Y-104725020D01*
X171894512Y-104820258D01*
X171942131Y-105010734D01*
X171942131Y-105248829D01*
X171894512Y-105439305D01*
X171846893Y-105534543D01*
X171799274Y-105582162D01*
X171704036Y-105629781D01*
X171608798Y-105629781D01*
X171513560Y-105582162D01*
X171465941Y-105534543D01*
X171418322Y-105439305D01*
X171370703Y-105248829D01*
X171370703Y-105010734D01*
X171418322Y-104820258D01*
X171465941Y-104725020D01*
X171513560Y-104677401D01*
X171608798Y-104629781D01*
%TO.C,C15*%
X136581142Y-109484300D02*
X136628761Y-109531919D01*
X136676380Y-109674776D01*
X136676380Y-109770014D01*
X136628761Y-109912871D01*
X136533523Y-110008109D01*
X136438285Y-110055728D01*
X136247809Y-110103347D01*
X136104952Y-110103347D01*
X135914476Y-110055728D01*
X135819238Y-110008109D01*
X135724000Y-109912871D01*
X135676380Y-109770014D01*
X135676380Y-109674776D01*
X135724000Y-109531919D01*
X135771619Y-109484300D01*
X136676380Y-108531919D02*
X136676380Y-109103347D01*
X136676380Y-108817633D02*
X135676380Y-108817633D01*
X135819238Y-108912871D01*
X135914476Y-109008109D01*
X135962095Y-109103347D01*
X135676380Y-107627157D02*
X135676380Y-108103347D01*
X136152571Y-108150966D01*
X136104952Y-108103347D01*
X136057333Y-108008109D01*
X136057333Y-107770014D01*
X136104952Y-107674776D01*
X136152571Y-107627157D01*
X136247809Y-107579538D01*
X136485904Y-107579538D01*
X136581142Y-107627157D01*
X136628761Y-107674776D01*
X136676380Y-107770014D01*
X136676380Y-108008109D01*
X136628761Y-108103347D01*
X136581142Y-108150966D01*
%TO.C,D7*%
X140638304Y-118663980D02*
X140638304Y-117663980D01*
X140876400Y-117663980D01*
X141019257Y-117711600D01*
X141114495Y-117806838D01*
X141162114Y-117902076D01*
X141209733Y-118092552D01*
X141209733Y-118235409D01*
X141162114Y-118425885D01*
X141114495Y-118521123D01*
X141019257Y-118616361D01*
X140876400Y-118663980D01*
X140638304Y-118663980D01*
X141543066Y-117663980D02*
X142209733Y-117663980D01*
X141781161Y-118663980D01*
%TO.C,D16*%
X165968514Y-122372380D02*
X165968514Y-121372380D01*
X166206609Y-121372380D01*
X166349466Y-121420000D01*
X166444704Y-121515238D01*
X166492323Y-121610476D01*
X166539942Y-121800952D01*
X166539942Y-121943809D01*
X166492323Y-122134285D01*
X166444704Y-122229523D01*
X166349466Y-122324761D01*
X166206609Y-122372380D01*
X165968514Y-122372380D01*
X167492323Y-122372380D02*
X166920895Y-122372380D01*
X167206609Y-122372380D02*
X167206609Y-121372380D01*
X167111371Y-121515238D01*
X167016133Y-121610476D01*
X166920895Y-121658095D01*
X168349466Y-121372380D02*
X168158990Y-121372380D01*
X168063752Y-121420000D01*
X168016133Y-121467619D01*
X167920895Y-121610476D01*
X167873276Y-121800952D01*
X167873276Y-122181904D01*
X167920895Y-122277142D01*
X167968514Y-122324761D01*
X168063752Y-122372380D01*
X168254228Y-122372380D01*
X168349466Y-122324761D01*
X168397085Y-122277142D01*
X168444704Y-122181904D01*
X168444704Y-121943809D01*
X168397085Y-121848571D01*
X168349466Y-121800952D01*
X168254228Y-121753333D01*
X168063752Y-121753333D01*
X167968514Y-121800952D01*
X167920895Y-121848571D01*
X167873276Y-121943809D01*
%TO.C,D6*%
X135537180Y-119305295D02*
X134537180Y-119305295D01*
X134537180Y-119067200D01*
X134584800Y-118924342D01*
X134680038Y-118829104D01*
X134775276Y-118781485D01*
X134965752Y-118733866D01*
X135108609Y-118733866D01*
X135299085Y-118781485D01*
X135394323Y-118829104D01*
X135489561Y-118924342D01*
X135537180Y-119067200D01*
X135537180Y-119305295D01*
X134537180Y-117876723D02*
X134537180Y-118067200D01*
X134584800Y-118162438D01*
X134632419Y-118210057D01*
X134775276Y-118305295D01*
X134965752Y-118352914D01*
X135346704Y-118352914D01*
X135441942Y-118305295D01*
X135489561Y-118257676D01*
X135537180Y-118162438D01*
X135537180Y-117971961D01*
X135489561Y-117876723D01*
X135441942Y-117829104D01*
X135346704Y-117781485D01*
X135108609Y-117781485D01*
X135013371Y-117829104D01*
X134965752Y-117876723D01*
X134918133Y-117971961D01*
X134918133Y-118162438D01*
X134965752Y-118257676D01*
X135013371Y-118305295D01*
X135108609Y-118352914D01*
%TO.C,R3*%
X141717733Y-122466380D02*
X141384400Y-121990190D01*
X141146304Y-122466380D02*
X141146304Y-121466380D01*
X141527257Y-121466380D01*
X141622495Y-121514000D01*
X141670114Y-121561619D01*
X141717733Y-121656857D01*
X141717733Y-121799714D01*
X141670114Y-121894952D01*
X141622495Y-121942571D01*
X141527257Y-121990190D01*
X141146304Y-121990190D01*
X142051066Y-121466380D02*
X142670114Y-121466380D01*
X142336780Y-121847333D01*
X142479638Y-121847333D01*
X142574876Y-121894952D01*
X142622495Y-121942571D01*
X142670114Y-122037809D01*
X142670114Y-122275904D01*
X142622495Y-122371142D01*
X142574876Y-122418761D01*
X142479638Y-122466380D01*
X142193923Y-122466380D01*
X142098685Y-122418761D01*
X142051066Y-122371142D01*
%TO.C,Q5*%
X151576019Y-109315238D02*
X151528400Y-109410476D01*
X151433161Y-109505714D01*
X151290304Y-109648571D01*
X151242685Y-109743809D01*
X151242685Y-109839047D01*
X151480780Y-109791428D02*
X151433161Y-109886666D01*
X151337923Y-109981904D01*
X151147447Y-110029523D01*
X150814114Y-110029523D01*
X150623638Y-109981904D01*
X150528400Y-109886666D01*
X150480780Y-109791428D01*
X150480780Y-109600952D01*
X150528400Y-109505714D01*
X150623638Y-109410476D01*
X150814114Y-109362857D01*
X151147447Y-109362857D01*
X151337923Y-109410476D01*
X151433161Y-109505714D01*
X151480780Y-109600952D01*
X151480780Y-109791428D01*
X150480780Y-108458095D02*
X150480780Y-108934285D01*
X150956971Y-108981904D01*
X150909352Y-108934285D01*
X150861733Y-108839047D01*
X150861733Y-108600952D01*
X150909352Y-108505714D01*
X150956971Y-108458095D01*
X151052209Y-108410476D01*
X151290304Y-108410476D01*
X151385542Y-108458095D01*
X151433161Y-108505714D01*
X151480780Y-108600952D01*
X151480780Y-108839047D01*
X151433161Y-108934285D01*
X151385542Y-108981904D01*
%TO.C,J4*%
X85250380Y-121027889D02*
X85964666Y-121027889D01*
X86107523Y-121075508D01*
X86202761Y-121170746D01*
X86250380Y-121313603D01*
X86250380Y-121408841D01*
X85583714Y-120123127D02*
X86250380Y-120123127D01*
X85202761Y-120361222D02*
X85917047Y-120599317D01*
X85917047Y-119980270D01*
%TO.C,SW4*%
X134302666Y-125474361D02*
X134445523Y-125521980D01*
X134683619Y-125521980D01*
X134778857Y-125474361D01*
X134826476Y-125426742D01*
X134874095Y-125331504D01*
X134874095Y-125236266D01*
X134826476Y-125141028D01*
X134778857Y-125093409D01*
X134683619Y-125045790D01*
X134493142Y-124998171D01*
X134397904Y-124950552D01*
X134350285Y-124902933D01*
X134302666Y-124807695D01*
X134302666Y-124712457D01*
X134350285Y-124617219D01*
X134397904Y-124569600D01*
X134493142Y-124521980D01*
X134731238Y-124521980D01*
X134874095Y-124569600D01*
X135207428Y-124521980D02*
X135445523Y-125521980D01*
X135636000Y-124807695D01*
X135826476Y-125521980D01*
X136064571Y-124521980D01*
X136874095Y-124855314D02*
X136874095Y-125521980D01*
X136636000Y-124474361D02*
X136397904Y-125188647D01*
X137016952Y-125188647D01*
%TO.C,L1*%
X125614133Y-118714780D02*
X125137942Y-118714780D01*
X125137942Y-117714780D01*
X126471276Y-118714780D02*
X125899847Y-118714780D01*
X126185561Y-118714780D02*
X126185561Y-117714780D01*
X126090323Y-117857638D01*
X125995085Y-117952876D01*
X125899847Y-118000495D01*
%TO.C,D2*%
X124182478Y-134361180D02*
X124182478Y-133361180D01*
X124420574Y-133361180D01*
X124563431Y-133408800D01*
X124658669Y-133504038D01*
X124706288Y-133599276D01*
X124753907Y-133789752D01*
X124753907Y-133932609D01*
X124706288Y-134123085D01*
X124658669Y-134218323D01*
X124563431Y-134313561D01*
X124420574Y-134361180D01*
X124182478Y-134361180D01*
X125134859Y-133456419D02*
X125182478Y-133408800D01*
X125277716Y-133361180D01*
X125515812Y-133361180D01*
X125611050Y-133408800D01*
X125658669Y-133456419D01*
X125706288Y-133551657D01*
X125706288Y-133646895D01*
X125658669Y-133789752D01*
X125087240Y-134361180D01*
X125706288Y-134361180D01*
%TO.C,TP3*%
X121013695Y-114260380D02*
X121585123Y-114260380D01*
X121299409Y-115260380D02*
X121299409Y-114260380D01*
X121918457Y-115260380D02*
X121918457Y-114260380D01*
X122299409Y-114260380D01*
X122394647Y-114308000D01*
X122442266Y-114355619D01*
X122489885Y-114450857D01*
X122489885Y-114593714D01*
X122442266Y-114688952D01*
X122394647Y-114736571D01*
X122299409Y-114784190D01*
X121918457Y-114784190D01*
X122823219Y-114260380D02*
X123442266Y-114260380D01*
X123108933Y-114641333D01*
X123251790Y-114641333D01*
X123347028Y-114688952D01*
X123394647Y-114736571D01*
X123442266Y-114831809D01*
X123442266Y-115069904D01*
X123394647Y-115165142D01*
X123347028Y-115212761D01*
X123251790Y-115260380D01*
X122966076Y-115260380D01*
X122870838Y-115212761D01*
X122823219Y-115165142D01*
%TO.C,C1*%
X145667933Y-105614742D02*
X145620314Y-105662361D01*
X145477457Y-105709980D01*
X145382219Y-105709980D01*
X145239361Y-105662361D01*
X145144123Y-105567123D01*
X145096504Y-105471885D01*
X145048885Y-105281409D01*
X145048885Y-105138552D01*
X145096504Y-104948076D01*
X145144123Y-104852838D01*
X145239361Y-104757600D01*
X145382219Y-104709980D01*
X145477457Y-104709980D01*
X145620314Y-104757600D01*
X145667933Y-104805219D01*
X146620314Y-105709980D02*
X146048885Y-105709980D01*
X146334600Y-105709980D02*
X146334600Y-104709980D01*
X146239361Y-104852838D01*
X146144123Y-104948076D01*
X146048885Y-104995695D01*
%TO.C,C18*%
X112371142Y-120886457D02*
X112418761Y-120934076D01*
X112466380Y-121076933D01*
X112466380Y-121172171D01*
X112418761Y-121315028D01*
X112323523Y-121410266D01*
X112228285Y-121457885D01*
X112037809Y-121505504D01*
X111894952Y-121505504D01*
X111704476Y-121457885D01*
X111609238Y-121410266D01*
X111514000Y-121315028D01*
X111466380Y-121172171D01*
X111466380Y-121076933D01*
X111514000Y-120934076D01*
X111561619Y-120886457D01*
X112466380Y-119934076D02*
X112466380Y-120505504D01*
X112466380Y-120219790D02*
X111466380Y-120219790D01*
X111609238Y-120315028D01*
X111704476Y-120410266D01*
X111752095Y-120505504D01*
X111894952Y-119362647D02*
X111847333Y-119457885D01*
X111799714Y-119505504D01*
X111704476Y-119553123D01*
X111656857Y-119553123D01*
X111561619Y-119505504D01*
X111514000Y-119457885D01*
X111466380Y-119362647D01*
X111466380Y-119172171D01*
X111514000Y-119076933D01*
X111561619Y-119029314D01*
X111656857Y-118981695D01*
X111704476Y-118981695D01*
X111799714Y-119029314D01*
X111847333Y-119076933D01*
X111894952Y-119172171D01*
X111894952Y-119362647D01*
X111942571Y-119457885D01*
X111990190Y-119505504D01*
X112085428Y-119553123D01*
X112275904Y-119553123D01*
X112371142Y-119505504D01*
X112418761Y-119457885D01*
X112466380Y-119362647D01*
X112466380Y-119172171D01*
X112418761Y-119076933D01*
X112371142Y-119029314D01*
X112275904Y-118981695D01*
X112085428Y-118981695D01*
X111990190Y-119029314D01*
X111942571Y-119076933D01*
X111894952Y-119172171D01*
%TO.C,TP5*%
X147277295Y-90695980D02*
X147848723Y-90695980D01*
X147563009Y-91695980D02*
X147563009Y-90695980D01*
X148182057Y-91695980D02*
X148182057Y-90695980D01*
X148563009Y-90695980D01*
X148658247Y-90743600D01*
X148705866Y-90791219D01*
X148753485Y-90886457D01*
X148753485Y-91029314D01*
X148705866Y-91124552D01*
X148658247Y-91172171D01*
X148563009Y-91219790D01*
X148182057Y-91219790D01*
X149658247Y-90695980D02*
X149182057Y-90695980D01*
X149134438Y-91172171D01*
X149182057Y-91124552D01*
X149277295Y-91076933D01*
X149515390Y-91076933D01*
X149610628Y-91124552D01*
X149658247Y-91172171D01*
X149705866Y-91267409D01*
X149705866Y-91505504D01*
X149658247Y-91600742D01*
X149610628Y-91648361D01*
X149515390Y-91695980D01*
X149277295Y-91695980D01*
X149182057Y-91648361D01*
X149134438Y-91600742D01*
%TO.C,D15*%
X161666043Y-122372380D02*
X161666043Y-121372380D01*
X161904138Y-121372380D01*
X162046995Y-121420000D01*
X162142233Y-121515238D01*
X162189852Y-121610476D01*
X162237471Y-121800952D01*
X162237471Y-121943809D01*
X162189852Y-122134285D01*
X162142233Y-122229523D01*
X162046995Y-122324761D01*
X161904138Y-122372380D01*
X161666043Y-122372380D01*
X163189852Y-122372380D02*
X162618424Y-122372380D01*
X162904138Y-122372380D02*
X162904138Y-121372380D01*
X162808900Y-121515238D01*
X162713662Y-121610476D01*
X162618424Y-121658095D01*
X164094614Y-121372380D02*
X163618424Y-121372380D01*
X163570805Y-121848571D01*
X163618424Y-121800952D01*
X163713662Y-121753333D01*
X163951757Y-121753333D01*
X164046995Y-121800952D01*
X164094614Y-121848571D01*
X164142233Y-121943809D01*
X164142233Y-122181904D01*
X164094614Y-122277142D01*
X164046995Y-122324761D01*
X163951757Y-122372380D01*
X163713662Y-122372380D01*
X163618424Y-122324761D01*
X163570805Y-122277142D01*
%TO.C,R29*%
X182994715Y-104389180D02*
X182661382Y-103912990D01*
X182423287Y-104389180D02*
X182423287Y-103389180D01*
X182804239Y-103389180D01*
X182899477Y-103436800D01*
X182947096Y-103484419D01*
X182994715Y-103579657D01*
X182994715Y-103722514D01*
X182947096Y-103817752D01*
X182899477Y-103865371D01*
X182804239Y-103912990D01*
X182423287Y-103912990D01*
X183375668Y-103484419D02*
X183423287Y-103436800D01*
X183518525Y-103389180D01*
X183756620Y-103389180D01*
X183851858Y-103436800D01*
X183899477Y-103484419D01*
X183947096Y-103579657D01*
X183947096Y-103674895D01*
X183899477Y-103817752D01*
X183328049Y-104389180D01*
X183947096Y-104389180D01*
X184423287Y-104389180D02*
X184613763Y-104389180D01*
X184709001Y-104341561D01*
X184756620Y-104293942D01*
X184851858Y-104151085D01*
X184899477Y-103960609D01*
X184899477Y-103579657D01*
X184851858Y-103484419D01*
X184804239Y-103436800D01*
X184709001Y-103389180D01*
X184518525Y-103389180D01*
X184423287Y-103436800D01*
X184375668Y-103484419D01*
X184328049Y-103579657D01*
X184328049Y-103817752D01*
X184375668Y-103912990D01*
X184423287Y-103960609D01*
X184518525Y-104008228D01*
X184709001Y-104008228D01*
X184804239Y-103960609D01*
X184851858Y-103912990D01*
X184899477Y-103817752D01*
%TO.C,R7*%
X129322533Y-100680780D02*
X128989200Y-100204590D01*
X128751104Y-100680780D02*
X128751104Y-99680780D01*
X129132057Y-99680780D01*
X129227295Y-99728400D01*
X129274914Y-99776019D01*
X129322533Y-99871257D01*
X129322533Y-100014114D01*
X129274914Y-100109352D01*
X129227295Y-100156971D01*
X129132057Y-100204590D01*
X128751104Y-100204590D01*
X129655866Y-99680780D02*
X130322533Y-99680780D01*
X129893961Y-100680780D01*
%TO.C,Q8*%
X179309760Y-107024419D02*
X179214522Y-106976800D01*
X179119284Y-106881561D01*
X178976427Y-106738704D01*
X178881189Y-106691085D01*
X178785951Y-106691085D01*
X178833570Y-106929180D02*
X178738332Y-106881561D01*
X178643094Y-106786323D01*
X178595475Y-106595847D01*
X178595475Y-106262514D01*
X178643094Y-106072038D01*
X178738332Y-105976800D01*
X178833570Y-105929180D01*
X179024046Y-105929180D01*
X179119284Y-105976800D01*
X179214522Y-106072038D01*
X179262141Y-106262514D01*
X179262141Y-106595847D01*
X179214522Y-106786323D01*
X179119284Y-106881561D01*
X179024046Y-106929180D01*
X178833570Y-106929180D01*
X179833570Y-106357752D02*
X179738332Y-106310133D01*
X179690713Y-106262514D01*
X179643094Y-106167276D01*
X179643094Y-106119657D01*
X179690713Y-106024419D01*
X179738332Y-105976800D01*
X179833570Y-105929180D01*
X180024046Y-105929180D01*
X180119284Y-105976800D01*
X180166903Y-106024419D01*
X180214522Y-106119657D01*
X180214522Y-106167276D01*
X180166903Y-106262514D01*
X180119284Y-106310133D01*
X180024046Y-106357752D01*
X179833570Y-106357752D01*
X179738332Y-106405371D01*
X179690713Y-106452990D01*
X179643094Y-106548228D01*
X179643094Y-106738704D01*
X179690713Y-106833942D01*
X179738332Y-106881561D01*
X179833570Y-106929180D01*
X180024046Y-106929180D01*
X180119284Y-106881561D01*
X180166903Y-106833942D01*
X180214522Y-106738704D01*
X180214522Y-106548228D01*
X180166903Y-106452990D01*
X180119284Y-106405371D01*
X180024046Y-106357752D01*
%TO.C,R11*%
X119194342Y-117029980D02*
X118861009Y-116553790D01*
X118622914Y-117029980D02*
X118622914Y-116029980D01*
X119003866Y-116029980D01*
X119099104Y-116077600D01*
X119146723Y-116125219D01*
X119194342Y-116220457D01*
X119194342Y-116363314D01*
X119146723Y-116458552D01*
X119099104Y-116506171D01*
X119003866Y-116553790D01*
X118622914Y-116553790D01*
X120146723Y-117029980D02*
X119575295Y-117029980D01*
X119861009Y-117029980D02*
X119861009Y-116029980D01*
X119765771Y-116172838D01*
X119670533Y-116268076D01*
X119575295Y-116315695D01*
X121099104Y-117029980D02*
X120527676Y-117029980D01*
X120813390Y-117029980D02*
X120813390Y-116029980D01*
X120718152Y-116172838D01*
X120622914Y-116268076D01*
X120527676Y-116315695D01*
%TO.C,D9*%
X170762704Y-122372380D02*
X170762704Y-121372380D01*
X171000800Y-121372380D01*
X171143657Y-121420000D01*
X171238895Y-121515238D01*
X171286514Y-121610476D01*
X171334133Y-121800952D01*
X171334133Y-121943809D01*
X171286514Y-122134285D01*
X171238895Y-122229523D01*
X171143657Y-122324761D01*
X171000800Y-122372380D01*
X170762704Y-122372380D01*
X171810323Y-122372380D02*
X172000800Y-122372380D01*
X172096038Y-122324761D01*
X172143657Y-122277142D01*
X172238895Y-122134285D01*
X172286514Y-121943809D01*
X172286514Y-121562857D01*
X172238895Y-121467619D01*
X172191276Y-121420000D01*
X172096038Y-121372380D01*
X171905561Y-121372380D01*
X171810323Y-121420000D01*
X171762704Y-121467619D01*
X171715085Y-121562857D01*
X171715085Y-121800952D01*
X171762704Y-121896190D01*
X171810323Y-121943809D01*
X171905561Y-121991428D01*
X172096038Y-121991428D01*
X172191276Y-121943809D01*
X172238895Y-121896190D01*
X172286514Y-121800952D01*
%TO.C,C10*%
X133547142Y-94355857D02*
X133594761Y-94403476D01*
X133642380Y-94546333D01*
X133642380Y-94641571D01*
X133594761Y-94784428D01*
X133499523Y-94879666D01*
X133404285Y-94927285D01*
X133213809Y-94974904D01*
X133070952Y-94974904D01*
X132880476Y-94927285D01*
X132785238Y-94879666D01*
X132690000Y-94784428D01*
X132642380Y-94641571D01*
X132642380Y-94546333D01*
X132690000Y-94403476D01*
X132737619Y-94355857D01*
X133642380Y-93403476D02*
X133642380Y-93974904D01*
X133642380Y-93689190D02*
X132642380Y-93689190D01*
X132785238Y-93784428D01*
X132880476Y-93879666D01*
X132928095Y-93974904D01*
X132642380Y-92784428D02*
X132642380Y-92689190D01*
X132690000Y-92593952D01*
X132737619Y-92546333D01*
X132832857Y-92498714D01*
X133023333Y-92451095D01*
X133261428Y-92451095D01*
X133451904Y-92498714D01*
X133547142Y-92546333D01*
X133594761Y-92593952D01*
X133642380Y-92689190D01*
X133642380Y-92784428D01*
X133594761Y-92879666D01*
X133547142Y-92927285D01*
X133451904Y-92974904D01*
X133261428Y-93022523D01*
X133023333Y-93022523D01*
X132832857Y-92974904D01*
X132737619Y-92927285D01*
X132690000Y-92879666D01*
X132642380Y-92784428D01*
%TO.C,R18*%
X140530342Y-116428780D02*
X140197009Y-115952590D01*
X139958914Y-116428780D02*
X139958914Y-115428780D01*
X140339866Y-115428780D01*
X140435104Y-115476400D01*
X140482723Y-115524019D01*
X140530342Y-115619257D01*
X140530342Y-115762114D01*
X140482723Y-115857352D01*
X140435104Y-115904971D01*
X140339866Y-115952590D01*
X139958914Y-115952590D01*
X141482723Y-116428780D02*
X140911295Y-116428780D01*
X141197009Y-116428780D02*
X141197009Y-115428780D01*
X141101771Y-115571638D01*
X141006533Y-115666876D01*
X140911295Y-115714495D01*
X142054152Y-115857352D02*
X141958914Y-115809733D01*
X141911295Y-115762114D01*
X141863676Y-115666876D01*
X141863676Y-115619257D01*
X141911295Y-115524019D01*
X141958914Y-115476400D01*
X142054152Y-115428780D01*
X142244628Y-115428780D01*
X142339866Y-115476400D01*
X142387485Y-115524019D01*
X142435104Y-115619257D01*
X142435104Y-115666876D01*
X142387485Y-115762114D01*
X142339866Y-115809733D01*
X142244628Y-115857352D01*
X142054152Y-115857352D01*
X141958914Y-115904971D01*
X141911295Y-115952590D01*
X141863676Y-116047828D01*
X141863676Y-116238304D01*
X141911295Y-116333542D01*
X141958914Y-116381161D01*
X142054152Y-116428780D01*
X142244628Y-116428780D01*
X142339866Y-116381161D01*
X142387485Y-116333542D01*
X142435104Y-116238304D01*
X142435104Y-116047828D01*
X142387485Y-115952590D01*
X142339866Y-115904971D01*
X142244628Y-115857352D01*
%TO.C,Q11*%
X157302771Y-107024419D02*
X157207533Y-106976800D01*
X157112295Y-106881561D01*
X156969438Y-106738704D01*
X156874200Y-106691085D01*
X156778961Y-106691085D01*
X156826580Y-106929180D02*
X156731342Y-106881561D01*
X156636104Y-106786323D01*
X156588485Y-106595847D01*
X156588485Y-106262514D01*
X156636104Y-106072038D01*
X156731342Y-105976800D01*
X156826580Y-105929180D01*
X157017057Y-105929180D01*
X157112295Y-105976800D01*
X157207533Y-106072038D01*
X157255152Y-106262514D01*
X157255152Y-106595847D01*
X157207533Y-106786323D01*
X157112295Y-106881561D01*
X157017057Y-106929180D01*
X156826580Y-106929180D01*
X158207533Y-106929180D02*
X157636104Y-106929180D01*
X157921819Y-106929180D02*
X157921819Y-105929180D01*
X157826580Y-106072038D01*
X157731342Y-106167276D01*
X157636104Y-106214895D01*
X159159914Y-106929180D02*
X158588485Y-106929180D01*
X158874200Y-106929180D02*
X158874200Y-105929180D01*
X158778961Y-106072038D01*
X158683723Y-106167276D01*
X158588485Y-106214895D01*
%TO.C,R28*%
X178691385Y-104389180D02*
X178358052Y-103912990D01*
X178119957Y-104389180D02*
X178119957Y-103389180D01*
X178500909Y-103389180D01*
X178596147Y-103436800D01*
X178643766Y-103484419D01*
X178691385Y-103579657D01*
X178691385Y-103722514D01*
X178643766Y-103817752D01*
X178596147Y-103865371D01*
X178500909Y-103912990D01*
X178119957Y-103912990D01*
X179072338Y-103484419D02*
X179119957Y-103436800D01*
X179215195Y-103389180D01*
X179453290Y-103389180D01*
X179548528Y-103436800D01*
X179596147Y-103484419D01*
X179643766Y-103579657D01*
X179643766Y-103674895D01*
X179596147Y-103817752D01*
X179024719Y-104389180D01*
X179643766Y-104389180D01*
X180215195Y-103817752D02*
X180119957Y-103770133D01*
X180072338Y-103722514D01*
X180024719Y-103627276D01*
X180024719Y-103579657D01*
X180072338Y-103484419D01*
X180119957Y-103436800D01*
X180215195Y-103389180D01*
X180405671Y-103389180D01*
X180500909Y-103436800D01*
X180548528Y-103484419D01*
X180596147Y-103579657D01*
X180596147Y-103627276D01*
X180548528Y-103722514D01*
X180500909Y-103770133D01*
X180405671Y-103817752D01*
X180215195Y-103817752D01*
X180119957Y-103865371D01*
X180072338Y-103912990D01*
X180024719Y-104008228D01*
X180024719Y-104198704D01*
X180072338Y-104293942D01*
X180119957Y-104341561D01*
X180215195Y-104389180D01*
X180405671Y-104389180D01*
X180500909Y-104341561D01*
X180548528Y-104293942D01*
X180596147Y-104198704D01*
X180596147Y-104008228D01*
X180548528Y-103912990D01*
X180500909Y-103865371D01*
X180405671Y-103817752D01*
%TO.C,C14*%
X131972342Y-94368857D02*
X132019961Y-94416476D01*
X132067580Y-94559333D01*
X132067580Y-94654571D01*
X132019961Y-94797428D01*
X131924723Y-94892666D01*
X131829485Y-94940285D01*
X131639009Y-94987904D01*
X131496152Y-94987904D01*
X131305676Y-94940285D01*
X131210438Y-94892666D01*
X131115200Y-94797428D01*
X131067580Y-94654571D01*
X131067580Y-94559333D01*
X131115200Y-94416476D01*
X131162819Y-94368857D01*
X132067580Y-93416476D02*
X132067580Y-93987904D01*
X132067580Y-93702190D02*
X131067580Y-93702190D01*
X131210438Y-93797428D01*
X131305676Y-93892666D01*
X131353295Y-93987904D01*
X131400914Y-92559333D02*
X132067580Y-92559333D01*
X131019961Y-92797428D02*
X131734247Y-93035523D01*
X131734247Y-92416476D01*
%TO.C,R36*%
X161432213Y-104439980D02*
X161098880Y-103963790D01*
X160860785Y-104439980D02*
X160860785Y-103439980D01*
X161241737Y-103439980D01*
X161336975Y-103487600D01*
X161384594Y-103535219D01*
X161432213Y-103630457D01*
X161432213Y-103773314D01*
X161384594Y-103868552D01*
X161336975Y-103916171D01*
X161241737Y-103963790D01*
X160860785Y-103963790D01*
X161765547Y-103439980D02*
X162384594Y-103439980D01*
X162051261Y-103820933D01*
X162194118Y-103820933D01*
X162289356Y-103868552D01*
X162336975Y-103916171D01*
X162384594Y-104011409D01*
X162384594Y-104249504D01*
X162336975Y-104344742D01*
X162289356Y-104392361D01*
X162194118Y-104439980D01*
X161908404Y-104439980D01*
X161813166Y-104392361D01*
X161765547Y-104344742D01*
X163241737Y-103439980D02*
X163051261Y-103439980D01*
X162956023Y-103487600D01*
X162908404Y-103535219D01*
X162813166Y-103678076D01*
X162765547Y-103868552D01*
X162765547Y-104249504D01*
X162813166Y-104344742D01*
X162860785Y-104392361D01*
X162956023Y-104439980D01*
X163146499Y-104439980D01*
X163241737Y-104392361D01*
X163289356Y-104344742D01*
X163336975Y-104249504D01*
X163336975Y-104011409D01*
X163289356Y-103916171D01*
X163241737Y-103868552D01*
X163146499Y-103820933D01*
X162956023Y-103820933D01*
X162860785Y-103868552D01*
X162813166Y-103916171D01*
X162765547Y-104011409D01*
%TO.C,C25*%
X169528742Y-100096257D02*
X169576361Y-100143876D01*
X169623980Y-100286733D01*
X169623980Y-100381971D01*
X169576361Y-100524828D01*
X169481123Y-100620066D01*
X169385885Y-100667685D01*
X169195409Y-100715304D01*
X169052552Y-100715304D01*
X168862076Y-100667685D01*
X168766838Y-100620066D01*
X168671600Y-100524828D01*
X168623980Y-100381971D01*
X168623980Y-100286733D01*
X168671600Y-100143876D01*
X168719219Y-100096257D01*
X168719219Y-99715304D02*
X168671600Y-99667685D01*
X168623980Y-99572447D01*
X168623980Y-99334352D01*
X168671600Y-99239114D01*
X168719219Y-99191495D01*
X168814457Y-99143876D01*
X168909695Y-99143876D01*
X169052552Y-99191495D01*
X169623980Y-99762923D01*
X169623980Y-99143876D01*
X168623980Y-98239114D02*
X168623980Y-98715304D01*
X169100171Y-98762923D01*
X169052552Y-98715304D01*
X169004933Y-98620066D01*
X169004933Y-98381971D01*
X169052552Y-98286733D01*
X169100171Y-98239114D01*
X169195409Y-98191495D01*
X169433504Y-98191495D01*
X169528742Y-98239114D01*
X169576361Y-98286733D01*
X169623980Y-98381971D01*
X169623980Y-98620066D01*
X169576361Y-98715304D01*
X169528742Y-98762923D01*
%TO.C,Q9*%
X183613090Y-107024419D02*
X183517852Y-106976800D01*
X183422614Y-106881561D01*
X183279757Y-106738704D01*
X183184519Y-106691085D01*
X183089281Y-106691085D01*
X183136900Y-106929180D02*
X183041662Y-106881561D01*
X182946424Y-106786323D01*
X182898805Y-106595847D01*
X182898805Y-106262514D01*
X182946424Y-106072038D01*
X183041662Y-105976800D01*
X183136900Y-105929180D01*
X183327376Y-105929180D01*
X183422614Y-105976800D01*
X183517852Y-106072038D01*
X183565471Y-106262514D01*
X183565471Y-106595847D01*
X183517852Y-106786323D01*
X183422614Y-106881561D01*
X183327376Y-106929180D01*
X183136900Y-106929180D01*
X184041662Y-106929180D02*
X184232138Y-106929180D01*
X184327376Y-106881561D01*
X184374995Y-106833942D01*
X184470233Y-106691085D01*
X184517852Y-106500609D01*
X184517852Y-106119657D01*
X184470233Y-106024419D01*
X184422614Y-105976800D01*
X184327376Y-105929180D01*
X184136900Y-105929180D01*
X184041662Y-105976800D01*
X183994043Y-106024419D01*
X183946424Y-106119657D01*
X183946424Y-106357752D01*
X183994043Y-106452990D01*
X184041662Y-106500609D01*
X184136900Y-106548228D01*
X184327376Y-106548228D01*
X184422614Y-106500609D01*
X184470233Y-106452990D01*
X184517852Y-106357752D01*
%TO.C,R13*%
X164761942Y-102865180D02*
X164428609Y-102388990D01*
X164190514Y-102865180D02*
X164190514Y-101865180D01*
X164571466Y-101865180D01*
X164666704Y-101912800D01*
X164714323Y-101960419D01*
X164761942Y-102055657D01*
X164761942Y-102198514D01*
X164714323Y-102293752D01*
X164666704Y-102341371D01*
X164571466Y-102388990D01*
X164190514Y-102388990D01*
X165714323Y-102865180D02*
X165142895Y-102865180D01*
X165428609Y-102865180D02*
X165428609Y-101865180D01*
X165333371Y-102008038D01*
X165238133Y-102103276D01*
X165142895Y-102150895D01*
X166047657Y-101865180D02*
X166666704Y-101865180D01*
X166333371Y-102246133D01*
X166476228Y-102246133D01*
X166571466Y-102293752D01*
X166619085Y-102341371D01*
X166666704Y-102436609D01*
X166666704Y-102674704D01*
X166619085Y-102769942D01*
X166571466Y-102817561D01*
X166476228Y-102865180D01*
X166190514Y-102865180D01*
X166095276Y-102817561D01*
X166047657Y-102769942D01*
%TO.C,R23*%
X143283680Y-84412057D02*
X142807490Y-84745390D01*
X143283680Y-84983485D02*
X142283680Y-84983485D01*
X142283680Y-84602533D01*
X142331300Y-84507295D01*
X142378919Y-84459676D01*
X142474157Y-84412057D01*
X142617014Y-84412057D01*
X142712252Y-84459676D01*
X142759871Y-84507295D01*
X142807490Y-84602533D01*
X142807490Y-84983485D01*
X142378919Y-84031104D02*
X142331300Y-83983485D01*
X142283680Y-83888247D01*
X142283680Y-83650152D01*
X142331300Y-83554914D01*
X142378919Y-83507295D01*
X142474157Y-83459676D01*
X142569395Y-83459676D01*
X142712252Y-83507295D01*
X143283680Y-84078723D01*
X143283680Y-83459676D01*
X142283680Y-83126342D02*
X142283680Y-82507295D01*
X142664633Y-82840628D01*
X142664633Y-82697771D01*
X142712252Y-82602533D01*
X142759871Y-82554914D01*
X142855109Y-82507295D01*
X143093204Y-82507295D01*
X143188442Y-82554914D01*
X143236061Y-82602533D01*
X143283680Y-82697771D01*
X143283680Y-82983485D01*
X143236061Y-83078723D01*
X143188442Y-83126342D01*
%TO.C,C7*%
X142647942Y-93587866D02*
X142695561Y-93635485D01*
X142743180Y-93778342D01*
X142743180Y-93873580D01*
X142695561Y-94016438D01*
X142600323Y-94111676D01*
X142505085Y-94159295D01*
X142314609Y-94206914D01*
X142171752Y-94206914D01*
X141981276Y-94159295D01*
X141886038Y-94111676D01*
X141790800Y-94016438D01*
X141743180Y-93873580D01*
X141743180Y-93778342D01*
X141790800Y-93635485D01*
X141838419Y-93587866D01*
X141743180Y-93254533D02*
X141743180Y-92587866D01*
X142743180Y-93016438D01*
%TO.C,Q3*%
X147410419Y-109315238D02*
X147362800Y-109410476D01*
X147267561Y-109505714D01*
X147124704Y-109648571D01*
X147077085Y-109743809D01*
X147077085Y-109839047D01*
X147315180Y-109791428D02*
X147267561Y-109886666D01*
X147172323Y-109981904D01*
X146981847Y-110029523D01*
X146648514Y-110029523D01*
X146458038Y-109981904D01*
X146362800Y-109886666D01*
X146315180Y-109791428D01*
X146315180Y-109600952D01*
X146362800Y-109505714D01*
X146458038Y-109410476D01*
X146648514Y-109362857D01*
X146981847Y-109362857D01*
X147172323Y-109410476D01*
X147267561Y-109505714D01*
X147315180Y-109600952D01*
X147315180Y-109791428D01*
X146315180Y-109029523D02*
X146315180Y-108410476D01*
X146696133Y-108743809D01*
X146696133Y-108600952D01*
X146743752Y-108505714D01*
X146791371Y-108458095D01*
X146886609Y-108410476D01*
X147124704Y-108410476D01*
X147219942Y-108458095D01*
X147267561Y-108505714D01*
X147315180Y-108600952D01*
X147315180Y-108886666D01*
X147267561Y-108981904D01*
X147219942Y-109029523D01*
%TO.C,Q7*%
X174982174Y-107024419D02*
X174886936Y-106976800D01*
X174791698Y-106881561D01*
X174648841Y-106738704D01*
X174553603Y-106691085D01*
X174458365Y-106691085D01*
X174505984Y-106929180D02*
X174410746Y-106881561D01*
X174315508Y-106786323D01*
X174267889Y-106595847D01*
X174267889Y-106262514D01*
X174315508Y-106072038D01*
X174410746Y-105976800D01*
X174505984Y-105929180D01*
X174696460Y-105929180D01*
X174791698Y-105976800D01*
X174886936Y-106072038D01*
X174934555Y-106262514D01*
X174934555Y-106595847D01*
X174886936Y-106786323D01*
X174791698Y-106881561D01*
X174696460Y-106929180D01*
X174505984Y-106929180D01*
X175267889Y-105929180D02*
X175934555Y-105929180D01*
X175505984Y-106929180D01*
%TO.C,R20*%
X148861542Y-116428780D02*
X148528209Y-115952590D01*
X148290114Y-116428780D02*
X148290114Y-115428780D01*
X148671066Y-115428780D01*
X148766304Y-115476400D01*
X148813923Y-115524019D01*
X148861542Y-115619257D01*
X148861542Y-115762114D01*
X148813923Y-115857352D01*
X148766304Y-115904971D01*
X148671066Y-115952590D01*
X148290114Y-115952590D01*
X149242495Y-115524019D02*
X149290114Y-115476400D01*
X149385352Y-115428780D01*
X149623447Y-115428780D01*
X149718685Y-115476400D01*
X149766304Y-115524019D01*
X149813923Y-115619257D01*
X149813923Y-115714495D01*
X149766304Y-115857352D01*
X149194876Y-116428780D01*
X149813923Y-116428780D01*
X150432971Y-115428780D02*
X150528209Y-115428780D01*
X150623447Y-115476400D01*
X150671066Y-115524019D01*
X150718685Y-115619257D01*
X150766304Y-115809733D01*
X150766304Y-116047828D01*
X150718685Y-116238304D01*
X150671066Y-116333542D01*
X150623447Y-116381161D01*
X150528209Y-116428780D01*
X150432971Y-116428780D01*
X150337733Y-116381161D01*
X150290114Y-116333542D01*
X150242495Y-116238304D01*
X150194876Y-116047828D01*
X150194876Y-115809733D01*
X150242495Y-115619257D01*
X150290114Y-115524019D01*
X150337733Y-115476400D01*
X150432971Y-115428780D01*
%TO.C,C19*%
X114758742Y-120886457D02*
X114806361Y-120934076D01*
X114853980Y-121076933D01*
X114853980Y-121172171D01*
X114806361Y-121315028D01*
X114711123Y-121410266D01*
X114615885Y-121457885D01*
X114425409Y-121505504D01*
X114282552Y-121505504D01*
X114092076Y-121457885D01*
X113996838Y-121410266D01*
X113901600Y-121315028D01*
X113853980Y-121172171D01*
X113853980Y-121076933D01*
X113901600Y-120934076D01*
X113949219Y-120886457D01*
X114853980Y-119934076D02*
X114853980Y-120505504D01*
X114853980Y-120219790D02*
X113853980Y-120219790D01*
X113996838Y-120315028D01*
X114092076Y-120410266D01*
X114139695Y-120505504D01*
X114853980Y-119457885D02*
X114853980Y-119267409D01*
X114806361Y-119172171D01*
X114758742Y-119124552D01*
X114615885Y-119029314D01*
X114425409Y-118981695D01*
X114044457Y-118981695D01*
X113949219Y-119029314D01*
X113901600Y-119076933D01*
X113853980Y-119172171D01*
X113853980Y-119362647D01*
X113901600Y-119457885D01*
X113949219Y-119505504D01*
X114044457Y-119553123D01*
X114282552Y-119553123D01*
X114377790Y-119505504D01*
X114425409Y-119457885D01*
X114473028Y-119362647D01*
X114473028Y-119172171D01*
X114425409Y-119076933D01*
X114377790Y-119029314D01*
X114282552Y-118981695D01*
%TO.C,U2*%
X140665295Y-104709980D02*
X140665295Y-105519504D01*
X140712914Y-105614742D01*
X140760533Y-105662361D01*
X140855771Y-105709980D01*
X141046247Y-105709980D01*
X141141485Y-105662361D01*
X141189104Y-105614742D01*
X141236723Y-105519504D01*
X141236723Y-104709980D01*
X141665295Y-104805219D02*
X141712914Y-104757600D01*
X141808152Y-104709980D01*
X142046247Y-104709980D01*
X142141485Y-104757600D01*
X142189104Y-104805219D01*
X142236723Y-104900457D01*
X142236723Y-104995695D01*
X142189104Y-105138552D01*
X141617676Y-105709980D01*
X142236723Y-105709980D01*
%TO.C,R9*%
X118765580Y-120918266D02*
X118289390Y-121251600D01*
X118765580Y-121489695D02*
X117765580Y-121489695D01*
X117765580Y-121108742D01*
X117813200Y-121013504D01*
X117860819Y-120965885D01*
X117956057Y-120918266D01*
X118098914Y-120918266D01*
X118194152Y-120965885D01*
X118241771Y-121013504D01*
X118289390Y-121108742D01*
X118289390Y-121489695D01*
X118765580Y-120442076D02*
X118765580Y-120251600D01*
X118717961Y-120156361D01*
X118670342Y-120108742D01*
X118527485Y-120013504D01*
X118337009Y-119965885D01*
X117956057Y-119965885D01*
X117860819Y-120013504D01*
X117813200Y-120061123D01*
X117765580Y-120156361D01*
X117765580Y-120346838D01*
X117813200Y-120442076D01*
X117860819Y-120489695D01*
X117956057Y-120537314D01*
X118194152Y-120537314D01*
X118289390Y-120489695D01*
X118337009Y-120442076D01*
X118384628Y-120346838D01*
X118384628Y-120156361D01*
X118337009Y-120061123D01*
X118289390Y-120013504D01*
X118194152Y-119965885D01*
%TO.C,C17*%
X133656342Y-109386142D02*
X133703961Y-109433761D01*
X133751580Y-109576618D01*
X133751580Y-109671856D01*
X133703961Y-109814713D01*
X133608723Y-109909951D01*
X133513485Y-109957570D01*
X133323009Y-110005189D01*
X133180152Y-110005189D01*
X132989676Y-109957570D01*
X132894438Y-109909951D01*
X132799200Y-109814713D01*
X132751580Y-109671856D01*
X132751580Y-109576618D01*
X132799200Y-109433761D01*
X132846819Y-109386142D01*
X133751580Y-108433761D02*
X133751580Y-109005189D01*
X133751580Y-108719475D02*
X132751580Y-108719475D01*
X132894438Y-108814713D01*
X132989676Y-108909951D01*
X133037295Y-109005189D01*
X132751580Y-108100427D02*
X132751580Y-107433761D01*
X133751580Y-107862332D01*
%TO.C,R1*%
X101814333Y-88564980D02*
X101481000Y-88088790D01*
X101242904Y-88564980D02*
X101242904Y-87564980D01*
X101623857Y-87564980D01*
X101719095Y-87612600D01*
X101766714Y-87660219D01*
X101814333Y-87755457D01*
X101814333Y-87898314D01*
X101766714Y-87993552D01*
X101719095Y-88041171D01*
X101623857Y-88088790D01*
X101242904Y-88088790D01*
X102766714Y-88564980D02*
X102195285Y-88564980D01*
X102481000Y-88564980D02*
X102481000Y-87564980D01*
X102385761Y-87707838D01*
X102290523Y-87803076D01*
X102195285Y-87850695D01*
%TO.C,U1*%
X123188095Y-105002380D02*
X123188095Y-105811904D01*
X123235714Y-105907142D01*
X123283333Y-105954761D01*
X123378571Y-106002380D01*
X123569047Y-106002380D01*
X123664285Y-105954761D01*
X123711904Y-105907142D01*
X123759523Y-105811904D01*
X123759523Y-105002380D01*
X124759523Y-106002380D02*
X124188095Y-106002380D01*
X124473809Y-106002380D02*
X124473809Y-105002380D01*
X124378571Y-105145238D01*
X124283333Y-105240476D01*
X124188095Y-105288095D01*
%TO.C,R4*%
X145590733Y-97835980D02*
X145257400Y-97359790D01*
X145019304Y-97835980D02*
X145019304Y-96835980D01*
X145400257Y-96835980D01*
X145495495Y-96883600D01*
X145543114Y-96931219D01*
X145590733Y-97026457D01*
X145590733Y-97169314D01*
X145543114Y-97264552D01*
X145495495Y-97312171D01*
X145400257Y-97359790D01*
X145019304Y-97359790D01*
X146447876Y-97169314D02*
X146447876Y-97835980D01*
X146209780Y-96788361D02*
X145971685Y-97502647D01*
X146590733Y-97502647D01*
%TO.C,C26*%
X126068842Y-84449857D02*
X126116461Y-84497476D01*
X126164080Y-84640333D01*
X126164080Y-84735571D01*
X126116461Y-84878428D01*
X126021223Y-84973666D01*
X125925985Y-85021285D01*
X125735509Y-85068904D01*
X125592652Y-85068904D01*
X125402176Y-85021285D01*
X125306938Y-84973666D01*
X125211700Y-84878428D01*
X125164080Y-84735571D01*
X125164080Y-84640333D01*
X125211700Y-84497476D01*
X125259319Y-84449857D01*
X125259319Y-84068904D02*
X125211700Y-84021285D01*
X125164080Y-83926047D01*
X125164080Y-83687952D01*
X125211700Y-83592714D01*
X125259319Y-83545095D01*
X125354557Y-83497476D01*
X125449795Y-83497476D01*
X125592652Y-83545095D01*
X126164080Y-84116523D01*
X126164080Y-83497476D01*
X125164080Y-82640333D02*
X125164080Y-82830809D01*
X125211700Y-82926047D01*
X125259319Y-82973666D01*
X125402176Y-83068904D01*
X125592652Y-83116523D01*
X125973604Y-83116523D01*
X126068842Y-83068904D01*
X126116461Y-83021285D01*
X126164080Y-82926047D01*
X126164080Y-82735571D01*
X126116461Y-82640333D01*
X126068842Y-82592714D01*
X125973604Y-82545095D01*
X125735509Y-82545095D01*
X125640271Y-82592714D01*
X125592652Y-82640333D01*
X125545033Y-82735571D01*
X125545033Y-82926047D01*
X125592652Y-83021285D01*
X125640271Y-83068904D01*
X125735509Y-83116523D01*
%TO.C,C3*%
X148665133Y-97682342D02*
X148617514Y-97729961D01*
X148474657Y-97777580D01*
X148379419Y-97777580D01*
X148236561Y-97729961D01*
X148141323Y-97634723D01*
X148093704Y-97539485D01*
X148046085Y-97349009D01*
X148046085Y-97206152D01*
X148093704Y-97015676D01*
X148141323Y-96920438D01*
X148236561Y-96825200D01*
X148379419Y-96777580D01*
X148474657Y-96777580D01*
X148617514Y-96825200D01*
X148665133Y-96872819D01*
X148998466Y-96777580D02*
X149617514Y-96777580D01*
X149284180Y-97158533D01*
X149427038Y-97158533D01*
X149522276Y-97206152D01*
X149569895Y-97253771D01*
X149617514Y-97349009D01*
X149617514Y-97587104D01*
X149569895Y-97682342D01*
X149522276Y-97729961D01*
X149427038Y-97777580D01*
X149141323Y-97777580D01*
X149046085Y-97729961D01*
X148998466Y-97682342D01*
%TO.C,R6*%
X136942533Y-122473980D02*
X136609200Y-121997790D01*
X136371104Y-122473980D02*
X136371104Y-121473980D01*
X136752057Y-121473980D01*
X136847295Y-121521600D01*
X136894914Y-121569219D01*
X136942533Y-121664457D01*
X136942533Y-121807314D01*
X136894914Y-121902552D01*
X136847295Y-121950171D01*
X136752057Y-121997790D01*
X136371104Y-121997790D01*
X137799676Y-121473980D02*
X137609200Y-121473980D01*
X137513961Y-121521600D01*
X137466342Y-121569219D01*
X137371104Y-121712076D01*
X137323485Y-121902552D01*
X137323485Y-122283504D01*
X137371104Y-122378742D01*
X137418723Y-122426361D01*
X137513961Y-122473980D01*
X137704438Y-122473980D01*
X137799676Y-122426361D01*
X137847295Y-122378742D01*
X137894914Y-122283504D01*
X137894914Y-122045409D01*
X137847295Y-121950171D01*
X137799676Y-121902552D01*
X137704438Y-121854933D01*
X137513961Y-121854933D01*
X137418723Y-121902552D01*
X137371104Y-121950171D01*
X137323485Y-122045409D01*
%TO.C,J2*%
X123516666Y-86902380D02*
X123516666Y-87616666D01*
X123469047Y-87759523D01*
X123373809Y-87854761D01*
X123230952Y-87902380D01*
X123135714Y-87902380D01*
X123945238Y-86997619D02*
X123992857Y-86950000D01*
X124088095Y-86902380D01*
X124326190Y-86902380D01*
X124421428Y-86950000D01*
X124469047Y-86997619D01*
X124516666Y-87092857D01*
X124516666Y-87188095D01*
X124469047Y-87330952D01*
X123897619Y-87902380D01*
X124516666Y-87902380D01*
%TO.C,D8*%
X146230080Y-84507295D02*
X145230080Y-84507295D01*
X145230080Y-84269200D01*
X145277700Y-84126342D01*
X145372938Y-84031104D01*
X145468176Y-83983485D01*
X145658652Y-83935866D01*
X145801509Y-83935866D01*
X145991985Y-83983485D01*
X146087223Y-84031104D01*
X146182461Y-84126342D01*
X146230080Y-84269200D01*
X146230080Y-84507295D01*
X145658652Y-83364438D02*
X145611033Y-83459676D01*
X145563414Y-83507295D01*
X145468176Y-83554914D01*
X145420557Y-83554914D01*
X145325319Y-83507295D01*
X145277700Y-83459676D01*
X145230080Y-83364438D01*
X145230080Y-83173961D01*
X145277700Y-83078723D01*
X145325319Y-83031104D01*
X145420557Y-82983485D01*
X145468176Y-82983485D01*
X145563414Y-83031104D01*
X145611033Y-83078723D01*
X145658652Y-83173961D01*
X145658652Y-83364438D01*
X145706271Y-83459676D01*
X145753890Y-83507295D01*
X145849128Y-83554914D01*
X146039604Y-83554914D01*
X146134842Y-83507295D01*
X146182461Y-83459676D01*
X146230080Y-83364438D01*
X146230080Y-83173961D01*
X146182461Y-83078723D01*
X146134842Y-83031104D01*
X146039604Y-82983485D01*
X145849128Y-82983485D01*
X145753890Y-83031104D01*
X145706271Y-83078723D01*
X145658652Y-83173961D01*
%TO.C,R38*%
X152976342Y-105709980D02*
X152643009Y-105233790D01*
X152404914Y-105709980D02*
X152404914Y-104709980D01*
X152785866Y-104709980D01*
X152881104Y-104757600D01*
X152928723Y-104805219D01*
X152976342Y-104900457D01*
X152976342Y-105043314D01*
X152928723Y-105138552D01*
X152881104Y-105186171D01*
X152785866Y-105233790D01*
X152404914Y-105233790D01*
X153309676Y-104709980D02*
X153928723Y-104709980D01*
X153595390Y-105090933D01*
X153738247Y-105090933D01*
X153833485Y-105138552D01*
X153881104Y-105186171D01*
X153928723Y-105281409D01*
X153928723Y-105519504D01*
X153881104Y-105614742D01*
X153833485Y-105662361D01*
X153738247Y-105709980D01*
X153452533Y-105709980D01*
X153357295Y-105662361D01*
X153309676Y-105614742D01*
X154500152Y-105138552D02*
X154404914Y-105090933D01*
X154357295Y-105043314D01*
X154309676Y-104948076D01*
X154309676Y-104900457D01*
X154357295Y-104805219D01*
X154404914Y-104757600D01*
X154500152Y-104709980D01*
X154690628Y-104709980D01*
X154785866Y-104757600D01*
X154833485Y-104805219D01*
X154881104Y-104900457D01*
X154881104Y-104948076D01*
X154833485Y-105043314D01*
X154785866Y-105090933D01*
X154690628Y-105138552D01*
X154500152Y-105138552D01*
X154404914Y-105186171D01*
X154357295Y-105233790D01*
X154309676Y-105329028D01*
X154309676Y-105519504D01*
X154357295Y-105614742D01*
X154404914Y-105662361D01*
X154500152Y-105709980D01*
X154690628Y-105709980D01*
X154785866Y-105662361D01*
X154833485Y-105614742D01*
X154881104Y-105519504D01*
X154881104Y-105329028D01*
X154833485Y-105233790D01*
X154785866Y-105186171D01*
X154690628Y-105138552D01*
%TO.C,TP2*%
X103538495Y-104245980D02*
X104109923Y-104245980D01*
X103824209Y-105245980D02*
X103824209Y-104245980D01*
X104443257Y-105245980D02*
X104443257Y-104245980D01*
X104824209Y-104245980D01*
X104919447Y-104293600D01*
X104967066Y-104341219D01*
X105014685Y-104436457D01*
X105014685Y-104579314D01*
X104967066Y-104674552D01*
X104919447Y-104722171D01*
X104824209Y-104769790D01*
X104443257Y-104769790D01*
X105395638Y-104341219D02*
X105443257Y-104293600D01*
X105538495Y-104245980D01*
X105776590Y-104245980D01*
X105871828Y-104293600D01*
X105919447Y-104341219D01*
X105967066Y-104436457D01*
X105967066Y-104531695D01*
X105919447Y-104674552D01*
X105348019Y-105245980D01*
X105967066Y-105245980D01*
%TO.C,J8*%
X129093980Y-78666933D02*
X129808266Y-78666933D01*
X129951123Y-78714552D01*
X130046361Y-78809790D01*
X130093980Y-78952647D01*
X130093980Y-79047885D01*
X129522552Y-78047885D02*
X129474933Y-78143123D01*
X129427314Y-78190742D01*
X129332076Y-78238361D01*
X129284457Y-78238361D01*
X129189219Y-78190742D01*
X129141600Y-78143123D01*
X129093980Y-78047885D01*
X129093980Y-77857409D01*
X129141600Y-77762171D01*
X129189219Y-77714552D01*
X129284457Y-77666933D01*
X129332076Y-77666933D01*
X129427314Y-77714552D01*
X129474933Y-77762171D01*
X129522552Y-77857409D01*
X129522552Y-78047885D01*
X129570171Y-78143123D01*
X129617790Y-78190742D01*
X129713028Y-78238361D01*
X129903504Y-78238361D01*
X129998742Y-78190742D01*
X130046361Y-78143123D01*
X130093980Y-78047885D01*
X130093980Y-77857409D01*
X130046361Y-77762171D01*
X129998742Y-77714552D01*
X129903504Y-77666933D01*
X129713028Y-77666933D01*
X129617790Y-77714552D01*
X129570171Y-77762171D01*
X129522552Y-77857409D01*
%TO.C,R31*%
X174368226Y-105629781D02*
X174034893Y-105153591D01*
X173796798Y-105629781D02*
X173796798Y-104629781D01*
X174177750Y-104629781D01*
X174272988Y-104677401D01*
X174320607Y-104725020D01*
X174368226Y-104820258D01*
X174368226Y-104963115D01*
X174320607Y-105058353D01*
X174272988Y-105105972D01*
X174177750Y-105153591D01*
X173796798Y-105153591D01*
X174701560Y-104629781D02*
X175320607Y-104629781D01*
X174987274Y-105010734D01*
X175130131Y-105010734D01*
X175225369Y-105058353D01*
X175272988Y-105105972D01*
X175320607Y-105201210D01*
X175320607Y-105439305D01*
X175272988Y-105534543D01*
X175225369Y-105582162D01*
X175130131Y-105629781D01*
X174844417Y-105629781D01*
X174749179Y-105582162D01*
X174701560Y-105534543D01*
X176272988Y-105629781D02*
X175701560Y-105629781D01*
X175987274Y-105629781D02*
X175987274Y-104629781D01*
X175892036Y-104772639D01*
X175796798Y-104867877D01*
X175701560Y-104915496D01*
%TO.C,J6*%
X94162380Y-78098333D02*
X94876666Y-78098333D01*
X95019523Y-78145952D01*
X95114761Y-78241190D01*
X95162380Y-78384047D01*
X95162380Y-78479285D01*
X94162380Y-77193571D02*
X94162380Y-77384047D01*
X94210000Y-77479285D01*
X94257619Y-77526904D01*
X94400476Y-77622142D01*
X94590952Y-77669761D01*
X94971904Y-77669761D01*
X95067142Y-77622142D01*
X95114761Y-77574523D01*
X95162380Y-77479285D01*
X95162380Y-77288809D01*
X95114761Y-77193571D01*
X95067142Y-77145952D01*
X94971904Y-77098333D01*
X94733809Y-77098333D01*
X94638571Y-77145952D01*
X94590952Y-77193571D01*
X94543333Y-77288809D01*
X94543333Y-77479285D01*
X94590952Y-77574523D01*
X94638571Y-77622142D01*
X94733809Y-77669761D01*
%TO.C,C11*%
X144273542Y-93657657D02*
X144321161Y-93705276D01*
X144368780Y-93848133D01*
X144368780Y-93943371D01*
X144321161Y-94086228D01*
X144225923Y-94181466D01*
X144130685Y-94229085D01*
X143940209Y-94276704D01*
X143797352Y-94276704D01*
X143606876Y-94229085D01*
X143511638Y-94181466D01*
X143416400Y-94086228D01*
X143368780Y-93943371D01*
X143368780Y-93848133D01*
X143416400Y-93705276D01*
X143464019Y-93657657D01*
X144368780Y-92705276D02*
X144368780Y-93276704D01*
X144368780Y-92990990D02*
X143368780Y-92990990D01*
X143511638Y-93086228D01*
X143606876Y-93181466D01*
X143654495Y-93276704D01*
X144368780Y-91752895D02*
X144368780Y-92324323D01*
X144368780Y-92038609D02*
X143368780Y-92038609D01*
X143511638Y-92133847D01*
X143606876Y-92229085D01*
X143654495Y-92324323D01*
%TO.C,C6*%
X129322533Y-105208342D02*
X129274914Y-105255961D01*
X129132057Y-105303580D01*
X129036819Y-105303580D01*
X128893961Y-105255961D01*
X128798723Y-105160723D01*
X128751104Y-105065485D01*
X128703485Y-104875009D01*
X128703485Y-104732152D01*
X128751104Y-104541676D01*
X128798723Y-104446438D01*
X128893961Y-104351200D01*
X129036819Y-104303580D01*
X129132057Y-104303580D01*
X129274914Y-104351200D01*
X129322533Y-104398819D01*
X130179676Y-104303580D02*
X129989200Y-104303580D01*
X129893961Y-104351200D01*
X129846342Y-104398819D01*
X129751104Y-104541676D01*
X129703485Y-104732152D01*
X129703485Y-105113104D01*
X129751104Y-105208342D01*
X129798723Y-105255961D01*
X129893961Y-105303580D01*
X130084438Y-105303580D01*
X130179676Y-105255961D01*
X130227295Y-105208342D01*
X130274914Y-105113104D01*
X130274914Y-104875009D01*
X130227295Y-104779771D01*
X130179676Y-104732152D01*
X130084438Y-104684533D01*
X129893961Y-104684533D01*
X129798723Y-104732152D01*
X129751104Y-104779771D01*
X129703485Y-104875009D01*
%TO.C,F2*%
X98886971Y-127231733D02*
X98886971Y-127565066D01*
X99410780Y-127565066D02*
X98410780Y-127565066D01*
X98410780Y-127088876D01*
X98506019Y-126755542D02*
X98458400Y-126707923D01*
X98410780Y-126612685D01*
X98410780Y-126374590D01*
X98458400Y-126279352D01*
X98506019Y-126231733D01*
X98601257Y-126184114D01*
X98696495Y-126184114D01*
X98839352Y-126231733D01*
X99410780Y-126803161D01*
X99410780Y-126184114D01*
%TO.C,SW1*%
X110416666Y-91154761D02*
X110559523Y-91202380D01*
X110797619Y-91202380D01*
X110892857Y-91154761D01*
X110940476Y-91107142D01*
X110988095Y-91011904D01*
X110988095Y-90916666D01*
X110940476Y-90821428D01*
X110892857Y-90773809D01*
X110797619Y-90726190D01*
X110607142Y-90678571D01*
X110511904Y-90630952D01*
X110464285Y-90583333D01*
X110416666Y-90488095D01*
X110416666Y-90392857D01*
X110464285Y-90297619D01*
X110511904Y-90250000D01*
X110607142Y-90202380D01*
X110845238Y-90202380D01*
X110988095Y-90250000D01*
X111321428Y-90202380D02*
X111559523Y-91202380D01*
X111750000Y-90488095D01*
X111940476Y-91202380D01*
X112178571Y-90202380D01*
X113083333Y-91202380D02*
X112511904Y-91202380D01*
X112797619Y-91202380D02*
X112797619Y-90202380D01*
X112702380Y-90345238D01*
X112607142Y-90440476D01*
X112511904Y-90488095D01*
%TO.C,Q2*%
X116054761Y-104447619D02*
X115959523Y-104400000D01*
X115864285Y-104304761D01*
X115721428Y-104161904D01*
X115626190Y-104114285D01*
X115530952Y-104114285D01*
X115578571Y-104352380D02*
X115483333Y-104304761D01*
X115388095Y-104209523D01*
X115340476Y-104019047D01*
X115340476Y-103685714D01*
X115388095Y-103495238D01*
X115483333Y-103400000D01*
X115578571Y-103352380D01*
X115769047Y-103352380D01*
X115864285Y-103400000D01*
X115959523Y-103495238D01*
X116007142Y-103685714D01*
X116007142Y-104019047D01*
X115959523Y-104209523D01*
X115864285Y-104304761D01*
X115769047Y-104352380D01*
X115578571Y-104352380D01*
X116388095Y-103447619D02*
X116435714Y-103400000D01*
X116530952Y-103352380D01*
X116769047Y-103352380D01*
X116864285Y-103400000D01*
X116911904Y-103447619D01*
X116959523Y-103542857D01*
X116959523Y-103638095D01*
X116911904Y-103780952D01*
X116340476Y-104352380D01*
X116959523Y-104352380D01*
%TO.C,TP4*%
X124722095Y-80485180D02*
X125293523Y-80485180D01*
X125007809Y-81485180D02*
X125007809Y-80485180D01*
X125626857Y-81485180D02*
X125626857Y-80485180D01*
X126007809Y-80485180D01*
X126103047Y-80532800D01*
X126150666Y-80580419D01*
X126198285Y-80675657D01*
X126198285Y-80818514D01*
X126150666Y-80913752D01*
X126103047Y-80961371D01*
X126007809Y-81008990D01*
X125626857Y-81008990D01*
X127055428Y-80818514D02*
X127055428Y-81485180D01*
X126817333Y-80437561D02*
X126579238Y-81151847D01*
X127198285Y-81151847D01*
%TO.C,C20*%
X116841542Y-120886457D02*
X116889161Y-120934076D01*
X116936780Y-121076933D01*
X116936780Y-121172171D01*
X116889161Y-121315028D01*
X116793923Y-121410266D01*
X116698685Y-121457885D01*
X116508209Y-121505504D01*
X116365352Y-121505504D01*
X116174876Y-121457885D01*
X116079638Y-121410266D01*
X115984400Y-121315028D01*
X115936780Y-121172171D01*
X115936780Y-121076933D01*
X115984400Y-120934076D01*
X116032019Y-120886457D01*
X116032019Y-120505504D02*
X115984400Y-120457885D01*
X115936780Y-120362647D01*
X115936780Y-120124552D01*
X115984400Y-120029314D01*
X116032019Y-119981695D01*
X116127257Y-119934076D01*
X116222495Y-119934076D01*
X116365352Y-119981695D01*
X116936780Y-120553123D01*
X116936780Y-119934076D01*
X115936780Y-119315028D02*
X115936780Y-119219790D01*
X115984400Y-119124552D01*
X116032019Y-119076933D01*
X116127257Y-119029314D01*
X116317733Y-118981695D01*
X116555828Y-118981695D01*
X116746304Y-119029314D01*
X116841542Y-119076933D01*
X116889161Y-119124552D01*
X116936780Y-119219790D01*
X116936780Y-119315028D01*
X116889161Y-119410266D01*
X116841542Y-119457885D01*
X116746304Y-119505504D01*
X116555828Y-119553123D01*
X116317733Y-119553123D01*
X116127257Y-119505504D01*
X116032019Y-119457885D01*
X115984400Y-119410266D01*
X115936780Y-119315028D01*
D13*
%TO.C,U4*%
X165300780Y-85512123D02*
X165300780Y-86540219D01*
X165361257Y-86661171D01*
X165421733Y-86721647D01*
X165542685Y-86782123D01*
X165784590Y-86782123D01*
X165905542Y-86721647D01*
X165966019Y-86661171D01*
X166026495Y-86540219D01*
X166026495Y-85512123D01*
X167175542Y-85935457D02*
X167175542Y-86782123D01*
X166873161Y-85451647D02*
X166570780Y-86358790D01*
X167356971Y-86358790D01*
D11*
%TO.C,C22*%
X129541542Y-115792857D02*
X129589161Y-115840476D01*
X129636780Y-115983333D01*
X129636780Y-116078571D01*
X129589161Y-116221428D01*
X129493923Y-116316666D01*
X129398685Y-116364285D01*
X129208209Y-116411904D01*
X129065352Y-116411904D01*
X128874876Y-116364285D01*
X128779638Y-116316666D01*
X128684400Y-116221428D01*
X128636780Y-116078571D01*
X128636780Y-115983333D01*
X128684400Y-115840476D01*
X128732019Y-115792857D01*
X128732019Y-115411904D02*
X128684400Y-115364285D01*
X128636780Y-115269047D01*
X128636780Y-115030952D01*
X128684400Y-114935714D01*
X128732019Y-114888095D01*
X128827257Y-114840476D01*
X128922495Y-114840476D01*
X129065352Y-114888095D01*
X129636780Y-115459523D01*
X129636780Y-114840476D01*
X128732019Y-114459523D02*
X128684400Y-114411904D01*
X128636780Y-114316666D01*
X128636780Y-114078571D01*
X128684400Y-113983333D01*
X128732019Y-113935714D01*
X128827257Y-113888095D01*
X128922495Y-113888095D01*
X129065352Y-113935714D01*
X129636780Y-114507142D01*
X129636780Y-113888095D01*
%TO.C,C2*%
X144867333Y-122371142D02*
X144819714Y-122418761D01*
X144676857Y-122466380D01*
X144581619Y-122466380D01*
X144438761Y-122418761D01*
X144343523Y-122323523D01*
X144295904Y-122228285D01*
X144248285Y-122037809D01*
X144248285Y-121894952D01*
X144295904Y-121704476D01*
X144343523Y-121609238D01*
X144438761Y-121514000D01*
X144581619Y-121466380D01*
X144676857Y-121466380D01*
X144819714Y-121514000D01*
X144867333Y-121561619D01*
X145248285Y-121561619D02*
X145295904Y-121514000D01*
X145391142Y-121466380D01*
X145629238Y-121466380D01*
X145724476Y-121514000D01*
X145772095Y-121561619D01*
X145819714Y-121656857D01*
X145819714Y-121752095D01*
X145772095Y-121894952D01*
X145200666Y-122466380D01*
X145819714Y-122466380D01*
%TO.C,R40*%
X161432213Y-105659180D02*
X161098880Y-105182990D01*
X160860785Y-105659180D02*
X160860785Y-104659180D01*
X161241737Y-104659180D01*
X161336975Y-104706800D01*
X161384594Y-104754419D01*
X161432213Y-104849657D01*
X161432213Y-104992514D01*
X161384594Y-105087752D01*
X161336975Y-105135371D01*
X161241737Y-105182990D01*
X160860785Y-105182990D01*
X162289356Y-104992514D02*
X162289356Y-105659180D01*
X162051261Y-104611561D02*
X161813166Y-105325847D01*
X162432213Y-105325847D01*
X163003642Y-104659180D02*
X163098880Y-104659180D01*
X163194118Y-104706800D01*
X163241737Y-104754419D01*
X163289356Y-104849657D01*
X163336975Y-105040133D01*
X163336975Y-105278228D01*
X163289356Y-105468704D01*
X163241737Y-105563942D01*
X163194118Y-105611561D01*
X163098880Y-105659180D01*
X163003642Y-105659180D01*
X162908404Y-105611561D01*
X162860785Y-105563942D01*
X162813166Y-105468704D01*
X162765547Y-105278228D01*
X162765547Y-105040133D01*
X162813166Y-104849657D01*
X162860785Y-104754419D01*
X162908404Y-104706800D01*
X163003642Y-104659180D01*
%TO.C,Q4*%
X143194019Y-109366038D02*
X143146400Y-109461276D01*
X143051161Y-109556514D01*
X142908304Y-109699371D01*
X142860685Y-109794609D01*
X142860685Y-109889847D01*
X143098780Y-109842228D02*
X143051161Y-109937466D01*
X142955923Y-110032704D01*
X142765447Y-110080323D01*
X142432114Y-110080323D01*
X142241638Y-110032704D01*
X142146400Y-109937466D01*
X142098780Y-109842228D01*
X142098780Y-109651752D01*
X142146400Y-109556514D01*
X142241638Y-109461276D01*
X142432114Y-109413657D01*
X142765447Y-109413657D01*
X142955923Y-109461276D01*
X143051161Y-109556514D01*
X143098780Y-109651752D01*
X143098780Y-109842228D01*
X142432114Y-108556514D02*
X143098780Y-108556514D01*
X142051161Y-108794609D02*
X142765447Y-109032704D01*
X142765447Y-108413657D01*
%TO.C,R25*%
X140286480Y-84399857D02*
X139810290Y-84733190D01*
X140286480Y-84971285D02*
X139286480Y-84971285D01*
X139286480Y-84590333D01*
X139334100Y-84495095D01*
X139381719Y-84447476D01*
X139476957Y-84399857D01*
X139619814Y-84399857D01*
X139715052Y-84447476D01*
X139762671Y-84495095D01*
X139810290Y-84590333D01*
X139810290Y-84971285D01*
X139381719Y-84018904D02*
X139334100Y-83971285D01*
X139286480Y-83876047D01*
X139286480Y-83637952D01*
X139334100Y-83542714D01*
X139381719Y-83495095D01*
X139476957Y-83447476D01*
X139572195Y-83447476D01*
X139715052Y-83495095D01*
X140286480Y-84066523D01*
X140286480Y-83447476D01*
X139286480Y-82542714D02*
X139286480Y-83018904D01*
X139762671Y-83066523D01*
X139715052Y-83018904D01*
X139667433Y-82923666D01*
X139667433Y-82685571D01*
X139715052Y-82590333D01*
X139762671Y-82542714D01*
X139857909Y-82495095D01*
X140096004Y-82495095D01*
X140191242Y-82542714D01*
X140238861Y-82590333D01*
X140286480Y-82685571D01*
X140286480Y-82923666D01*
X140238861Y-83018904D01*
X140191242Y-83066523D01*
%TO.C,R22*%
X129067280Y-84412057D02*
X128591090Y-84745390D01*
X129067280Y-84983485D02*
X128067280Y-84983485D01*
X128067280Y-84602533D01*
X128114900Y-84507295D01*
X128162519Y-84459676D01*
X128257757Y-84412057D01*
X128400614Y-84412057D01*
X128495852Y-84459676D01*
X128543471Y-84507295D01*
X128591090Y-84602533D01*
X128591090Y-84983485D01*
X128162519Y-84031104D02*
X128114900Y-83983485D01*
X128067280Y-83888247D01*
X128067280Y-83650152D01*
X128114900Y-83554914D01*
X128162519Y-83507295D01*
X128257757Y-83459676D01*
X128352995Y-83459676D01*
X128495852Y-83507295D01*
X129067280Y-84078723D01*
X129067280Y-83459676D01*
X128162519Y-83078723D02*
X128114900Y-83031104D01*
X128067280Y-82935866D01*
X128067280Y-82697771D01*
X128114900Y-82602533D01*
X128162519Y-82554914D01*
X128257757Y-82507295D01*
X128352995Y-82507295D01*
X128495852Y-82554914D01*
X129067280Y-83126342D01*
X129067280Y-82507295D01*
%TO.C,R8*%
X129322533Y-99055180D02*
X128989200Y-98578990D01*
X128751104Y-99055180D02*
X128751104Y-98055180D01*
X129132057Y-98055180D01*
X129227295Y-98102800D01*
X129274914Y-98150419D01*
X129322533Y-98245657D01*
X129322533Y-98388514D01*
X129274914Y-98483752D01*
X129227295Y-98531371D01*
X129132057Y-98578990D01*
X128751104Y-98578990D01*
X129893961Y-98483752D02*
X129798723Y-98436133D01*
X129751104Y-98388514D01*
X129703485Y-98293276D01*
X129703485Y-98245657D01*
X129751104Y-98150419D01*
X129798723Y-98102800D01*
X129893961Y-98055180D01*
X130084438Y-98055180D01*
X130179676Y-98102800D01*
X130227295Y-98150419D01*
X130274914Y-98245657D01*
X130274914Y-98293276D01*
X130227295Y-98388514D01*
X130179676Y-98436133D01*
X130084438Y-98483752D01*
X129893961Y-98483752D01*
X129798723Y-98531371D01*
X129751104Y-98578990D01*
X129703485Y-98674228D01*
X129703485Y-98864704D01*
X129751104Y-98959942D01*
X129798723Y-99007561D01*
X129893961Y-99055180D01*
X130084438Y-99055180D01*
X130179676Y-99007561D01*
X130227295Y-98959942D01*
X130274914Y-98864704D01*
X130274914Y-98674228D01*
X130227295Y-98578990D01*
X130179676Y-98531371D01*
X130084438Y-98483752D01*
%TO.C,J9*%
X172009466Y-123154780D02*
X172009466Y-123869066D01*
X171961847Y-124011923D01*
X171866609Y-124107161D01*
X171723752Y-124154780D01*
X171628514Y-124154780D01*
X172533276Y-124154780D02*
X172723752Y-124154780D01*
X172818990Y-124107161D01*
X172866609Y-124059542D01*
X172961847Y-123916685D01*
X173009466Y-123726209D01*
X173009466Y-123345257D01*
X172961847Y-123250019D01*
X172914228Y-123202400D01*
X172818990Y-123154780D01*
X172628514Y-123154780D01*
X172533276Y-123202400D01*
X172485657Y-123250019D01*
X172438038Y-123345257D01*
X172438038Y-123583352D01*
X172485657Y-123678590D01*
X172533276Y-123726209D01*
X172628514Y-123773828D01*
X172818990Y-123773828D01*
X172914228Y-123726209D01*
X172961847Y-123678590D01*
X173009466Y-123583352D01*
%TO.C,R33*%
X182986942Y-105612755D02*
X182653609Y-105136565D01*
X182415514Y-105612755D02*
X182415514Y-104612755D01*
X182796466Y-104612755D01*
X182891704Y-104660375D01*
X182939323Y-104707994D01*
X182986942Y-104803232D01*
X182986942Y-104946089D01*
X182939323Y-105041327D01*
X182891704Y-105088946D01*
X182796466Y-105136565D01*
X182415514Y-105136565D01*
X183320276Y-104612755D02*
X183939323Y-104612755D01*
X183605990Y-104993708D01*
X183748847Y-104993708D01*
X183844085Y-105041327D01*
X183891704Y-105088946D01*
X183939323Y-105184184D01*
X183939323Y-105422279D01*
X183891704Y-105517517D01*
X183844085Y-105565136D01*
X183748847Y-105612755D01*
X183463133Y-105612755D01*
X183367895Y-105565136D01*
X183320276Y-105517517D01*
X184272657Y-104612755D02*
X184891704Y-104612755D01*
X184558371Y-104993708D01*
X184701228Y-104993708D01*
X184796466Y-105041327D01*
X184844085Y-105088946D01*
X184891704Y-105184184D01*
X184891704Y-105422279D01*
X184844085Y-105517517D01*
X184796466Y-105565136D01*
X184701228Y-105612755D01*
X184415514Y-105612755D01*
X184320276Y-105565136D01*
X184272657Y-105517517D01*
%TO.C,R17*%
X141836380Y-109405657D02*
X141360190Y-109738990D01*
X141836380Y-109977085D02*
X140836380Y-109977085D01*
X140836380Y-109596133D01*
X140884000Y-109500895D01*
X140931619Y-109453276D01*
X141026857Y-109405657D01*
X141169714Y-109405657D01*
X141264952Y-109453276D01*
X141312571Y-109500895D01*
X141360190Y-109596133D01*
X141360190Y-109977085D01*
X141836380Y-108453276D02*
X141836380Y-109024704D01*
X141836380Y-108738990D02*
X140836380Y-108738990D01*
X140979238Y-108834228D01*
X141074476Y-108929466D01*
X141122095Y-109024704D01*
X140836380Y-108119942D02*
X140836380Y-107453276D01*
X141836380Y-107881847D01*
%TO.C,Q1*%
X161106819Y-99814838D02*
X161059200Y-99910076D01*
X160963961Y-100005314D01*
X160821104Y-100148171D01*
X160773485Y-100243409D01*
X160773485Y-100338647D01*
X161011580Y-100291028D02*
X160963961Y-100386266D01*
X160868723Y-100481504D01*
X160678247Y-100529123D01*
X160344914Y-100529123D01*
X160154438Y-100481504D01*
X160059200Y-100386266D01*
X160011580Y-100291028D01*
X160011580Y-100100552D01*
X160059200Y-100005314D01*
X160154438Y-99910076D01*
X160344914Y-99862457D01*
X160678247Y-99862457D01*
X160868723Y-99910076D01*
X160963961Y-100005314D01*
X161011580Y-100100552D01*
X161011580Y-100291028D01*
X161011580Y-98910076D02*
X161011580Y-99481504D01*
X161011580Y-99195790D02*
X160011580Y-99195790D01*
X160154438Y-99291028D01*
X160249676Y-99386266D01*
X160297295Y-99481504D01*
%TO.C,C4*%
X133792933Y-122378742D02*
X133745314Y-122426361D01*
X133602457Y-122473980D01*
X133507219Y-122473980D01*
X133364361Y-122426361D01*
X133269123Y-122331123D01*
X133221504Y-122235885D01*
X133173885Y-122045409D01*
X133173885Y-121902552D01*
X133221504Y-121712076D01*
X133269123Y-121616838D01*
X133364361Y-121521600D01*
X133507219Y-121473980D01*
X133602457Y-121473980D01*
X133745314Y-121521600D01*
X133792933Y-121569219D01*
X134650076Y-121807314D02*
X134650076Y-122473980D01*
X134411980Y-121426361D02*
X134173885Y-122140647D01*
X134792933Y-122140647D01*
%TO.C,D12*%
X183291314Y-122372380D02*
X183291314Y-121372380D01*
X183529409Y-121372380D01*
X183672266Y-121420000D01*
X183767504Y-121515238D01*
X183815123Y-121610476D01*
X183862742Y-121800952D01*
X183862742Y-121943809D01*
X183815123Y-122134285D01*
X183767504Y-122229523D01*
X183672266Y-122324761D01*
X183529409Y-122372380D01*
X183291314Y-122372380D01*
X184815123Y-122372380D02*
X184243695Y-122372380D01*
X184529409Y-122372380D02*
X184529409Y-121372380D01*
X184434171Y-121515238D01*
X184338933Y-121610476D01*
X184243695Y-121658095D01*
X185196076Y-121467619D02*
X185243695Y-121420000D01*
X185338933Y-121372380D01*
X185577028Y-121372380D01*
X185672266Y-121420000D01*
X185719885Y-121467619D01*
X185767504Y-121562857D01*
X185767504Y-121658095D01*
X185719885Y-121800952D01*
X185148457Y-122372380D01*
X185767504Y-122372380D01*
%TO.C,R41*%
X165727142Y-105709980D02*
X165393809Y-105233790D01*
X165155714Y-105709980D02*
X165155714Y-104709980D01*
X165536666Y-104709980D01*
X165631904Y-104757600D01*
X165679523Y-104805219D01*
X165727142Y-104900457D01*
X165727142Y-105043314D01*
X165679523Y-105138552D01*
X165631904Y-105186171D01*
X165536666Y-105233790D01*
X165155714Y-105233790D01*
X166584285Y-105043314D02*
X166584285Y-105709980D01*
X166346190Y-104662361D02*
X166108095Y-105376647D01*
X166727142Y-105376647D01*
X167631904Y-105709980D02*
X167060476Y-105709980D01*
X167346190Y-105709980D02*
X167346190Y-104709980D01*
X167250952Y-104852838D01*
X167155714Y-104948076D01*
X167060476Y-104995695D01*
%TO.C,C13*%
X137153942Y-94355857D02*
X137201561Y-94403476D01*
X137249180Y-94546333D01*
X137249180Y-94641571D01*
X137201561Y-94784428D01*
X137106323Y-94879666D01*
X137011085Y-94927285D01*
X136820609Y-94974904D01*
X136677752Y-94974904D01*
X136487276Y-94927285D01*
X136392038Y-94879666D01*
X136296800Y-94784428D01*
X136249180Y-94641571D01*
X136249180Y-94546333D01*
X136296800Y-94403476D01*
X136344419Y-94355857D01*
X137249180Y-93403476D02*
X137249180Y-93974904D01*
X137249180Y-93689190D02*
X136249180Y-93689190D01*
X136392038Y-93784428D01*
X136487276Y-93879666D01*
X136534895Y-93974904D01*
X136249180Y-93070142D02*
X136249180Y-92451095D01*
X136630133Y-92784428D01*
X136630133Y-92641571D01*
X136677752Y-92546333D01*
X136725371Y-92498714D01*
X136820609Y-92451095D01*
X137058704Y-92451095D01*
X137153942Y-92498714D01*
X137201561Y-92546333D01*
X137249180Y-92641571D01*
X137249180Y-92927285D01*
X137201561Y-93022523D01*
X137153942Y-93070142D01*
%TO.C,R12*%
X135247142Y-116123980D02*
X134913809Y-115647790D01*
X134675714Y-116123980D02*
X134675714Y-115123980D01*
X135056666Y-115123980D01*
X135151904Y-115171600D01*
X135199523Y-115219219D01*
X135247142Y-115314457D01*
X135247142Y-115457314D01*
X135199523Y-115552552D01*
X135151904Y-115600171D01*
X135056666Y-115647790D01*
X134675714Y-115647790D01*
X136199523Y-116123980D02*
X135628095Y-116123980D01*
X135913809Y-116123980D02*
X135913809Y-115123980D01*
X135818571Y-115266838D01*
X135723333Y-115362076D01*
X135628095Y-115409695D01*
X136580476Y-115219219D02*
X136628095Y-115171600D01*
X136723333Y-115123980D01*
X136961428Y-115123980D01*
X137056666Y-115171600D01*
X137104285Y-115219219D01*
X137151904Y-115314457D01*
X137151904Y-115409695D01*
X137104285Y-115552552D01*
X136532857Y-116123980D01*
X137151904Y-116123980D01*
%TO.C,R21*%
X132696442Y-86558380D02*
X132363109Y-86082190D01*
X132125014Y-86558380D02*
X132125014Y-85558380D01*
X132505966Y-85558380D01*
X132601204Y-85606000D01*
X132648823Y-85653619D01*
X132696442Y-85748857D01*
X132696442Y-85891714D01*
X132648823Y-85986952D01*
X132601204Y-86034571D01*
X132505966Y-86082190D01*
X132125014Y-86082190D01*
X133077395Y-85653619D02*
X133125014Y-85606000D01*
X133220252Y-85558380D01*
X133458347Y-85558380D01*
X133553585Y-85606000D01*
X133601204Y-85653619D01*
X133648823Y-85748857D01*
X133648823Y-85844095D01*
X133601204Y-85986952D01*
X133029776Y-86558380D01*
X133648823Y-86558380D01*
X134601204Y-86558380D02*
X134029776Y-86558380D01*
X134315490Y-86558380D02*
X134315490Y-85558380D01*
X134220252Y-85701238D01*
X134125014Y-85796476D01*
X134029776Y-85844095D01*
%TO.C,D3*%
X128195678Y-134361180D02*
X128195678Y-133361180D01*
X128433774Y-133361180D01*
X128576631Y-133408800D01*
X128671869Y-133504038D01*
X128719488Y-133599276D01*
X128767107Y-133789752D01*
X128767107Y-133932609D01*
X128719488Y-134123085D01*
X128671869Y-134218323D01*
X128576631Y-134313561D01*
X128433774Y-134361180D01*
X128195678Y-134361180D01*
X129100440Y-133361180D02*
X129719488Y-133361180D01*
X129386154Y-133742133D01*
X129529012Y-133742133D01*
X129624250Y-133789752D01*
X129671869Y-133837371D01*
X129719488Y-133932609D01*
X129719488Y-134170704D01*
X129671869Y-134265942D01*
X129624250Y-134313561D01*
X129529012Y-134361180D01*
X129243297Y-134361180D01*
X129148059Y-134313561D01*
X129100440Y-134265942D01*
%TO.C,R10*%
X122356142Y-117080780D02*
X122022809Y-116604590D01*
X121784714Y-117080780D02*
X121784714Y-116080780D01*
X122165666Y-116080780D01*
X122260904Y-116128400D01*
X122308523Y-116176019D01*
X122356142Y-116271257D01*
X122356142Y-116414114D01*
X122308523Y-116509352D01*
X122260904Y-116556971D01*
X122165666Y-116604590D01*
X121784714Y-116604590D01*
X123308523Y-117080780D02*
X122737095Y-117080780D01*
X123022809Y-117080780D02*
X123022809Y-116080780D01*
X122927571Y-116223638D01*
X122832333Y-116318876D01*
X122737095Y-116366495D01*
X123927571Y-116080780D02*
X124022809Y-116080780D01*
X124118047Y-116128400D01*
X124165666Y-116176019D01*
X124213285Y-116271257D01*
X124260904Y-116461733D01*
X124260904Y-116699828D01*
X124213285Y-116890304D01*
X124165666Y-116985542D01*
X124118047Y-117033161D01*
X124022809Y-117080780D01*
X123927571Y-117080780D01*
X123832333Y-117033161D01*
X123784714Y-116985542D01*
X123737095Y-116890304D01*
X123689476Y-116699828D01*
X123689476Y-116461733D01*
X123737095Y-116271257D01*
X123784714Y-116176019D01*
X123832333Y-116128400D01*
X123927571Y-116080780D01*
%TO.C,R26*%
X170045142Y-104389180D02*
X169711809Y-103912990D01*
X169473714Y-104389180D02*
X169473714Y-103389180D01*
X169854666Y-103389180D01*
X169949904Y-103436800D01*
X169997523Y-103484419D01*
X170045142Y-103579657D01*
X170045142Y-103722514D01*
X169997523Y-103817752D01*
X169949904Y-103865371D01*
X169854666Y-103912990D01*
X169473714Y-103912990D01*
X170426095Y-103484419D02*
X170473714Y-103436800D01*
X170568952Y-103389180D01*
X170807047Y-103389180D01*
X170902285Y-103436800D01*
X170949904Y-103484419D01*
X170997523Y-103579657D01*
X170997523Y-103674895D01*
X170949904Y-103817752D01*
X170378476Y-104389180D01*
X170997523Y-104389180D01*
X171854666Y-103389180D02*
X171664190Y-103389180D01*
X171568952Y-103436800D01*
X171521333Y-103484419D01*
X171426095Y-103627276D01*
X171378476Y-103817752D01*
X171378476Y-104198704D01*
X171426095Y-104293942D01*
X171473714Y-104341561D01*
X171568952Y-104389180D01*
X171759428Y-104389180D01*
X171854666Y-104341561D01*
X171902285Y-104293942D01*
X171949904Y-104198704D01*
X171949904Y-103960609D01*
X171902285Y-103865371D01*
X171854666Y-103817752D01*
X171759428Y-103770133D01*
X171568952Y-103770133D01*
X171473714Y-103817752D01*
X171426095Y-103865371D01*
X171378476Y-103960609D01*
%TO.C,R32*%
X178683612Y-105629781D02*
X178350279Y-105153591D01*
X178112184Y-105629781D02*
X178112184Y-104629781D01*
X178493136Y-104629781D01*
X178588374Y-104677401D01*
X178635993Y-104725020D01*
X178683612Y-104820258D01*
X178683612Y-104963115D01*
X178635993Y-105058353D01*
X178588374Y-105105972D01*
X178493136Y-105153591D01*
X178112184Y-105153591D01*
X179016946Y-104629781D02*
X179635993Y-104629781D01*
X179302660Y-105010734D01*
X179445517Y-105010734D01*
X179540755Y-105058353D01*
X179588374Y-105105972D01*
X179635993Y-105201210D01*
X179635993Y-105439305D01*
X179588374Y-105534543D01*
X179540755Y-105582162D01*
X179445517Y-105629781D01*
X179159803Y-105629781D01*
X179064565Y-105582162D01*
X179016946Y-105534543D01*
X180016946Y-104725020D02*
X180064565Y-104677401D01*
X180159803Y-104629781D01*
X180397898Y-104629781D01*
X180493136Y-104677401D01*
X180540755Y-104725020D01*
X180588374Y-104820258D01*
X180588374Y-104915496D01*
X180540755Y-105058353D01*
X179969327Y-105629781D01*
X180588374Y-105629781D01*
%TO.C,SW2*%
X102466666Y-91154761D02*
X102609523Y-91202380D01*
X102847619Y-91202380D01*
X102942857Y-91154761D01*
X102990476Y-91107142D01*
X103038095Y-91011904D01*
X103038095Y-90916666D01*
X102990476Y-90821428D01*
X102942857Y-90773809D01*
X102847619Y-90726190D01*
X102657142Y-90678571D01*
X102561904Y-90630952D01*
X102514285Y-90583333D01*
X102466666Y-90488095D01*
X102466666Y-90392857D01*
X102514285Y-90297619D01*
X102561904Y-90250000D01*
X102657142Y-90202380D01*
X102895238Y-90202380D01*
X103038095Y-90250000D01*
X103371428Y-90202380D02*
X103609523Y-91202380D01*
X103800000Y-90488095D01*
X103990476Y-91202380D01*
X104228571Y-90202380D01*
X104561904Y-90297619D02*
X104609523Y-90250000D01*
X104704761Y-90202380D01*
X104942857Y-90202380D01*
X105038095Y-90250000D01*
X105085714Y-90297619D01*
X105133333Y-90392857D01*
X105133333Y-90488095D01*
X105085714Y-90630952D01*
X104514285Y-91202380D01*
X105133333Y-91202380D01*
D14*
%TO.C,C8*%
X127161241Y-95375400D02*
X126638737Y-95375400D01*
X127161241Y-93905400D02*
X126638737Y-93905400D01*
%TO.C,D4*%
X109396800Y-124405600D02*
X109396800Y-119005600D01*
X106096800Y-124405600D02*
X109396800Y-124405600D01*
X106096800Y-124405600D02*
X106096800Y-119005600D01*
%TO.C,C12*%
X126824369Y-102199400D02*
X126543209Y-102199400D01*
X126824369Y-101179400D02*
X126543209Y-101179400D01*
%TO.C,Q6*%
X170616227Y-110555600D02*
X171266227Y-110555600D01*
X170616227Y-113675600D02*
X172291227Y-113675600D01*
X170616227Y-113675600D02*
X169966227Y-113675600D01*
X170616227Y-110555600D02*
X169966227Y-110555600D01*
%TO.C,J10*%
X156176800Y-134302974D02*
X156176800Y-128802974D01*
X150626800Y-123502974D02*
X151226800Y-123502974D01*
X158176800Y-128802974D02*
X158176800Y-134302974D01*
X153176800Y-134302974D02*
X153676800Y-134302974D01*
X150926800Y-124102974D02*
X150626800Y-123502974D01*
X163486800Y-134912974D02*
X163486800Y-123192974D01*
X153676800Y-134302974D02*
X153676800Y-128802974D01*
X161176800Y-134302974D02*
X161176800Y-128802974D01*
X148366800Y-134912974D02*
X148366800Y-123192974D01*
X158176800Y-134302974D02*
X158676800Y-134302974D01*
X150676800Y-134302974D02*
X151176800Y-134302974D01*
X161176800Y-128802974D02*
X160676800Y-128802974D01*
X155676800Y-128802974D02*
X155676800Y-134302974D01*
X151226800Y-123502974D02*
X150926800Y-124102974D01*
X162066800Y-123192974D02*
X162066800Y-127692974D01*
X153676800Y-128802974D02*
X153176800Y-128802974D01*
X155926800Y-134912974D02*
X163486800Y-134912974D01*
X148366800Y-123192974D02*
X149786800Y-123192974D01*
X163486800Y-123192974D02*
X162066800Y-123192974D01*
X149786800Y-123192974D02*
X149786800Y-127692974D01*
X150676800Y-128802974D02*
X150676800Y-134302974D01*
X158676800Y-134302974D02*
X158676800Y-128802974D01*
X155926800Y-134912974D02*
X148366800Y-134912974D01*
X153176800Y-128802974D02*
X153176800Y-134302974D01*
X162066800Y-127692974D02*
X155926800Y-127692974D01*
X151176800Y-134302974D02*
X151176800Y-128802974D01*
X160676800Y-128802974D02*
X160676800Y-134302974D01*
X151176800Y-128802974D02*
X150676800Y-128802974D01*
X156176800Y-128802974D02*
X155676800Y-128802974D01*
X155676800Y-134302974D02*
X156176800Y-134302974D01*
X160676800Y-134302974D02*
X161176800Y-134302974D01*
X158676800Y-128802974D02*
X158176800Y-128802974D01*
X149786800Y-127692974D02*
X155926800Y-127692974D01*
%TO.C,J5*%
X93532071Y-91875000D02*
X93135000Y-91875000D01*
X84475000Y-92635000D02*
X84475000Y-91875000D01*
X93532071Y-90095000D02*
X93135000Y-90095000D01*
X95845000Y-99875000D02*
X95845000Y-101145000D01*
X90475000Y-95175000D02*
X84475000Y-95175000D01*
X90475000Y-99955000D02*
X84475000Y-99955000D01*
X93532071Y-89335000D02*
X93135000Y-89335000D01*
X90475000Y-92635000D02*
X84475000Y-92635000D01*
X84475000Y-99495000D02*
X90475000Y-99495000D01*
X90475000Y-100255000D02*
X84475000Y-100255000D01*
X93135000Y-101205000D02*
X93135000Y-88385000D01*
X84475000Y-94415000D02*
X90475000Y-94415000D01*
X90475000Y-90095000D02*
X84475000Y-90095000D01*
X93465000Y-99495000D02*
X93135000Y-99495000D01*
X93135000Y-98605000D02*
X90475000Y-98605000D01*
X84475000Y-100255000D02*
X84475000Y-99495000D01*
X90475000Y-100075000D02*
X84475000Y-100075000D01*
X93135000Y-93525000D02*
X90475000Y-93525000D01*
X90475000Y-101205000D02*
X93135000Y-101205000D01*
X93135000Y-88385000D02*
X90475000Y-88385000D01*
X95845000Y-101145000D02*
X94575000Y-101145000D01*
X90475000Y-99715000D02*
X84475000Y-99715000D01*
X90475000Y-99835000D02*
X84475000Y-99835000D01*
X93532071Y-94415000D02*
X93135000Y-94415000D01*
X90475000Y-97715000D02*
X84475000Y-97715000D01*
X90475000Y-88385000D02*
X90475000Y-101205000D01*
X93532071Y-92635000D02*
X93135000Y-92635000D01*
X84475000Y-96955000D02*
X90475000Y-96955000D01*
X84475000Y-90095000D02*
X84475000Y-89335000D01*
X93135000Y-90985000D02*
X90475000Y-90985000D01*
X84475000Y-91875000D02*
X90475000Y-91875000D01*
X84475000Y-97715000D02*
X84475000Y-96955000D01*
X84475000Y-89335000D02*
X90475000Y-89335000D01*
X84475000Y-95175000D02*
X84475000Y-94415000D01*
X90475000Y-100195000D02*
X84475000Y-100195000D01*
X93532071Y-97715000D02*
X93135000Y-97715000D01*
X93135000Y-96065000D02*
X90475000Y-96065000D01*
X90475000Y-99595000D02*
X84475000Y-99595000D01*
X93532071Y-95175000D02*
X93135000Y-95175000D01*
X93465000Y-100255000D02*
X93135000Y-100255000D01*
X93532071Y-96955000D02*
X93135000Y-96955000D01*
%TO.C,R14*%
X109185942Y-103363500D02*
X109660458Y-103363500D01*
X109185942Y-104408500D02*
X109660458Y-104408500D01*
%TO.C,D10*%
X174189413Y-121062297D02*
X177489413Y-121062297D01*
X174189413Y-121062297D02*
X174189413Y-115662297D01*
X177489413Y-121062297D02*
X177489413Y-115662297D01*
%TO.C,R35*%
X157621413Y-108387926D02*
X158095929Y-108387926D01*
X157621413Y-107342926D02*
X158095929Y-107342926D01*
%TO.C,R34*%
X153417213Y-107342926D02*
X153891729Y-107342926D01*
X153417213Y-108387926D02*
X153891729Y-108387926D01*
%TO.C,R39*%
X158095929Y-109019326D02*
X157621413Y-109019326D01*
X158095929Y-110064326D02*
X157621413Y-110064326D01*
%TO.C,R27*%
X174824626Y-107292126D02*
X175299142Y-107292126D01*
X174824626Y-108337126D02*
X175299142Y-108337126D01*
%TO.C,D14*%
X156986200Y-121062297D02*
X160286200Y-121062297D01*
X156986200Y-121062297D02*
X156986200Y-115662297D01*
X160286200Y-121062297D02*
X160286200Y-115662297D01*
%TO.C,R5*%
X108729742Y-89955900D02*
X109204258Y-89955900D01*
X108729742Y-88910900D02*
X109204258Y-88910900D01*
%TO.C,R15*%
X144642100Y-108513342D02*
X144642100Y-108987858D01*
X143597100Y-108513342D02*
X143597100Y-108987858D01*
%TO.C,SW3*%
X140209200Y-127798000D02*
X140209200Y-132298000D01*
X142709200Y-133548000D02*
X144209200Y-133548000D01*
X146709200Y-132298000D02*
X146709200Y-127798000D01*
X144209200Y-126548000D02*
X142709200Y-126548000D01*
%TO.C,R2*%
X112303058Y-89955900D02*
X111828542Y-89955900D01*
X112303058Y-88910900D02*
X111828542Y-88910900D01*
%TO.C,R24*%
X137795200Y-83481142D02*
X137795200Y-83955658D01*
X138840200Y-83481142D02*
X138840200Y-83955658D01*
%TO.C,R19*%
X148807700Y-108513342D02*
X148807700Y-108987858D01*
X147762700Y-108513342D02*
X147762700Y-108987858D01*
%TO.C,R16*%
X145152342Y-114082300D02*
X145626858Y-114082300D01*
X145152342Y-115127300D02*
X145626858Y-115127300D01*
%TO.C,BZ1*%
X119942800Y-112217200D02*
G75*
G03*
X119942800Y-112217200I-6100000J0D01*
G01*
%TO.C,D13*%
X152731200Y-121030297D02*
X156031200Y-121030297D01*
X156031200Y-121030297D02*
X156031200Y-115630297D01*
X152731200Y-121030297D02*
X152731200Y-115630297D01*
%TO.C,C23*%
X130735400Y-118676052D02*
X130735400Y-118153548D01*
X132205400Y-118676052D02*
X132205400Y-118153548D01*
%TO.C,FB1*%
X97737200Y-107020479D02*
X97737200Y-106694921D01*
X98757200Y-107020479D02*
X98757200Y-106694921D01*
%TO.C,C21*%
X125270800Y-123359420D02*
X125270800Y-123640580D01*
X126290800Y-123359420D02*
X126290800Y-123640580D01*
D10*
%TO.C,F1*%
X104764400Y-122056400D02*
X104764400Y-120056400D01*
X100264400Y-122056400D02*
X100264400Y-120056400D01*
D14*
%TO.C,Q12*%
X161998871Y-113675600D02*
X163673871Y-113675600D01*
X161998871Y-110555600D02*
X161348871Y-110555600D01*
X161998871Y-110555600D02*
X162648871Y-110555600D01*
X161998871Y-113675600D02*
X161348871Y-113675600D01*
%TO.C,J11*%
X136708400Y-81183600D02*
X142488400Y-81183600D01*
X136708400Y-74963600D02*
X142488400Y-74963600D01*
X136468400Y-81943600D02*
X136868400Y-81943600D01*
X142488400Y-74963600D02*
X142488400Y-81703600D01*
X136468400Y-81303600D02*
X136468400Y-81943600D01*
X136708400Y-74963600D02*
X136708400Y-81703600D01*
X136708400Y-81703600D02*
X142488400Y-81703600D01*
X136708400Y-76083600D02*
X142488400Y-76083600D01*
%TO.C,C9*%
X127149041Y-95988200D02*
X126626537Y-95988200D01*
X127149041Y-97458200D02*
X126626537Y-97458200D01*
%TO.C,C5*%
X131018000Y-107733220D02*
X131018000Y-108014380D01*
X132038000Y-107733220D02*
X132038000Y-108014380D01*
%TO.C,R37*%
X166181213Y-107342926D02*
X166655729Y-107342926D01*
X166181213Y-108387926D02*
X166655729Y-108387926D01*
%TO.C,Q13*%
X166291471Y-113675600D02*
X165641471Y-113675600D01*
X166291471Y-110555600D02*
X165641471Y-110555600D01*
X166291471Y-110555600D02*
X166941471Y-110555600D01*
X166291471Y-113675600D02*
X167966471Y-113675600D01*
%TO.C,Q10*%
X153476671Y-113675600D02*
X155151671Y-113675600D01*
X153476671Y-110555600D02*
X152826671Y-110555600D01*
X153476671Y-113675600D02*
X152826671Y-113675600D01*
X153476671Y-110555600D02*
X154126671Y-110555600D01*
%TO.C,U3*%
X122326400Y-119902800D02*
X121526400Y-119902800D01*
X122326400Y-119902800D02*
X123126400Y-119902800D01*
X122326400Y-123022800D02*
X121526400Y-123022800D01*
X122326400Y-123022800D02*
X124126400Y-123022800D01*
%TO.C,D1*%
X100813600Y-117122400D02*
X104113600Y-117122400D01*
X104113600Y-117122400D02*
X104113600Y-111722400D01*
X100813600Y-117122400D02*
X100813600Y-111722400D01*
%TO.C,C24*%
X164386800Y-99325820D02*
X164386800Y-99606980D01*
X165406800Y-99325820D02*
X165406800Y-99606980D01*
%TO.C,Y1*%
X144393400Y-99594400D02*
X144393400Y-102894400D01*
X144393400Y-102894400D02*
X148393400Y-102894400D01*
%TO.C,D11*%
X181816999Y-121062297D02*
X181816999Y-115662297D01*
X178516999Y-121062297D02*
X181816999Y-121062297D01*
X178516999Y-121062297D02*
X178516999Y-115662297D01*
%TO.C,J7*%
X134229800Y-90458600D02*
X134229800Y-89128600D01*
X144509800Y-90458600D02*
X144509800Y-87798600D01*
X136829800Y-90458600D02*
X136829800Y-87798600D01*
X136829800Y-87798600D02*
X144509800Y-87798600D01*
X136829800Y-90458600D02*
X144509800Y-90458600D01*
X135559800Y-90458600D02*
X134229800Y-90458600D01*
%TO.C,C16*%
X126812169Y-102766400D02*
X126531009Y-102766400D01*
X126812169Y-103786400D02*
X126531009Y-103786400D01*
D11*
%TO.C,TP1*%
X131798000Y-123647200D02*
G75*
G03*
X131798000Y-123647200I-1750000J0D01*
G01*
D14*
%TO.C,J1*%
X117537000Y-98595000D02*
X117537000Y-103735000D01*
X117537000Y-95995000D02*
X118867000Y-95995000D01*
X117537000Y-103735000D02*
X122737000Y-103735000D01*
X120137000Y-95995000D02*
X122737000Y-95995000D01*
X120137000Y-98595000D02*
X120137000Y-95995000D01*
X117537000Y-98595000D02*
X120137000Y-98595000D01*
X117537000Y-97325000D02*
X117537000Y-95995000D01*
X122737000Y-95995000D02*
X122737000Y-103735000D01*
%TO.C,D5*%
X100030200Y-108363200D02*
X100700200Y-108363200D01*
X99345200Y-108363200D02*
X99345200Y-106433200D01*
X100700200Y-108363200D02*
X100700200Y-106433200D01*
X99345200Y-108363200D02*
X100015200Y-108363200D01*
%TO.C,J3*%
X94021400Y-113180000D02*
X91421400Y-113180000D01*
X96331400Y-107170000D02*
X96921400Y-107170000D01*
X86861400Y-113180000D02*
X88521400Y-113180000D01*
X96331400Y-111270000D02*
X96331400Y-112420000D01*
X86861400Y-105260000D02*
X86861400Y-113180000D01*
X88521400Y-105260000D02*
X86861400Y-105260000D01*
X91421400Y-105260000D02*
X94021400Y-105260000D01*
X96331400Y-106020000D02*
X96331400Y-107170000D01*
X96921400Y-107170000D02*
X96921400Y-107870000D01*
%TO.C,R30*%
X170968285Y-110064326D02*
X170493769Y-110064326D01*
X170968285Y-109019326D02*
X170493769Y-109019326D01*
%TO.C,C15*%
X136990000Y-108609420D02*
X136990000Y-108890580D01*
X138010000Y-108609420D02*
X138010000Y-108890580D01*
D11*
%TO.C,D7*%
X142627500Y-117711600D02*
X142627500Y-116711600D01*
X148127500Y-119711600D02*
X142727500Y-119711600D01*
X148127500Y-116711600D02*
X142627500Y-116711600D01*
D14*
%TO.C,D16*%
X165546000Y-121062297D02*
X165546000Y-115662297D01*
X168846000Y-121062297D02*
X168846000Y-115662297D01*
X165546000Y-121062297D02*
X168846000Y-121062297D01*
%TO.C,D6*%
X134389800Y-117082200D02*
X132919800Y-117082200D01*
X132919800Y-117082200D02*
X132919800Y-119367200D01*
X134389800Y-119367200D02*
X134389800Y-117082200D01*
%TO.C,R3*%
X141647142Y-123966500D02*
X142121658Y-123966500D01*
X141647142Y-122921500D02*
X142121658Y-122921500D01*
%TO.C,Q5*%
X149365200Y-113675600D02*
X150015200Y-113675600D01*
X149365200Y-110555600D02*
X150015200Y-110555600D01*
X149365200Y-110555600D02*
X147690200Y-110555600D01*
X149365200Y-113675600D02*
X148715200Y-113675600D01*
%TO.C,J4*%
X87888000Y-125629556D02*
X86888000Y-124629556D01*
X87888000Y-115759556D02*
X97008000Y-115759556D01*
X97008000Y-125629556D02*
X97008000Y-123204556D01*
X86888000Y-116759556D02*
X87888000Y-115759556D01*
X97008000Y-121184556D02*
X97008000Y-119846323D01*
X97008000Y-125629556D02*
X87888000Y-125629556D01*
X86888000Y-124629556D02*
X86888000Y-116759556D01*
X97008000Y-115759556D02*
X97008000Y-118542789D01*
%TO.C,SW4*%
X132335200Y-127798000D02*
X132335200Y-132298000D01*
X134835200Y-133548000D02*
X136335200Y-133548000D01*
X138835200Y-132298000D02*
X138835200Y-127798000D01*
X136335200Y-126548000D02*
X134835200Y-126548000D01*
D10*
%TO.C,L1*%
X124680800Y-121446800D02*
X124680800Y-119446800D01*
X126880800Y-119446800D02*
X126880800Y-121446800D01*
D14*
%TO.C,D2*%
X123368800Y-133041600D02*
X123368800Y-127641600D01*
X126668800Y-133041600D02*
X126668800Y-127641600D01*
X123368800Y-133041600D02*
X126668800Y-133041600D01*
D11*
%TO.C,TP3*%
X127581600Y-114757200D02*
G75*
G03*
X127581600Y-114757200I-1750000J0D01*
G01*
D14*
%TO.C,C1*%
X145694020Y-103274400D02*
X145975180Y-103274400D01*
X145694020Y-104294400D02*
X145975180Y-104294400D01*
%TO.C,C18*%
X111279000Y-123131948D02*
X111279000Y-123654452D01*
X112749000Y-123131948D02*
X112749000Y-123654452D01*
D11*
%TO.C,TP5*%
X150289200Y-88493600D02*
G75*
G03*
X150289200Y-88493600I-1750000J0D01*
G01*
D14*
%TO.C,D15*%
X161253400Y-121062297D02*
X161253400Y-115662297D01*
X161253400Y-121062297D02*
X164553400Y-121062297D01*
X164553400Y-121062297D02*
X164553400Y-115662297D01*
%TO.C,R29*%
X183455542Y-108387926D02*
X183930058Y-108387926D01*
X183455542Y-107342926D02*
X183930058Y-107342926D01*
%TO.C,R7*%
X126921847Y-99592100D02*
X126447331Y-99592100D01*
X126921847Y-100637100D02*
X126447331Y-100637100D01*
%TO.C,Q8*%
X179262470Y-113675600D02*
X178612470Y-113675600D01*
X179262470Y-113675600D02*
X180937470Y-113675600D01*
X179262470Y-110555600D02*
X178612470Y-110555600D01*
X179262470Y-110555600D02*
X179912470Y-110555600D01*
%TO.C,R11*%
X119515658Y-118522500D02*
X119041142Y-118522500D01*
X119515658Y-117477500D02*
X119041142Y-117477500D01*
%TO.C,D9*%
X169870756Y-121062297D02*
X173170756Y-121062297D01*
X173170756Y-121062297D02*
X173170756Y-115662297D01*
X169870756Y-121062297D02*
X169870756Y-115662297D01*
%TO.C,C10*%
X134110000Y-93853580D02*
X134110000Y-93572420D01*
X135130000Y-93853580D02*
X135130000Y-93572420D01*
%TO.C,R18*%
X140986742Y-114082300D02*
X141461258Y-114082300D01*
X140986742Y-115127300D02*
X141461258Y-115127300D01*
%TO.C,Q11*%
X157731671Y-110555600D02*
X157081671Y-110555600D01*
X157731671Y-110555600D02*
X158381671Y-110555600D01*
X157731671Y-113675600D02*
X159406671Y-113675600D01*
X157731671Y-113675600D02*
X157081671Y-113675600D01*
%TO.C,R28*%
X179152212Y-107342926D02*
X179626728Y-107342926D01*
X179152212Y-108387926D02*
X179626728Y-108387926D01*
%TO.C,C14*%
X133555200Y-93866580D02*
X133555200Y-93585420D01*
X132535200Y-93866580D02*
X132535200Y-93585420D01*
%TO.C,R36*%
X161888613Y-108337126D02*
X162363129Y-108337126D01*
X161888613Y-107292126D02*
X162363129Y-107292126D01*
%TO.C,C25*%
X167231600Y-99312820D02*
X167231600Y-99593980D01*
X168251600Y-99312820D02*
X168251600Y-99593980D01*
%TO.C,Q9*%
X183565800Y-113675600D02*
X185240800Y-113675600D01*
X183565800Y-110555600D02*
X184215800Y-110555600D01*
X183565800Y-110555600D02*
X182915800Y-110555600D01*
X183565800Y-113675600D02*
X182915800Y-113675600D01*
%TO.C,R13*%
X162271942Y-102782900D02*
X162746458Y-102782900D01*
X162271942Y-101737900D02*
X162746458Y-101737900D01*
%TO.C,R23*%
X144783800Y-84006458D02*
X144783800Y-83531942D01*
X143738800Y-84006458D02*
X143738800Y-83531942D01*
%TO.C,C7*%
X142800800Y-96050980D02*
X142800800Y-95769820D01*
X141780800Y-96050980D02*
X141780800Y-95769820D01*
%TO.C,Q3*%
X145237200Y-110555600D02*
X145887200Y-110555600D01*
X145237200Y-113675600D02*
X144587200Y-113675600D01*
X145237200Y-110555600D02*
X143562200Y-110555600D01*
X145237200Y-113675600D02*
X145887200Y-113675600D01*
%TO.C,Q7*%
X174934884Y-113675600D02*
X176609884Y-113675600D01*
X174934884Y-110555600D02*
X175584884Y-110555600D01*
X174934884Y-110555600D02*
X174284884Y-110555600D01*
X174934884Y-113675600D02*
X174284884Y-113675600D01*
%TO.C,R20*%
X149267142Y-114082300D02*
X149741658Y-114082300D01*
X149267142Y-115127300D02*
X149741658Y-115127300D01*
%TO.C,C19*%
X113666600Y-123131948D02*
X113666600Y-123654452D01*
X115136600Y-123131948D02*
X115136600Y-123654452D01*
%TO.C,U2*%
X140837800Y-104261800D02*
X140837800Y-103651640D01*
X133583800Y-104261800D02*
X134193960Y-104261800D01*
X133583800Y-97007800D02*
X133583800Y-97617960D01*
X134193960Y-97007800D02*
X133583800Y-97007800D01*
X140837800Y-97617960D02*
X140837800Y-97007800D01*
X133583800Y-103651640D02*
X133583800Y-104261800D01*
X140227640Y-104261800D02*
X140837800Y-104261800D01*
X140837800Y-97007800D02*
X140227640Y-97007800D01*
D12*
X134010400Y-104749600D02*
G75*
G03*
X134010400Y-104749600I0J0D01*
G01*
D14*
%TO.C,R9*%
X118784900Y-123003542D02*
X118784900Y-123478058D01*
X117739900Y-123003542D02*
X117739900Y-123478058D01*
%TO.C,C17*%
X134160800Y-108602705D02*
X134160800Y-108883865D01*
X135180800Y-108602705D02*
X135180800Y-108883865D01*
%TO.C,R1*%
X102218258Y-90006700D02*
X101743742Y-90006700D01*
X102218258Y-88961700D02*
X101743742Y-88961700D01*
%TO.C,U1*%
X123208200Y-106291800D02*
X123208200Y-106551800D01*
X128658200Y-106291800D02*
X128658200Y-106551800D01*
X125933200Y-106291800D02*
X128658200Y-106291800D01*
X128658200Y-111741800D02*
X128658200Y-111481800D01*
X125933200Y-106291800D02*
X123208200Y-106291800D01*
X125933200Y-111741800D02*
X123208200Y-111741800D01*
X123208200Y-106551800D02*
X121533200Y-106551800D01*
X125933200Y-111741800D02*
X128658200Y-111741800D01*
X123208200Y-111741800D02*
X123208200Y-111481800D01*
%TO.C,R4*%
X145994658Y-99277700D02*
X145520142Y-99277700D01*
X145994658Y-98232700D02*
X145520142Y-98232700D01*
%TO.C,C26*%
X126631700Y-83947580D02*
X126631700Y-83666420D01*
X127651700Y-83947580D02*
X127651700Y-83666420D01*
%TO.C,C3*%
X148691220Y-99265200D02*
X148972380Y-99265200D01*
X148691220Y-98245200D02*
X148972380Y-98245200D01*
%TO.C,R6*%
X137346458Y-123966500D02*
X136871942Y-123966500D01*
X137346458Y-122921500D02*
X136871942Y-122921500D01*
%TO.C,J2*%
X117587800Y-88655397D02*
X122787800Y-88655397D01*
X117587800Y-78435397D02*
X117587800Y-88655397D01*
X117587800Y-78435397D02*
X120187800Y-78435397D01*
X117587800Y-77165397D02*
X117587800Y-75835397D01*
X120187800Y-78435397D02*
X120187800Y-75835397D01*
X117587800Y-75835397D02*
X118917800Y-75835397D01*
X120187800Y-75835397D02*
X122787800Y-75835397D01*
X122787800Y-75835397D02*
X122787800Y-88655397D01*
%TO.C,D8*%
X146472700Y-82969200D02*
X146472700Y-85254200D01*
X146472700Y-85254200D02*
X147942700Y-85254200D01*
X147942700Y-85254200D02*
X147942700Y-82969200D01*
%TO.C,R38*%
X153879529Y-110064326D02*
X153405013Y-110064326D01*
X153879529Y-109019326D02*
X153405013Y-109019326D01*
D11*
%TO.C,TP2*%
X106550400Y-107543600D02*
G75*
G03*
X106550400Y-107543600I-1750000J0D01*
G01*
D14*
%TO.C,J8*%
X130460000Y-76083600D02*
X136240000Y-76083600D01*
X136240000Y-74963600D02*
X136240000Y-81703600D01*
X130460000Y-81703600D02*
X136240000Y-81703600D01*
X130460000Y-74963600D02*
X136240000Y-74963600D01*
X130220000Y-81303600D02*
X130220000Y-81943600D01*
X130220000Y-81943600D02*
X130620000Y-81943600D01*
X130460000Y-81183600D02*
X136240000Y-81183600D01*
X130460000Y-74963600D02*
X130460000Y-81703600D01*
%TO.C,R31*%
X175299142Y-109019326D02*
X174824626Y-109019326D01*
X175299142Y-110064326D02*
X174824626Y-110064326D01*
%TO.C,J6*%
X114380000Y-72050000D02*
X115140000Y-72050000D01*
X104220000Y-78050000D02*
X104220000Y-72050000D01*
X99900000Y-81107071D02*
X99900000Y-80710000D01*
X97140000Y-78050000D02*
X97140000Y-72050000D01*
X96660000Y-78050000D02*
X96660000Y-72050000D01*
X97020000Y-78050000D02*
X97020000Y-72050000D01*
X96980000Y-83420000D02*
X95710000Y-83420000D01*
X107520000Y-81107071D02*
X107520000Y-80710000D01*
X115140000Y-72050000D02*
X115140000Y-78050000D01*
X115140000Y-81107071D02*
X115140000Y-80710000D01*
X102440000Y-81107071D02*
X102440000Y-80710000D01*
X95650000Y-80710000D02*
X116090000Y-80710000D01*
X111840000Y-78050000D02*
X111840000Y-72050000D01*
X99140000Y-78050000D02*
X99140000Y-72050000D01*
X116090000Y-78050000D02*
X95650000Y-78050000D01*
X111840000Y-72050000D02*
X112600000Y-72050000D01*
X99900000Y-72050000D02*
X99900000Y-78050000D01*
X113490000Y-80710000D02*
X113490000Y-78050000D01*
X95650000Y-78050000D02*
X95650000Y-80710000D01*
X104980000Y-72050000D02*
X104980000Y-78050000D01*
X111840000Y-81107071D02*
X111840000Y-80710000D01*
X104220000Y-81107071D02*
X104220000Y-80710000D01*
X97360000Y-81040000D02*
X97360000Y-80710000D01*
X107520000Y-72050000D02*
X107520000Y-78050000D01*
X99140000Y-72050000D02*
X99900000Y-72050000D01*
X104980000Y-81107071D02*
X104980000Y-80710000D01*
X108410000Y-80710000D02*
X108410000Y-78050000D01*
X101680000Y-81107071D02*
X101680000Y-80710000D01*
X109300000Y-72050000D02*
X110060000Y-72050000D01*
X105870000Y-80710000D02*
X105870000Y-78050000D01*
X110060000Y-72050000D02*
X110060000Y-78050000D01*
X114380000Y-81107071D02*
X114380000Y-80710000D01*
X99140000Y-81107071D02*
X99140000Y-80710000D01*
X100790000Y-80710000D02*
X100790000Y-78050000D01*
X98250000Y-80710000D02*
X98250000Y-78050000D01*
X96600000Y-72050000D02*
X97360000Y-72050000D01*
X97360000Y-72050000D02*
X97360000Y-78050000D01*
X96780000Y-78050000D02*
X96780000Y-72050000D01*
X114380000Y-78050000D02*
X114380000Y-72050000D01*
X106760000Y-72050000D02*
X107520000Y-72050000D01*
X101680000Y-78050000D02*
X101680000Y-72050000D01*
X110060000Y-81107071D02*
X110060000Y-80710000D01*
X109300000Y-78050000D02*
X109300000Y-72050000D01*
X96600000Y-81040000D02*
X96600000Y-80710000D01*
X96600000Y-78050000D02*
X96600000Y-72050000D01*
X101680000Y-72050000D02*
X102440000Y-72050000D01*
X109300000Y-81107071D02*
X109300000Y-80710000D01*
X116090000Y-80710000D02*
X116090000Y-78050000D01*
X97260000Y-78050000D02*
X97260000Y-72050000D01*
X95710000Y-83420000D02*
X95710000Y-82150000D01*
X96900000Y-78050000D02*
X96900000Y-72050000D01*
X112600000Y-72050000D02*
X112600000Y-78050000D01*
X102440000Y-72050000D02*
X102440000Y-78050000D01*
X103330000Y-80710000D02*
X103330000Y-78050000D01*
X104220000Y-72050000D02*
X104980000Y-72050000D01*
X110950000Y-80710000D02*
X110950000Y-78050000D01*
X106760000Y-78050000D02*
X106760000Y-72050000D01*
X106760000Y-81107071D02*
X106760000Y-80710000D01*
X112600000Y-81107071D02*
X112600000Y-80710000D01*
%TO.C,C11*%
X144426400Y-96050980D02*
X144426400Y-95769820D01*
X143406400Y-96050980D02*
X143406400Y-95769820D01*
%TO.C,C6*%
X126812169Y-104341200D02*
X126531009Y-104341200D01*
X126812169Y-105361200D02*
X126531009Y-105361200D01*
D10*
%TO.C,F2*%
X121640600Y-134648400D02*
X121640600Y-132148400D01*
X121640600Y-128148400D02*
X121640600Y-125648400D01*
X99642400Y-125649600D02*
X121642400Y-125649600D01*
X99642400Y-128149600D02*
X99642400Y-125649600D01*
X99642400Y-134649600D02*
X99642400Y-132149600D01*
D14*
%TO.C,SW1*%
X110984600Y-98730020D02*
X112484600Y-98730020D01*
X112484600Y-91730020D02*
X110984600Y-91730020D01*
X114984600Y-97480020D02*
X114984600Y-92980020D01*
X108484600Y-92980020D02*
X108484600Y-97480020D01*
%TO.C,Q2*%
X113334800Y-105446000D02*
X112684800Y-105446000D01*
X113334800Y-102326000D02*
X112684800Y-102326000D01*
X113334800Y-102326000D02*
X113984800Y-102326000D01*
X113334800Y-105446000D02*
X115009800Y-105446000D01*
D11*
%TO.C,TP4*%
X127734000Y-78282800D02*
G75*
G03*
X127734000Y-78282800I-1750000J0D01*
G01*
D14*
%TO.C,C20*%
X115974400Y-123062420D02*
X115974400Y-123343580D01*
X116994400Y-123062420D02*
X116994400Y-123343580D01*
D10*
%TO.C,U4*%
X156283400Y-96907600D02*
X155283400Y-96907600D01*
X177273400Y-74907600D02*
X177273400Y-77907600D01*
X155273400Y-74907600D02*
X177273400Y-74907600D01*
X155283400Y-96907600D02*
X155273400Y-81907600D01*
X177273400Y-96907600D02*
X176283400Y-96907600D01*
X155273400Y-77907600D02*
X155273400Y-74907600D01*
X177273400Y-81907600D02*
X177273400Y-96907600D01*
X177273400Y-77907600D02*
X177273400Y-77907600D01*
D13*
X157403800Y-98018600D02*
G75*
G03*
X157403800Y-98018600I-127000J0D01*
G01*
D14*
%TO.C,C22*%
X129868600Y-118676052D02*
X129868600Y-118153548D01*
X128398600Y-118676052D02*
X128398600Y-118153548D01*
%TO.C,C2*%
X144893420Y-123954000D02*
X145174580Y-123954000D01*
X144893420Y-122934000D02*
X145174580Y-122934000D01*
%TO.C,R40*%
X162363129Y-109019326D02*
X161888613Y-109019326D01*
X162363129Y-110064326D02*
X161888613Y-110064326D01*
%TO.C,Q4*%
X141109200Y-110555600D02*
X141759200Y-110555600D01*
X141109200Y-113675600D02*
X140459200Y-113675600D01*
X141109200Y-113675600D02*
X141759200Y-113675600D01*
X141109200Y-110555600D02*
X139434200Y-110555600D01*
%TO.C,R25*%
X141786600Y-83994258D02*
X141786600Y-83519742D01*
X140741600Y-83994258D02*
X140741600Y-83519742D01*
%TO.C,R22*%
X130559800Y-83531942D02*
X130559800Y-84006458D01*
X129514800Y-83531942D02*
X129514800Y-84006458D01*
%TO.C,R8*%
X126921847Y-99062300D02*
X126447331Y-99062300D01*
X126921847Y-98017300D02*
X126447331Y-98017300D01*
%TO.C,J9*%
X169614400Y-128782000D02*
X169614400Y-134282000D01*
X167114400Y-128782000D02*
X167114400Y-134282000D01*
X177614400Y-134282000D02*
X177614400Y-128782000D01*
X167064400Y-123482000D02*
X167664400Y-123482000D01*
X170114400Y-128782000D02*
X169614400Y-128782000D01*
X177114400Y-128782000D02*
X177114400Y-134282000D01*
X174614400Y-134282000D02*
X175114400Y-134282000D01*
X172114400Y-128782000D02*
X172114400Y-134282000D01*
X167664400Y-123482000D02*
X167364400Y-124082000D01*
X167614400Y-134282000D02*
X167614400Y-128782000D01*
X175114400Y-134282000D02*
X175114400Y-128782000D01*
X178504400Y-127672000D02*
X172364400Y-127672000D01*
X172614400Y-128782000D02*
X172114400Y-128782000D01*
X179924400Y-123172000D02*
X178504400Y-123172000D01*
X172614400Y-134282000D02*
X172614400Y-128782000D01*
X174614400Y-128782000D02*
X174614400Y-134282000D01*
X179924400Y-134892000D02*
X179924400Y-123172000D01*
X175114400Y-128782000D02*
X174614400Y-128782000D01*
X178504400Y-123172000D02*
X178504400Y-127672000D01*
X166224400Y-123172000D02*
X166224400Y-127672000D01*
X177614400Y-128782000D02*
X177114400Y-128782000D01*
X172114400Y-134282000D02*
X172614400Y-134282000D01*
X167364400Y-124082000D02*
X167064400Y-123482000D01*
X167114400Y-134282000D02*
X167614400Y-134282000D01*
X172364400Y-134892000D02*
X179924400Y-134892000D01*
X172364400Y-134892000D02*
X164804400Y-134892000D01*
X177114400Y-134282000D02*
X177614400Y-134282000D01*
X164804400Y-123172000D02*
X166224400Y-123172000D01*
X169614400Y-134282000D02*
X170114400Y-134282000D01*
X164804400Y-134892000D02*
X164804400Y-123172000D01*
X167614400Y-128782000D02*
X167114400Y-128782000D01*
X166224400Y-127672000D02*
X172364400Y-127672000D01*
X170114400Y-134282000D02*
X170114400Y-128782000D01*
%TO.C,R33*%
X183917858Y-109002300D02*
X183443342Y-109002300D01*
X183917858Y-110047300D02*
X183443342Y-110047300D01*
%TO.C,R17*%
X139431500Y-108525542D02*
X139431500Y-109000058D01*
X140476500Y-108525542D02*
X140476500Y-109000058D01*
%TO.C,Q1*%
X161349200Y-98939600D02*
X161349200Y-100969600D01*
X163009200Y-98939600D02*
X163669200Y-98939600D01*
X161349200Y-98939600D02*
X162009200Y-98939600D01*
X163669200Y-100349600D02*
X163669200Y-98939600D01*
%TO.C,C4*%
X134100180Y-123954000D02*
X133819020Y-123954000D01*
X134100180Y-122934000D02*
X133819020Y-122934000D01*
%TO.C,D12*%
X182820329Y-121062297D02*
X182820329Y-115662297D01*
X182820329Y-121062297D02*
X186120329Y-121062297D01*
X186120329Y-121062297D02*
X186120329Y-115662297D01*
%TO.C,R41*%
X166655729Y-110064326D02*
X166181213Y-110064326D01*
X166655729Y-109019326D02*
X166181213Y-109019326D01*
%TO.C,C13*%
X138736800Y-93853580D02*
X138736800Y-93572420D01*
X137716800Y-93853580D02*
X137716800Y-93572420D01*
%TO.C,R12*%
X133067058Y-115098300D02*
X132592542Y-115098300D01*
X133067058Y-116143300D02*
X132592542Y-116143300D01*
%TO.C,R21*%
X132615563Y-85124200D02*
X134063037Y-85124200D01*
X132615563Y-82414200D02*
X134063037Y-82414200D01*
%TO.C,D3*%
X127280400Y-126241600D02*
X127280400Y-131641600D01*
X130580400Y-126241600D02*
X127280400Y-126241600D01*
X130580400Y-126241600D02*
X130580400Y-131641600D01*
%TO.C,R10*%
X123236258Y-117477500D02*
X122761742Y-117477500D01*
X123236258Y-118522500D02*
X122761742Y-118522500D01*
%TO.C,R26*%
X170505969Y-108387926D02*
X170980485Y-108387926D01*
X170505969Y-107342926D02*
X170980485Y-107342926D01*
%TO.C,R32*%
X179614528Y-109019326D02*
X179140012Y-109019326D01*
X179614528Y-110064326D02*
X179140012Y-110064326D01*
%TO.C,SW2*%
X103110600Y-98730020D02*
X104610600Y-98730020D01*
X100610600Y-92980020D02*
X100610600Y-97480020D01*
X107110600Y-97480020D02*
X107110600Y-92980020D01*
X104610600Y-91730020D02*
X103110600Y-91730020D01*
%TD*%
M02*
